<?xml version="1.0" encoding="UTF-8" standalone="no"?>
<!-- Created with Inkscape (http://www.inkscape.org/) -->

<svg
   width="77.74926mm"
   height="150.38156mm"
   viewBox="0 0 77.74926 150.38156"
   version="1.1"
   id="svg1"
   xml:space="preserve"
   xmlns:inkscape="http://www.inkscape.org/namespaces/inkscape"
   xmlns:sodipodi="http://sodipodi.sourceforge.net/DTD/sodipodi-0.dtd"
   xmlns="http://www.w3.org/2000/svg"
   xmlns:svg="http://www.w3.org/2000/svg"><sodipodi:namedview
     id="namedview1"
     pagecolor="#ffffff"
     bordercolor="#000000"
     borderopacity="0.25"
     inkscape:showpageshadow="2"
     inkscape:pageopacity="0.0"
     inkscape:pagecheckerboard="0"
     inkscape:deskcolor="#d1d1d1"
     inkscape:document-units="mm"
     inkscape:zoom="0.72515432"
     inkscape:cx="515.75229"
     inkscape:cy="341.99617"
     inkscape:window-width="1920"
     inkscape:window-height="1009"
     inkscape:window-x="-8"
     inkscape:window-y="-8"
     inkscape:window-maximized="1"
     inkscape:current-layer="layer1"><inkscape:page
       x="0"
       y="0"
       width="77.74926"
       height="150.38156"
       id="page2"
       margin="0"
       bleed="0" /></sodipodi:namedview><defs
     id="defs1" /><g
     inkscape:label="Réteg 1"
     inkscape:groupmode="layer"
     id="layer1"
     transform="translate(-314.27371,-82.685757)"><g
       id="g26"
       transform="translate(249.74247,2.0639874)"><path
         style="fill:#c9c9c9"
         d="m 75.544158,230.72576 c -0.08685,-0.14053 -0.124497,-11.71935 -0.08367,-25.73073 0.04083,-14.01138 0.0751,-35.83368 0.07614,-48.49399 l 0.0019,-23.01875 -2.116666,-0.13229 -2.116667,-0.13229 0.0625,-19.44687 c 0.03808,-11.84924 0.167087,-19.942021 0.330207,-20.714242 2.087561,-9.882652 27.238036,-15.514859 47.629168,-10.666094 5.28054,1.255648 10.44185,3.639874 13.08062,6.042491 0.2821,0.256854 0.58609,0.467008 0.67552,0.467008 0.0894,0 0.654,0.696788 1.25458,1.548417 1.77005,2.509932 1.75223,2.22495 1.49198,23.85158 l -0.23082,19.18229 -1.98438,0.13229 -1.98437,0.1323 -0.19296,24.20937 c -0.45066,56.54453 -0.63013,72.38215 -0.82374,72.69427 -0.25882,0.41724 -54.811918,0.49177 -55.069351,0.0752 z m 60.848552,-5.30076 -4.23334,-0.13229 -0.0679,-19.41769 c -0.0494,-14.12466 0.0136,-19.51579 0.23083,-19.7776 0.43246,-0.52108 8.76664,-0.52106 9.19909,1e-5 0.623,0.75066 0.26712,38.80777 -0.36621,39.16303 -0.35889,0.20131 -1.8914,0.25426 -4.7625,0.16454 z m -71.516878,-0.3175 c -0.459447,-0.45945 -0.459447,-38.59305 0,-39.0525 0.568405,-0.5684 9.102804,-0.43543 9.339659,0.14552 0.21481,0.52688 0.192192,38.64914 -0.02314,38.99755 -0.227476,0.36806 -8.942612,0.28334 -9.316522,-0.0906 z m 67.762178,-47.10906 c -0.35849,-0.55389 -0.41318,-38.56056 -0.0561,-38.99081 0.47107,-0.5676 9.03521,-0.52834 9.50987,0.0436 0.34154,0.41152 0.17926,38.49222 -0.1664,39.05152 -0.23563,0.38125 -9.03708,0.28239 -9.28736,-0.10431 z m -67.411056,-0.18685 c -0.264377,-0.42777 -0.45402,-30.71003 -0.220448,-35.20117 l 0.213284,-4.10104 4.462929,-0.0727 c 3.06686,-0.0499 4.577329,0.0223 4.828645,0.23084 0.388593,0.3225 0.513088,34.17413 0.138564,37.67726 l -0.169721,1.5875 -4.544638,0.0723 c -2.832597,0.0451 -4.606411,-0.0276 -4.708615,-0.19301 z"
         id="path32" /><path
         style="fill:#b5b5b5"
         d="m 75.805277,230.54873 c -0.389132,-0.38913 -0.415811,-1.25834 -0.265959,-8.6651 0.09161,-4.52793 0.140996,-15.81909 0.109752,-25.09148 -0.04756,-14.11378 0.0034,-16.93151 0.313206,-17.30492 0.427404,-0.51522 0.383804,-11.32272 -0.05029,-12.46446 -0.135809,-0.35721 -0.241159,-7.85073 -0.241159,-17.15353 V 133.35 h -1.833184 c -3.027164,0 -2.766783,1.99149 -2.558581,-19.56895 0.105171,-10.89113 0.294067,-19.26935 0.453593,-20.118547 0.912582,-4.857899 7.132781,-8.933859 17.156535,-11.242304 1.621211,-0.373361 3.065986,-0.605706 3.210612,-0.516322 0.144625,0.08938 0.436628,0.01838 0.648896,-0.157788 0.22307,-0.185132 0.716306,-0.25423 1.168776,-0.163736 0.444904,0.08898 0.858891,0.03351 0.959022,-0.12851 0.100427,-0.162493 0.55784,-0.223144 1.063745,-0.141047 0.488156,0.07922 0.956296,0.03281 1.040311,-0.103131 0.195084,-0.315653 2.25005,-0.315272 2.749052,5.09e-4 0.425006,0.268954 0.472676,0.259768 -4.795384,0.924211 -4.906243,0.618809 -6.933516,1.291372 -6.690565,2.219643 0.102134,0.390234 0.229936,1.662016 0.284005,2.826183 0.05407,1.164167 0.16177,2.414323 0.239335,2.778125 0.07757,0.363802 0.19735,1.971146 0.266189,3.571875 0.06884,1.600729 0.17244,3.505729 0.230225,4.233333 0.479486,6.037486 1.00906,12.034596 1.235429,13.990486 0.149515,1.29185 0.344579,3.45609 0.433475,4.80941 0.223251,3.39867 -0.156423,3.17854 4.776764,2.76946 16.131663,-1.33772 31.546893,2.37452 37.704133,9.07978 l 1.25386,1.36545 0.0375,-3.96875 c 0.067,-7.08933 0.33314,-8.72119 0.56488,-3.46348 0.3047,6.91293 0.25602,10.62591 -0.14367,10.95763 -0.18748,0.15559 -1.11022,0.319 -2.05052,0.36312 l -1.70965,0.0802 -0.0429,15.08125 c -0.0408,14.34437 -0.15111,17.94852 -0.56734,18.52929 -0.10597,0.14786 -2.08477,0.25612 -4.68147,0.25612 h -4.49792 l -0.0333,16.66875 c -0.0327,16.38422 -0.043,16.69284 -0.60027,18.08017 -2.14609,5.34259 -8.23709,8.87408 -16.76636,9.72094 -1.46818,0.14577 -1.90835,0.6416 -0.56957,0.6416 0.45243,0 0.72947,0.20274 0.90387,0.66146 0.29112,0.7657 0.58753,0.83187 1.07817,0.24069 0.29356,-0.35372 0.39358,-0.36259 0.62771,-0.0557 0.63599,0.83367 2.44761,0.9973 13.01713,1.17572 l 10.5895,0.17875 0.17572,-11.74994 c 0.0966,-6.46247 0.18977,-15.79806 0.20696,-20.74577 0.0172,-4.94771 0.1111,-9.76974 0.2087,-10.71563 0.31542,-3.05683 0.61309,9.49387 0.43614,18.38855 -0.26487,13.31344 -0.28492,16.70685 -0.15709,26.59062 0.0668,5.16599 0.021,10.41515 -0.10188,11.6648 l -0.22334,2.27208 -16.43459,0.17508 c -28.814188,0.30695 -37.623701,0.24758 -38.128258,-0.25698 z m 27.547583,-23.80268 c 0.35198,-0.0945 0.56361,-0.36522 0.5659,-0.72399 0.002,-0.31521 0.13595,-1.27958 0.29765,-2.14305 0.36915,-1.97124 0.37359,-1.88454 -0.12177,-2.3799 -1.31877,-1.31878 -5.405058,0.52484 -5.405058,2.43861 0,1.7191 2.688648,3.33827 4.663278,2.80833 z m -18.88033,-29.40907 0.122089,-9.85573 h -3.932727 -3.932727 l 0.0029,11.44323 c 0.0033,12.86164 0.04307,13.4276 0.944117,13.4276 0.337264,0 0.906767,0.27206 1.265561,0.60458 0.358795,0.33252 0.990007,0.77882 1.402694,0.99177 0.98889,0.51028 1.180764,0.7969 1.012517,1.51251 -0.116817,0.49685 -0.02973,0.59531 0.526533,0.59531 0.416055,0 0.6665,0.14913 0.6665,0.39688 0,0.21921 0.234625,0.39687 0.524125,0.39687 0.346618,0 0.592255,0.24642 0.725289,0.7276 0.248099,0.89738 0.508127,-6.92166 0.673117,-20.24062 z m 35.62584,5.35781 c 0.72265,-16.02336 0.9121,-29.65775 0.43271,-31.14064 -0.92256,-2.85376 -2.92568,-5.17259 -5.94375,-6.88052 -0.81288,-0.46001 -1.95059,-1.23551 -2.52824,-1.72334 -6.91007,-5.83555 -20.400969,-2.46471 -20.347716,5.08409 0.06112,8.66426 17.016476,11.3941 22.094566,3.55727 1.95932,-3.02374 1.68009,0.23612 -0.91538,10.68665 -2.59899,10.46468 -2.72436,10.61665 -9.37233,11.36175 -3.12538,0.35029 -2.91359,0.0246 -2.45195,3.77002 0.14302,1.16035 0.36597,3.28394 0.49544,4.71909 0.27067,3.00031 0.22852,2.9518 2.78172,3.20158 5.23746,0.51237 9.87869,2.32843 13.39614,5.24174 l 1.71979,1.42441 0.18228,-1.60834 c 0.10025,-0.88459 0.30577,-4.34678 0.45672,-7.69376 z m -55.122952,42.1349 c -0.336796,-0.51561 -0.367355,-3.13714 -0.228229,-19.57917 l 0.160633,-18.98385 h 4.426194 4.426194 l 0.133773,2.97656 c 0.07357,1.63711 0.131686,5.47687 0.129135,8.53281 -0.0026,3.05594 0.01499,10.42768 0.03897,16.38164 0.03464,8.59833 -0.02673,10.87001 -0.298303,11.0423 -0.897543,0.56941 -8.380499,0.25412 -8.788371,-0.37029 z m 67.467432,0.17954 c -0.30929,-0.3093 -0.41695,-0.96995 -0.42038,-2.57969 -0.01,-4.48721 0.56881,-25.2431 0.74227,-26.63787 l 0.18099,-1.45521 0.13599,2.09461 c 0.13009,2.00379 0.16466,2.09684 0.79744,2.14632 5.80129,0.45354 6.40588,0.46258 6.63597,0.0992 0.1293,-0.20424 0.23692,-2.96095 0.23915,-6.12603 l 0.004,-5.75469 h -3.83646 -3.83646 l -0.0309,2.05052 c -0.0732,4.85461 -0.3737,5.70758 -0.53594,1.52136 -0.0846,-2.18281 -0.072,-4.0611 0.0281,-4.17396 0.10004,-0.11287 2.12748,-0.1724 4.50541,-0.1323 l 4.3235,0.0729 0.0512,3.70416 c 0.24441,17.67054 0.18108,34.80355 -0.13004,35.17842 -0.50453,0.60792 -8.24501,0.60116 -8.85391,-0.008 z m 0.34322,-47.27418 c -0.31389,-0.58652 -0.38641,-38.23124 -0.0743,-38.5434 0.23959,-0.23959 9.04625,-0.32968 9.19189,-0.094 0.46157,0.74685 0.0331,38.72616 -0.44026,39.02734 -0.87404,0.55606 -8.35091,0.2201 -8.67738,-0.38991 z m 8.32969,-21.95916 c 0.0919,-0.76533 0.16817,-4.6955 0.16944,-8.7337 l 0.002,-7.34219 h -3.97242 -3.97241 l 0.0698,8.53281 0.0698,8.53282 1.32292,0.13283 c 0.7276,0.073 2.40753,0.16345 3.73316,0.20089 l 2.41025,0.0681 z M 65.493563,177.6391 c -0.471449,-0.47145 -0.468116,-0.28941 -0.391904,-21.40264 0.03081,-8.53611 0.120831,-11.29653 0.388268,-11.90625 0.328987,-0.75005 0.349447,-0.68449 0.37162,1.19062 0.01291,1.09141 0.0982,2.77561 0.189554,3.74268 l 0.166089,1.7583 2.6763,0.39116 c 4.585623,0.67021 4.597868,0.66852 4.788859,-0.65949 0.08951,-0.62238 0.127051,-3.27473 0.08343,-5.8941 l -0.07932,-4.7625 -1.058333,-0.0897 c -0.582084,-0.0493 -2.278724,-0.008 -3.770313,0.0916 l -2.711979,0.18126 -0.02274,1.23131 c -0.02858,1.54768 -0.404101,0.53717 -0.548301,-1.47548 l -0.09041,-1.26196 h 4.497916 4.497917 l 0.141197,16.80104 c 0.137353,16.34353 -0.02423,21.85182 -0.653795,22.28709 -0.61454,0.42489 -8.021067,0.22999 -8.474046,-0.22299 z m 69.392727,-75.00893 c -0.0883,-10.776393 -0.011,-10.225046 -1.73316,-12.355606 -0.50636,-0.626439 -0.85069,-1.208952 -0.76516,-1.294474 0.23045,-0.230454 0.94213,0.436872 1.39042,1.303776 0.21642,0.41852 0.60464,0.972086 0.8627,1.230148 0.93246,0.932462 1.12718,3.17664 1.04042,11.991336 -0.0595,6.04933 -0.17059,8.47558 -0.39834,8.70308 -0.24466,0.24439 -0.33406,-1.91314 -0.39688,-9.57826 z m -3.91033,-14.38294 c -0.32591,-0.392698 -2.85038,-1.88236 -5.0343,-2.970681 -2.16257,-1.077688 -0.61596,-0.632831 1.96571,0.5654 1.39272,0.646405 2.53221,1.304195 2.53221,1.461757 0,0.157563 0.29766,0.399646 0.66146,0.537963 0.3638,0.138318 0.66146,0.373496 0.66146,0.522618 0,0.393722 -0.41374,0.332148 -0.78654,-0.117057 z"
         id="path31" /><path
         style="fill:#919191"
         d="m 75.790593,230.38254 c -0.07052,-0.18376 -0.09655,-3.69836 -0.05784,-7.81021 l 0.07037,-7.4761 27.215137,0.007 c 14.96832,0.004 27.33832,0.0836 27.4889,0.17664 0.30408,0.18793 0.12811,14.64108 -0.18441,15.14676 -0.27873,0.45099 -54.358955,0.40683 -54.532158,-0.0445 z m -10.804677,-5.63438 c -0.21749,-0.56677 -0.207206,-10.29222 0.01833,-17.33831 0.159948,-4.99694 0.513212,-6.78008 0.586043,-2.95812 0.03153,1.65465 -0.147939,1.58448 4.446128,1.73839 2.803552,0.0939 3.242133,0.0522 3.327791,-0.31648 0.231878,-0.9981 0.492013,4.62129 0.537633,11.61386 l 0.0492,7.54062 -4.401061,0.0724 c -3.839319,0.0632 -4.421867,0.0182 -4.564063,-0.35237 z m 67.391624,-0.0102 c -0.242,-0.63066 0.12425,-15.4384 0.40838,-16.51092 0.13493,-0.50932 0.25752,-0.72511 0.27241,-0.47952 0.0233,0.38409 0.42469,0.45807 2.87136,0.52916 4.66536,0.13557 4.82789,0.1 4.83269,-1.0578 0.002,-0.53691 0.10223,-1.13098 0.22222,-1.32015 0.24432,-0.38517 0.56748,7.79032 0.56748,14.35649 0,2.96845 -0.0968,4.36694 -0.3175,4.58766 -0.53475,0.53474 -8.64846,0.43863 -8.85704,-0.10492 z m -31.57129,-13.35447 c -6.922934,-0.59981 -12.900482,-4.12282 -15.180164,-8.9468 l -0.827129,-1.75027 0.06673,-16.7285 0.06673,-16.72849 -4.432357,-0.0725 -4.432357,-0.0725 -0.132292,-16.93334 -0.132291,-16.93333 -2.116667,-0.13229 -2.116667,-0.13229 -0.06801,-8.46667 c -0.128507,-15.99812 0.274874,-31.318906 0.856845,-32.543749 0.876552,-1.844833 3.881874,-4.560853 6.181832,-5.586748 1.113841,-0.496828 2.341192,-1.080167 2.727447,-1.296309 0.386255,-0.216141 0.862505,-0.390203 1.058333,-0.386804 0.195829,0.0034 -0.23926,0.331223 -0.966864,0.728497 l -1.322917,0.722317 -0.06716,6.61369 c -0.09029,8.891636 0.281187,29.670336 0.534973,29.923986 0.111778,0.11171 1.540528,-0.17693 3.175,-0.64142 19.553225,-5.55674 43.327085,-2.00805 50.272955,7.50418 2.09638,2.87094 1.94289,3.8259 -0.61492,3.8259 -1.15598,0 -1.88537,0.11929 -2.02222,0.33073 -0.11773,0.1819 -0.21405,7.59354 -0.21405,16.47031 0,8.87677 -0.10204,16.34795 -0.22675,16.60261 -0.27295,0.55737 -8.80807,0.71507 -9.35039,0.17276 -0.20177,-0.20177 -0.24769,-2.07717 -0.15062,-6.15157 0.2344,-9.83935 -0.96757,-12.95474 -6.18675,-16.03544 -0.85139,-0.50255 -2.08377,-1.35004 -2.73862,-1.88332 -5.61225,-4.57043 -14.080746,-4.27053 -19.212523,0.68038 -2.416379,2.33121 -2.784441,4.09496 -1.445269,6.9257 2.797911,5.91423 11.411852,7.931 19.012402,4.45136 3.24312,-1.48475 3.34738,-0.70091 1.15369,8.67364 -2.011,8.59385 -2.66142,9.3707 -8.0831,9.65429 -6.110984,0.31964 -7.994354,-0.99164 -9.70296,-6.7556 -0.61522,-2.07544 -1.169775,-3.72233 -1.232343,-3.65977 -0.13765,0.13765 0.452148,23.7854 0.59684,23.93009 0.05598,0.056 1.14944,-0.12021 2.429919,-0.39153 7.866424,-1.66683 16.687124,0.40538 21.774334,5.11537 9.42986,8.7306 -1.23257,21.26378 -16.93265,19.90352 z m 4.69089,-4.73437 c 3.7161,-1.68692 2.20858,-6.10022 -2.08108,-6.09241 -3.62427,0.007 -6.130018,2.7515 -4.559129,4.99426 1.06679,1.52306 4.465849,2.08519 6.640209,1.09815 z m 24.98407,-14.08302 c 0.0344,-3.35094 0.0745,-3.73064 0.23172,-2.19843 0.29068,2.83218 0.28626,5.90308 -0.009,6.08542 -0.17265,0.1067 -0.25011,-1.24379 -0.22295,-3.88699 z m 2.45683,-14.79055 c -0.31943,-0.51684 -0.46149,-7.05522 -0.24959,-11.4868 0.17236,-3.60459 0.57209,-5.14188 0.64295,-2.47266 l 0.0186,0.70049 3.56363,0.19087 c 1.96,0.10498 3.73957,0.12335 3.9546,0.0408 0.57688,-0.22137 0.72852,1.27717 0.77552,7.66371 l 0.0406,5.52025 -4.27987,0.0726 c -2.99152,0.0508 -4.33604,-0.0183 -4.46646,-0.22931 z m -67.445328,-0.22668 c -0.287822,-0.46571 -0.508918,-31.139 -0.225713,-31.31403 0.173132,-0.107 0.323264,2.56896 0.433436,7.72559 0.0927,4.33912 0.243582,8.08482 0.335283,8.32379 0.140969,0.36736 0.627356,0.43449 3.148057,0.43449 1.63973,0 3.339068,0.0716 3.776306,0.159 l 0.794978,0.15899 0.238374,-4.0616 0.238375,-4.0616 0.223879,7.91169 c 0.199377,7.04583 0.06362,14.21882 -0.279619,14.77419 -0.18232,0.295 -8.49972,0.24662 -8.683356,-0.0505 z m 76.021228,-16.47228 c -0.0818,-0.39384 -0.12882,-1.10822 -0.10457,-1.5875 0.0242,-0.47928 0.0663,-5.19446 0.0934,-10.47818 0.0271,-5.28372 0.14968,-9.54473 0.27234,-9.46892 0.27446,0.16962 0.34772,19.40736 0.0802,21.06005 -0.16891,1.04352 -0.21108,1.10215 -0.34138,0.47455 z"
         id="path30" /><path
         style="fill:#6f6f6f"
         d="m 75.935415,222.91146 v -7.54063 l 22.291146,7.5e-4 c 12.260129,4.1e-4 24.523569,0.0788 27.252079,0.17413 l 4.96094,0.17337 v 4.94461 c 0,2.71953 -0.0774,6.03445 -0.17191,7.3665 l -0.17191,2.42189 H 103.01559 75.935415 Z m -10.583333,1.98976 c -0.448594,-0.28382 -0.431952,-12.72408 0.01806,-13.49914 0.194569,-0.3351 0.231685,-0.32481 0.238479,0.0661 0.0067,0.38458 0.265766,0.46555 1.5294,0.47796 3.02718,0.0297 6.024882,0.28939 6.28358,0.54429 0.444779,0.43825 0.534915,12.15545 0.09565,12.43377 -0.490484,0.31076 -7.669586,0.29051 -8.165166,-0.023 z m 71.106768,0.0613 -3.9026,-0.0809 0.004,-5.61533 c 0.004,-5.45217 0.11645,-6.92649 0.51191,-6.68209 0.10492,0.0649 1.92424,0.13439 4.04293,0.15454 l 3.85216,0.0366 0.16032,0.8016 c 0.57541,2.87704 0.0946,11.81224 -0.6202,11.52487 -0.08,-0.0322 -1.9017,-0.0949 -4.04813,-0.13936 z M 97.139288,210.47166 C 91.506485,209.0163 87.405885,205.9295 85.663805,201.8333 l -0.600265,-1.41143 v -16.66874 -16.66875 l -4.354223,-0.073 c -3.077278,-0.0516 -4.414573,-0.16795 -4.560011,-0.39687 -0.113183,-0.17815 -0.207611,-7.78235 -0.209839,-16.89821 -0.0036,-14.86713 -0.04716,-16.59084 -0.422566,-16.7349 -0.230183,-0.0883 -1.173223,-0.1606 -2.095644,-0.1606 -1.674915,0 -1.677378,-0.001 -1.864848,-0.85467 -0.284913,-1.2972 0.125924,-36.615284 0.444972,-38.252507 0.370322,-1.900343 2.10791,-4.404772 3.811027,-5.492929 l 1.313632,-0.839308 -0.06966,18.618664 c -0.07892,21.09507 -0.31384,19.16124 2.186326,17.99799 17.989479,-8.36997 50.825244,-4.03756 55.410074,7.31092 0.75219,1.86183 0.73949,1.87634 -1.78682,2.04101 l -2.0295,0.13229 v 16.40417 c 0,9.02229 -0.0963,16.55299 -0.21406,16.73489 -0.23799,0.36773 -8.9125,0.49644 -8.91595,0.1323 -0.14352,-15.16871 -0.10843,-14.41043 -0.73561,-15.89736 -1.08774,-2.57884 -3.32362,-4.98516 -6.12818,-6.59535 -0.66227,-0.38023 -1.59976,-1.0302 -2.08333,-1.44438 -6.02248,-5.15834 -14.179069,-4.6486 -20.520499,1.28244 l -2.015917,1.88545 v 21.36258 21.36258 l 0.595313,-0.14443 c 0.327421,-0.0794 1.607343,-0.51873 2.84427,-0.97622 1.683243,-0.62257 2.74638,-0.84358 4.226418,-0.87861 l 1.977459,-0.0468 0.328646,1.71979 c 0.63169,3.30566 1.93414,10.88696 1.93414,11.25826 0,0.20597 -0.5798,0.6683 -1.28845,1.0274 -4.49112,2.27583 -3.040156,6.73915 2.19711,6.75853 2.7702,0.0103 4.90235,-1.53665 4.91524,-3.56606 0.007,-1.11942 0.0546,-1.16597 3.43652,-3.3687 5.11057,-3.32864 8.36646,-4.91465 8.93091,-4.35045 0.82902,0.82866 0.64964,4.69022 -0.30866,6.64464 -3.1617,6.44819 -13.81071,10.02604 -22.872543,7.68471 z m 35.988182,-32.75328 c -0.43818,-0.52797 -0.52856,-9.59187 -0.0999,-10.02051 0.24804,-0.24805 0.32245,-0.24919 0.32245,-0.005 0,0.23135 0.98709,0.3186 3.63802,0.32155 4.80671,0.005 4.43177,-0.43556 4.43177,5.21157 v 4.70625 l -3.99695,0.0728 c -3.11499,0.0568 -4.0628,-0.007 -4.29537,-0.28674 z m -67.429044,-0.24911 c -0.117729,-0.1819 -0.214052,-2.98227 -0.214052,-6.22304 0,-3.24077 0.07935,-5.68155 0.176337,-5.42396 0.09698,0.2576 0.242077,0.67672 0.322425,0.93138 0.125533,0.39787 6.095594,0.77276 7.897107,0.4959 0.529778,-0.0814 0.597743,9.43325 0.07344,10.28159 -0.255857,0.41398 -7.98477,0.35606 -8.25526,-0.0619 z m 33.652614,-4.92689 c -3.311442,-0.95415 -3.43824,-1.15469 -5.413591,-8.56211 -0.864137,-3.24045 -1.885978,-6.96329 -2.270757,-8.27298 -1.372319,-4.67101 -1.159783,-6.69037 0.431898,-4.10356 2.624085,4.26469 8.53204,6.18295 14.94758,4.85337 2.61256,-0.54144 2.85541,-0.45902 3.38701,1.14955 0.60118,1.81909 -1.02278,13.03238 -2.03384,14.04344 -1.3334,1.3334 -5.94059,1.78774 -9.0483,0.89229 z"
         id="path29" /><path
         style="fill:#555555"
         d="m 76.060786,230.1763 c -0.09374,-0.15168 -0.08344,-3.50416 0.0229,-7.44997 l 0.193343,-7.17418 26.876471,0.18961 c 14.78206,0.10428 26.90318,0.21631 26.93581,0.24894 0.0674,0.0675 0.0657,10.3801 -0.002,12.63267 l -0.0445,1.47858 -17.44001,0.17507 c -25.482096,0.25579 -36.340076,0.22586 -36.541915,-0.10072 z m -10.81017,-5.69242 c -0.502469,-1.30941 -0.05483,-11.33102 0.468315,-10.48455 0.133545,0.21608 1.298072,0.31317 3.756356,0.31317 4.34068,0 4.012555,-0.46761 4.104941,5.84999 l 0.06728,4.60105 -4.116889,0.0727 c -3.579884,0.0632 -4.138166,0.0173 -4.280006,-0.35237 z m 67.482024,0.23556 c -0.22329,-0.22329 -0.23279,-8.47133 -0.011,-9.58012 l 0.16537,-0.82682 h 3.79407 c 3.34869,0 3.82329,0.0546 4.04293,0.46497 0.30442,0.56883 0.48861,9.33282 0.20576,9.79048 -0.21775,0.35234 -7.85511,0.49348 -8.1971,0.15149 z m -35.080565,-14.3938 c -5.003947,-1.12889 -9.73874,-4.37762 -11.276985,-7.73759 -1.126064,-2.45965 -1.198118,-3.713 -1.144958,-19.91613 0.02773,-8.45278 -0.0352,-15.50724 -0.139846,-15.67656 -0.132186,-0.21388 -1.517549,-0.30786 -4.538319,-0.30786 h -4.348051 l -0.06811,-16.86719 -0.0681,-16.86718 -2.116667,-0.1323 -2.116666,-0.13229 0.07009,-19.05 c 0.04817,-13.093 0.164582,-19.463676 0.37228,-20.372912 0.416841,-1.824798 2.749751,-4.894792 3.719587,-4.894792 0.114263,0 0.127943,8.315384 0.0304,18.478634 -0.113803,11.85747 -0.08534,18.53549 0.07944,18.63733 0.141235,0.0873 1.321453,-0.32079 2.622707,-0.90684 19.27543,-8.68119 51.435403,-4.69328 55.674253,6.90373 0.59268,1.6215 0.61567,1.60173 -1.86267,1.60173 -1.39343,0 -2.08475,0.1055 -2.17142,0.33136 -0.0699,0.18225 -0.0485,7.11764 0.0475,15.41198 0.0961,8.29434 0.12889,15.70859 0.0729,16.47611 l -0.10182,1.39549 -4.27351,-0.0726 -4.27351,-0.0726 v -7.15581 -7.15581 l -1.01495,-2.05528 c -1.1769,-2.38323 -3.0962,-4.42211 -5.55869,-5.90501 -0.89564,-0.53935 -2.16533,-1.42852 -2.82153,-1.97594 -4.15138,-3.46316 -10.92706,-4.1325 -16.11599,-1.59203 -1.273565,0.62354 -2.614965,1.67647 -5.870064,4.60774 l -0.954147,0.85922 -0.170053,13.75834 c -0.281588,22.78225 -0.234465,29.76562 0.200854,29.76562 0.204306,0 1.365165,-0.47405 2.579687,-1.05344 4.211866,-2.00928 3.877916,-2.30642 6.826724,6.07413 2.133029,6.06208 2.118629,5.31279 0.129155,6.72003 -0.897076,0.63454 -1.502618,2.06621 -1.273971,3.01203 1.069446,4.42384 8.947065,4.38537 10.411155,-0.0508 0.25013,-0.75792 0.59849,-1.01845 2.59475,-1.9406 2.15417,-0.9951 9.48464,-4.03006 9.73398,-4.03006 0.32105,0 0.0436,2.2719 -0.42165,3.45215 -2.65149,6.72687 -12.92996,10.58682 -22.463802,8.43599 z m 35.342745,-35.09881 c -0.20674,-3.12209 -0.2211,-5.19786 -0.0393,-5.67342 0.18099,-0.47328 7.62715,-0.35809 8.01635,0.12401 0.14092,0.17455 0.29933,2.04378 0.35204,4.15383 l 0.0958,3.83646 -4.12685,0.0727 -4.12686,0.0727 z m -67.374542,-1.45501 c 0.0051,-5.34739 -0.416534,-4.85053 4.034894,-4.75459 4.775098,0.10291 4.470244,-0.21251 4.374152,4.52576 l -0.07828,3.86014 -4.167187,0.0729 -4.167188,0.0729 z m 33.791639,-1.49653 c -2.516718,-0.65632 -3.428665,-1.59195 -4.123843,-4.23097 -0.292415,-1.11005 -1.313575,-4.96555 -2.269244,-8.56778 -0.95567,-3.60222 -1.731337,-6.9955 -1.723704,-7.54062 l 0.01388,-0.99113 0.434236,0.66146 c 2.824533,4.30253 8.822748,6.4503 14.733208,5.27549 1.9614,-0.38986 1.98691,-0.37675 2.6204,1.34783 0.4727,1.28683 -0.731,12.79743 -1.42581,13.63463 -0.7783,0.93778 -5.36419,1.16605 -8.259121,0.41109 z"
         id="path28" /><path
         style="fill:#454545"
         d="m 65.396559,223.37448 c 0.04075,-1.15142 0.05318,-1.1736 0.148264,-0.26458 l 0.103786,0.99218 3.622049,0.004 c 1.992127,0.002 3.800643,0.11947 4.018924,0.26054 0.265551,0.17161 -0.982026,0.25782 -3.770312,0.26053 l -4.167188,0.004 z m 67.460301,0.26458 c 0.0223,-0.6142 0.0797,-0.76539 0.1507,-0.39687 0.11231,0.58312 0.18956,0.59531 3.77212,0.59531 3.00699,0 3.68454,0.0706 3.80975,0.39687 0.13119,0.34189 -0.39646,0.39688 -3.80815,0.39688 h -3.96045 z M 85.435487,195.13021 c -0.02281,-0.29104 -0.01355,-6.69257 0.02059,-14.22561 0.04774,-10.53446 -0.01316,-13.78709 -0.263778,-14.08907 -0.26303,-0.31693 -1.135647,-0.39261 -4.526779,-0.39261 h -4.200936 v -16.61584 c 0,-12.57064 -0.0773,-16.69312 -0.3175,-16.93333 -0.188203,-0.1882 -1.094004,-0.3175 -2.224266,-0.3175 H 72.01605 l -0.186875,-2.49256 c -0.294102,-3.92277 0.259274,-36.070725 0.64153,-37.269166 0.339759,-1.065207 2.288324,-3.636737 2.91237,-3.843469 0.320682,-0.106234 0.347324,2.509615 0.18778,18.437625 -0.16003,15.9766 -0.133201,18.58165 0.192658,18.70669 0.208218,0.0799 1.433404,-0.38131 2.722636,-1.02491 18.147834,-9.05962 53.355031,-4.71081 55.784181,6.89048 l 0.18005,0.85989 h -2.13769 c -1.85658,0 -2.1387,0.0609 -2.14539,0.46303 -0.004,0.25466 -8.7e-4,7.80602 0.007,16.7808 0.008,8.97478 -0.0775,16.35666 -0.19074,16.40417 -0.11326,0.0475 -1.97901,0.0503 -4.14612,0.006 l -3.9402,-0.0802 0.18676,-5.74067 c 0.33072,-10.16556 -0.87289,-13.04677 -6.99073,-16.73453 -0.80037,-0.48245 -1.91995,-1.28824 -2.48796,-1.79064 -4.93638,-4.36619 -14.554375,-4.19562 -19.290205,0.34211 -0.648693,0.62155 -1.730807,1.50945 -2.404698,1.9731 -2.114608,1.45489 -1.941361,-0.49413 -2.153325,24.22483 l -0.190554,22.22221 -0.93684,1.14329 c -0.515262,0.62881 -1.210522,1.70163 -1.545022,2.38404 -0.419716,0.85626 -0.621035,1.07676 -0.649659,0.71158 z m 47.815293,-18.42162 c -0.0909,-0.45475 -0.16559,-2.15139 -0.16587,-3.77031 l -5e-4,-2.94349 3.90311,0.13229 3.9031,0.1323 0.17218,2.24895 c 0.0947,1.23693 0.18399,2.87404 0.19844,3.63802 l 0.0263,1.38907 h -3.93568 -3.93568 z m -67.369531,-3.14192 v -3.70417 h 3.797634 3.797635 l 0.171115,2.0243 c 0.09411,1.11336 0.171116,2.78023 0.171116,3.70416 v 1.67987 h -3.96875 -3.96875 z m 40.518571,-2.69896 c 0.12959,-0.62563 0.38138,-1.97094 0.55955,-2.98958 0.40039,-2.28922 0.55612,-1.20522 0.26562,1.84889 -0.15567,1.63656 -0.29804,2.13206 -0.63091,2.19583 -0.37142,0.0711 -0.39783,-0.0723 -0.19426,-1.05514 z m -8.72521,0.39989 c -1.377991,-0.67899 -1.568145,-1.16814 -3.919062,-10.08133 -2.333319,-8.84647 -2.545332,-10.10129 -1.430891,-8.46888 0.355594,0.52087 1.33786,1.5183 2.182813,2.21651 1.408134,1.16359 1.536713,1.35914 1.541484,2.34436 0.0073,1.50371 1.257341,7.6439 2.511646,12.33702 0.619784,2.31898 0.587848,2.37854 -0.88599,1.65232 z"
         id="path27" /><path
         style="fill:#383838"
         d="m 85.612413,180.79093 c 0.179424,-12.64063 0.161367,-13.5927 -0.270302,-14.25151 -0.688089,-1.05015 -0.353102,-12.94529 0.431279,-15.31439 0.528844,-1.5973 1.944435,-3.85211 2.418386,-3.85211 0.169891,0 0.209418,7.49774 0.113718,21.57026 l -0.14669,21.57026 -0.651409,0.85404 c -0.358276,0.46972 -0.974474,1.3299 -1.369331,1.91151 l -0.71792,1.05747 z M 133.35,177.13607 c 0,-0.57669 7.28968,-0.55607 7.51122,0.0213 0.12164,0.317 -0.47347,0.3781 -3.68307,0.3781 -3.23694,0 -3.82815,-0.0617 -3.82815,-0.39935 z M 72.084926,112.7125 c 0.09197,-9.83254 0.283839,-18.455264 0.426901,-19.185207 0.243868,-1.244277 1.832034,-3.795511 2.497547,-4.012064 0.175259,-0.05703 0.23475,6.188946 0.176217,18.500901 l -0.08837,18.587 -0.867993,0.92604 c -0.477396,0.50932 -1.192749,1.40229 -1.589673,1.98437 l -0.72168,1.05834 z"
         id="path26" /></g></g></svg>
