<?xml version="1.0" encoding="UTF-8" standalone="no"?>
<!-- Created with Inkscape (http://www.inkscape.org/) -->

<svg
   width="210mm"
   height="297mm"
   viewBox="0 0 210 297"
   version="1.1"
   id="svg1"
   inkscape:version="1.4 (86a8ad7, 2024-10-11)"
   sodipodi:docname="locomotive_all.svg"
   xmlns:inkscape="http://www.inkscape.org/namespaces/inkscape"
   xmlns:sodipodi="http://sodipodi.sourceforge.net/DTD/sodipodi-0.dtd"
   xmlns="http://www.w3.org/2000/svg"
   xmlns:svg="http://www.w3.org/2000/svg">
  <sodipodi:namedview
     id="namedview1"
     pagecolor="#ffffff"
     bordercolor="#000000"
     borderopacity="0.25"
     inkscape:showpageshadow="2"
     inkscape:pageopacity="0.0"
     inkscape:pagecheckerboard="0"
     inkscape:deskcolor="#d1d1d1"
     inkscape:document-units="mm"
     inkscape:zoom="1"
     inkscape:cx="347.5"
     inkscape:cy="364"
     inkscape:window-width="1920"
     inkscape:window-height="1009"
     inkscape:window-x="-8"
     inkscape:window-y="-8"
     inkscape:window-maximized="1"
     inkscape:current-layer="layer1" />
  <defs
     id="defs1" />
  <g
     inkscape:label="Réteg 1"
     inkscape:groupmode="layer"
     id="layer1">
    <g
       id="g21"
       transform="translate(31.717116,-13.532882)">
      <rect
         style="fill:#44aa00;fill-rule:evenodd;stroke:none;stroke-width:1"
         id="rect1"
         width="31.75"
         height="31.75"
         x="16.966217"
         y="30.466215" />
      <rect
         style="fill:#803300;fill-rule:evenodd;stroke:none;stroke-width:1"
         id="rect2"
         width="5.8208332"
         height="21.070946"
         x="21.581982"
         y="39.405403" />
      <rect
         style="fill:#803300;fill-rule:evenodd;stroke:none;stroke-width:1"
         id="rect3"
         width="5.8208332"
         height="21.070946"
         x="37.456997"
         y="39.405403" />
      <g
         id="g5">
        <rect
           style="fill:#4d4d4d;fill-rule:evenodd;stroke:none;stroke-width:1"
           id="rect4"
           width="31.75"
           height="3.175"
           x="16.966217"
           y="40.682434" />
        <rect
           style="fill:#999999;fill-rule:evenodd;stroke:none;stroke-width:1"
           id="rect5"
           width="31.75"
           height="2.1166666"
           x="16.966217"
           y="43.857437" />
      </g>
      <g
         id="g7"
         transform="translate(0,11.641668)">
        <rect
           style="fill:#4d4d4d;fill-rule:evenodd;stroke:none;stroke-width:1"
           id="rect6"
           width="31.75"
           height="3.175"
           x="16.966217"
           y="40.682434" />
        <rect
           style="fill:#999999;fill-rule:evenodd;stroke:none;stroke-width:1"
           id="rect7"
           width="31.75"
           height="2.1166666"
           x="16.966217"
           y="43.857437" />
      </g>
      <rect
         style="fill:#aa4400;fill-rule:evenodd;stroke:none;stroke-width:1"
         id="rect8"
         width="5.8539062"
         height="1.7528646"
         x="21.596615"
         y="60.457291" />
      <rect
         style="fill:#aa4400;fill-rule:evenodd;stroke:none;stroke-width:1"
         id="rect9"
         width="5.8539062"
         height="1.7528646"
         x="37.47163"
         y="60.457291" />
    </g>
    <g
       id="g27"
       transform="translate(67.109759,-4.7707606)">
      <rect
         style="fill:#44aa00;fill-rule:evenodd;stroke:none;stroke-width:1"
         id="rect10"
         width="31.75"
         height="31.75"
         x="13.323574"
         y="53.454094" />
      <g
         id="g18"
         transform="translate(-38.567657,22.98788)">
        <rect
           style="fill:#803300;fill-rule:evenodd;stroke:none;stroke-width:1.50681"
           id="rect12"
           width="5.8208332"
           height="31.75"
           x="35.521084"
           y="-83.674667"
           transform="rotate(90)" />
        <rect
           style="fill:#aa4400;fill-rule:evenodd;stroke:none;stroke-width:1"
           id="rect18"
           width="31.75"
           height="1.7528646"
           x="51.891422"
           y="40.878124" />
      </g>
      <g
         id="g20"
         transform="translate(-38.567657,38.862884)">
        <rect
           style="fill:#803300;fill-rule:evenodd;stroke:none;stroke-width:1.50681"
           id="rect19"
           width="5.8208332"
           height="31.75"
           x="35.521084"
           y="-83.674667"
           transform="rotate(90)" />
        <rect
           style="fill:#aa4400;fill-rule:evenodd;stroke:none;stroke-width:1"
           id="rect20"
           width="31.75"
           height="1.7528646"
           x="51.891422"
           y="40.878124" />
      </g>
      <rect
         style="fill:#4d4d4d;fill-rule:evenodd;stroke:none;stroke-width:1"
         id="rect15"
         width="31.684"
         height="5.0932398"
         x="53.459782"
         y="-21.879776"
         transform="rotate(90)" />
      <rect
         style="fill:#4d4d4d;fill-rule:evenodd;stroke:none;stroke-width:1"
         id="rect21"
         width="31.684"
         height="5.0932398"
         x="53.459782"
         y="-41.458965"
         transform="rotate(90)" />
    </g>
    <g
       id="g26"
       transform="translate(31.75)">
      <rect
         style="fill:#44aa00;fill-rule:evenodd;stroke:none;stroke-width:1"
         id="rect26"
         width="31.75"
         height="31.75"
         x="48.683334"
         y="16.933332" />
      <g
         id="g25"
         transform="rotate(-30,62.747741,44.501104)">
        <rect
           style="fill:#803300;fill-rule:evenodd;stroke:none;stroke-width:1.50681"
           id="rect24"
           width="5.8208332"
           height="31.75"
           x="35.521084"
           y="-83.674667"
           transform="rotate(90)" />
        <rect
           style="fill:#aa4400;fill-rule:evenodd;stroke:none;stroke-width:1"
           id="rect25"
           width="31.75"
           height="1.7528646"
           x="51.891422"
           y="40.878124" />
      </g>
      <path
         id="rect23"
         style="fill:#999999;fill-rule:evenodd"
         d="m 48.710522,44.075081 c 0,0 -0.0013,-1.462574 0.0012,-2.126391 1.227042,-0.266715 4.044435,1.219922 5.177586,6.723267 -0.880162,0.02564 0.62547,0.02276 -1.850016,0.0058 -0.06174,-3.211948 -1.303754,-4.565628 -3.328737,-4.602634 z"
         sodipodi:nodetypes="cccccc" />
      <path
         id="rect22"
         style="fill:#4d4d4d;fill-rule:evenodd"
         d="m 48.694197,38.796172 c 3.042214,0.01397 8.598958,1.118593 8.565885,9.938412 0,0 -2.758834,-0.02188 -5.167643,-0.04961 -0.124273,-5.745347 -2.249207,-6.605243 -3.412898,-6.73987 0.06001,-2.201684 0.01466,-3.148932 0.01466,-3.148932 z"
         sodipodi:nodetypes="cccccc" />
      <path
         id="path24"
         style="fill:#999999;fill-rule:evenodd"
         d="m 48.804066,32.475583 c 0,0 -0.0013,-1.462574 0.0012,-2.126391 17.835627,0.150911 24.073785,-0.686712 24.571499,18.335167 -0.764407,-0.0033 -1.200428,-0.0088 -1.829346,-0.0066 C 70.40992,34.006586 66.31067,32.559362 48.804099,32.475583 Z"
         sodipodi:nodetypes="cccccc" />
      <path
         id="path23"
         style="fill:#4d4d4d;fill-rule:evenodd"
         d="m 48.760343,27.154505 c 17.822219,-0.07957 28.163128,0.775479 28.083283,21.522201 0,0 -2.787772,-0.0053 -5.192447,-0.0041 -0.240515,-18.514154 -6.278446,-18.003976 -22.905492,-18.36914 0.06001,-2.201684 0.01466,-3.148932 0.01466,-3.148932 z"
         sodipodi:nodetypes="cccccc" />
    </g>
    <g
       id="g35"
       transform="translate(31.717116,49.967118)">
      <rect
         style="fill:#44aa00;fill-rule:evenodd;stroke:none;stroke-width:1"
         id="rect27"
         width="31.75"
         height="31.75"
         x="16.966217"
         y="30.466215" />
      <rect
         style="fill:#803300;fill-rule:evenodd;stroke:none;stroke-width:1"
         id="rect28"
         width="5.8208332"
         height="21.070946"
         x="21.581982"
         y="39.405403" />
      <rect
         style="fill:#803300;fill-rule:evenodd;stroke:none;stroke-width:1"
         id="rect29"
         width="5.8208332"
         height="21.070946"
         x="37.456997"
         y="39.405403" />
      <g
         id="g31">
        <rect
           style="fill:#4d4d4d;fill-rule:evenodd;stroke:none;stroke-width:1"
           id="rect30"
           width="31.75"
           height="3.175"
           x="16.966217"
           y="40.682434" />
        <rect
           style="fill:#999999;fill-rule:evenodd;stroke:none;stroke-width:1"
           id="rect31"
           width="31.75"
           height="2.1166666"
           x="16.966217"
           y="43.857437" />
      </g>
      <g
         id="g33"
         transform="translate(0,11.641668)">
        <rect
           style="fill:#4d4d4d;fill-rule:evenodd;stroke:none;stroke-width:1"
           id="rect32"
           width="31.75"
           height="3.175"
           x="16.966217"
           y="40.682434" />
        <rect
           style="fill:#999999;fill-rule:evenodd;stroke:none;stroke-width:1"
           id="rect33"
           width="31.75"
           height="2.1166666"
           x="16.966217"
           y="43.857437" />
      </g>
      <rect
         style="fill:#aa4400;fill-rule:evenodd;stroke:none;stroke-width:1"
         id="rect34"
         width="5.8539062"
         height="1.7528646"
         x="21.596615"
         y="60.457291" />
      <rect
         style="fill:#aa4400;fill-rule:evenodd;stroke:none;stroke-width:1"
         id="rect35"
         width="5.8539062"
         height="1.7528646"
         x="37.47163"
         y="60.457291" />
    </g>
    <g
       id="g42"
       transform="translate(3.6097593,-4.7707606)">
      <rect
         style="fill:#44aa00;fill-rule:evenodd;stroke:none;stroke-width:1"
         id="rect36"
         width="31.75"
         height="31.75"
         x="13.323574"
         y="53.454094" />
      <g
         id="g38"
         transform="translate(-38.567657,22.98788)">
        <rect
           style="fill:#803300;fill-rule:evenodd;stroke:none;stroke-width:1.50681"
           id="rect37"
           width="5.8208332"
           height="31.75"
           x="35.521084"
           y="-83.674667"
           transform="rotate(90)" />
        <rect
           style="fill:#aa4400;fill-rule:evenodd;stroke:none;stroke-width:1"
           id="rect38"
           width="31.75"
           height="1.7528646"
           x="51.891422"
           y="40.878124" />
      </g>
      <g
         id="g40"
         transform="translate(-38.567657,38.862884)">
        <rect
           style="fill:#803300;fill-rule:evenodd;stroke:none;stroke-width:1.50681"
           id="rect39"
           width="5.8208332"
           height="31.75"
           x="35.521084"
           y="-83.674667"
           transform="rotate(90)" />
        <rect
           style="fill:#aa4400;fill-rule:evenodd;stroke:none;stroke-width:1"
           id="rect40"
           width="31.75"
           height="1.7528646"
           x="51.891422"
           y="40.878124" />
      </g>
      <rect
         style="fill:#4d4d4d;fill-rule:evenodd;stroke:none;stroke-width:1"
         id="rect41"
         width="31.684"
         height="5.0932398"
         x="53.459782"
         y="-21.879776"
         transform="rotate(90)" />
      <rect
         style="fill:#4d4d4d;fill-rule:evenodd;stroke:none;stroke-width:1"
         id="rect42"
         width="31.684"
         height="5.0932398"
         x="53.459782"
         y="-41.458965"
         transform="rotate(90)" />
    </g>
    <g
       id="g48"
       transform="matrix(-1,0,0,1,97.366667,0)">
      <rect
         style="fill:#44aa00;fill-rule:evenodd;stroke:none;stroke-width:1"
         id="rect43"
         width="31.75"
         height="31.75"
         x="48.683334"
         y="16.933332" />
      <g
         id="g45"
         transform="rotate(-30,62.747741,44.501104)">
        <rect
           style="fill:#803300;fill-rule:evenodd;stroke:none;stroke-width:1.50681"
           id="rect44"
           width="5.8208332"
           height="31.75"
           x="35.521084"
           y="-83.674667"
           transform="rotate(90)" />
        <rect
           style="fill:#aa4400;fill-rule:evenodd;stroke:none;stroke-width:1"
           id="rect45"
           width="31.75"
           height="1.7528646"
           x="51.891422"
           y="40.878124" />
      </g>
      <path
         id="path45"
         style="fill:#999999;fill-rule:evenodd"
         d="m 48.710522,44.075081 c 0,0 -0.0013,-1.462574 0.0012,-2.126391 1.227042,-0.266715 4.044435,1.219922 5.177586,6.723267 -0.880162,0.02564 0.62547,0.02276 -1.850016,0.0058 -0.06174,-3.211948 -1.303754,-4.565628 -3.328737,-4.602634 z"
         sodipodi:nodetypes="cccccc" />
      <path
         id="path46"
         style="fill:#4d4d4d;fill-rule:evenodd"
         d="m 48.694197,38.796172 c 3.042214,0.01397 8.598958,1.118593 8.565885,9.938412 0,0 -2.758834,-0.02188 -5.167643,-0.04961 -0.124273,-5.745347 -2.249207,-6.605243 -3.412898,-6.73987 0.06001,-2.201684 0.01466,-3.148932 0.01466,-3.148932 z"
         sodipodi:nodetypes="cccccc" />
      <path
         id="path47"
         style="fill:#999999;fill-rule:evenodd"
         d="m 48.804066,32.475583 c 0,0 -0.0013,-1.462574 0.0012,-2.126391 17.835627,0.150911 24.073785,-0.686712 24.571499,18.335167 -0.764407,-0.0033 -1.200428,-0.0088 -1.829346,-0.0066 C 70.40992,34.006586 66.31067,32.559362 48.804099,32.475583 Z"
         sodipodi:nodetypes="cccccc" />
      <path
         id="path48"
         style="fill:#4d4d4d;fill-rule:evenodd"
         d="m 48.760343,27.154505 c 17.822219,-0.07957 28.163128,0.775479 28.083283,21.522201 0,0 -2.787772,-0.0053 -5.192447,-0.0041 -0.240515,-18.514154 -6.278446,-18.003976 -22.905492,-18.36914 0.06001,-2.201684 0.01466,-3.148932 0.01466,-3.148932 z"
         sodipodi:nodetypes="cccccc" />
    </g>
    <g
       id="g53">
      <rect
         style="fill:#44aa00;fill-rule:evenodd;stroke:none;stroke-width:1"
         id="rect48"
         width="31.75"
         height="31.75"
         x="80.433334"
         y="80.433334" />
      <g
         id="g50"
         transform="rotate(32.626063,-12.753463,115.25269)">
        <rect
           style="fill:#803300;fill-rule:evenodd;stroke:none;stroke-width:1.50681"
           id="rect49"
           width="5.8208332"
           height="31.75"
           x="35.521084"
           y="-83.674667"
           transform="rotate(90)" />
        <rect
           style="fill:#aa4400;fill-rule:evenodd;stroke:none;stroke-width:1"
           id="rect50"
           width="31.75"
           height="1.7528646"
           x="51.891422"
           y="40.878124" />
      </g>
      <path
         id="path50"
         style="fill:#999999;fill-rule:evenodd"
         d="m 80.442982,95.963889 c 0,0 -0.0013,-1.46257 0.0012,-2.12639 1.227042,-0.26671 4.819215,-8.767482 7.270011,-13.403768 1.103928,0.0093 -0.463301,0.627131 1.195328,0.742623 0.07055,12.266174 -0.8522,13.415945 -8.466506,14.787775 z"
         sodipodi:nodetypes="cccccc" />
      <path
         id="path51"
         style="fill:#4d4d4d;fill-rule:evenodd"
         d="m 80.460247,90.641876 c 3.042214,0.014 3.439583,-4.92961 3.439583,-10.265014 0,0 2.888366,0.007 5.080827,1e-5 -0.05813,3.415863 1.392948,12.920189 -8.535066,13.413944 0.06001,-2.20168 0.01466,-3.14893 0.01466,-3.14893 z"
         sodipodi:nodetypes="cccccc" />
      <path
         id="path52"
         style="fill:#999999;fill-rule:evenodd"
         d="m 80.492287,105.38609 c 0,0 -0.0013,1.46257 0.0012,2.12639 17.835629,-0.15091 27.909113,-2.30671 28.032643,-24.50909 -0.7644,0.003 -1.20042,0.009 -1.82934,0.007 -7.030793,17.57105 -9.072071,18.17637 -26.20447,22.3761 z"
         sodipodi:nodetypes="cccccc" />
      <path
         id="path53"
         style="fill:#4d4d4d;fill-rule:evenodd"
         d="m 80.500607,105.4654 c 17.822217,0.0796 28.186513,-4.28339 28.106673,-25.030107 0,0 -2.78778,0.005 -5.19245,0.004 -0.24052,18.514154 -6.301836,21.511887 -22.928879,21.877047 0.06001,2.20169 0.01466,3.14893 0.01466,3.14893 z"
         sodipodi:nodetypes="cccccc" />
    </g>
    <g
       id="g58"
       transform="matrix(-1,0,0,1,129.11667,0.05647133)">
      <rect
         style="fill:#44aa00;fill-rule:evenodd;stroke:none;stroke-width:1"
         id="rect53"
         width="31.75"
         height="31.75"
         x="80.433334"
         y="80.433334" />
      <g
         id="g55"
         transform="rotate(32.626063,-12.753463,115.25269)">
        <rect
           style="fill:#803300;fill-rule:evenodd;stroke:none;stroke-width:1.50681"
           id="rect54"
           width="5.8208332"
           height="31.75"
           x="35.521084"
           y="-83.674667"
           transform="rotate(90)" />
        <rect
           style="fill:#aa4400;fill-rule:evenodd;stroke:none;stroke-width:1"
           id="rect55"
           width="31.75"
           height="1.7528646"
           x="51.891422"
           y="40.878124" />
      </g>
      <path
         id="path55"
         style="fill:#999999;fill-rule:evenodd"
         d="m 80.442982,95.963889 c 0,0 -0.0013,-1.46257 0.0012,-2.12639 1.227042,-0.26671 4.819215,-8.767482 7.270011,-13.403768 1.103928,0.0093 -0.463301,0.627131 1.195328,0.742623 0.07055,12.266174 -0.8522,13.415945 -8.466506,14.787775 z"
         sodipodi:nodetypes="cccccc" />
      <path
         id="path56"
         style="fill:#4d4d4d;fill-rule:evenodd"
         d="m 80.460247,90.641876 c 3.042214,0.014 3.439583,-4.92961 3.439583,-10.265014 0,0 2.888366,0.007 5.080827,1e-5 -0.05813,3.415863 1.392948,12.920189 -8.535066,13.413944 0.06001,-2.20168 0.01466,-3.14893 0.01466,-3.14893 z"
         sodipodi:nodetypes="cccccc" />
      <path
         id="path57"
         style="fill:#999999;fill-rule:evenodd"
         d="m 80.492287,105.38609 c 0,0 -0.0013,1.46257 0.0012,2.12639 17.835629,-0.15091 27.909113,-2.30671 28.032643,-24.50909 -0.7644,0.003 -1.20042,0.009 -1.82934,0.007 -7.030793,17.57105 -9.072071,18.17637 -26.20447,22.3761 z"
         sodipodi:nodetypes="cccccc" />
      <path
         id="path58"
         style="fill:#4d4d4d;fill-rule:evenodd"
         d="m 80.500607,105.4654 c 17.822217,0.0796 28.186513,-4.28339 28.106673,-25.030107 0,0 -2.78778,0.005 -5.19245,0.004 -0.24052,18.514154 -6.301836,21.511887 -22.928879,21.877047 0.06001,2.20169 0.01466,3.14893 0.01466,3.14893 z"
         sodipodi:nodetypes="cccccc" />
    </g>
  </g>
</svg>
