<?xml version="1.0" encoding="UTF-8" standalone="no"?>
<!-- Created with Inkscape (http://www.inkscape.org/) -->

<svg
   width="119.70726mm"
   height="113.81768mm"
   viewBox="0 0 119.70726 113.81768"
   version="1.1"
   id="svg1"
   xml:space="preserve"
   xmlns:inkscape="http://www.inkscape.org/namespaces/inkscape"
   xmlns:sodipodi="http://sodipodi.sourceforge.net/DTD/sodipodi-0.dtd"
   xmlns="http://www.w3.org/2000/svg"
   xmlns:svg="http://www.w3.org/2000/svg"><sodipodi:namedview
     id="namedview1"
     pagecolor="#ffffff"
     bordercolor="#000000"
     borderopacity="0.25"
     inkscape:showpageshadow="2"
     inkscape:pageopacity="0.0"
     inkscape:pagecheckerboard="0"
     inkscape:deskcolor="#d1d1d1"
     inkscape:document-units="mm"
     inkscape:zoom="0.72515432"
     inkscape:cx="515.75229"
     inkscape:cy="341.99617"
     inkscape:window-width="1920"
     inkscape:window-height="1009"
     inkscape:window-x="-8"
     inkscape:window-y="-8"
     inkscape:window-maximized="1"
     inkscape:current-layer="layer1"><inkscape:page
       x="0"
       y="0"
       width="119.70726"
       height="113.81768"
       id="page2"
       margin="0"
       bleed="0" /></sodipodi:namedview><defs
     id="defs1" /><g
     inkscape:label="Réteg 1"
     inkscape:groupmode="layer"
     id="layer1"
     transform="translate(-346.92172,-68.191423)"><g
       id="g20"
       transform="translate(305.98613,23.219858)"><path
         style="fill:#b5b5b5"
         d="m 63.864868,158.51907 c -7.213939,-0.67428 -13.851394,-4.64958 -16.17744,-9.68897 l -0.840084,-1.82005 -0.02405,-26.06146 -0.02405,-26.061456 -2.687035,-0.07513 C 42.261843,94.760274 41.333229,94.626097 41.12989,94.381087 40.8881,94.089748 40.867088,66.01902 41.09444,47.025116 c 0.0085,-0.712443 0.149316,-1.456584 0.312863,-1.653646 0.44186,-0.53241 53.729867,-0.533608 54.262254,-0.0012 0.337773,0.337773 0.492592,28.170189 0.177568,31.922092 l -0.09997,1.190625 9.855735,0.06937 c 8.06203,0.05674 9.85573,0.0053 9.85573,-0.282738 0,-0.193657 -0.42069,-1.951278 -0.93486,-3.905825 -1.19824,-4.554938 -1.49125,-8.488759 -0.79676,-10.696734 1.08368,-3.445301 5.53524,-6.551278 9.9337,-6.931015 1.31941,-0.11391 2.09253,-0.128706 4.66953,-0.08936 0.45819,0.007 1.74595,0.310715 2.8617,0.674932 7.04473,2.299629 9.1486,6.941902 7.05218,15.560855 -1.00183,4.118797 -1.0013,4.095016 -0.0975,4.301275 0.40018,0.09132 1.68624,0.45078 2.85792,0.798791 1.8948,0.562791 2.64604,0.632746 6.795,0.632746 h 4.66469 l 0.50164,0.727604 c 0.2759,0.400183 1.30093,2.156354 2.27786,3.902604 0.97692,1.74625 1.89278,3.353594 2.03524,3.571875 0.14245,0.218282 0.44339,0.754063 0.66875,1.190625 0.22536,0.436563 0.69658,1.27 1.04716,1.852084 1.8194,3.020816 1.83063,3.063702 1.4474,5.527211 -0.22407,1.440345 -0.28843,3.121992 -0.17868,4.668163 l 0.17154,2.41678 -1.12317,1.89601 -1.12317,1.89601 -0.21719,4.49791 c -0.11946,2.47386 -0.2066,10.57011 -0.19365,17.99166 0.0129,7.42156 -0.0679,14.20814 -0.17968,15.08126 l -0.20323,1.5875 -2.24264,0.13229 -2.24264,0.13229 -0.18019,1.06138 c -0.68353,4.02633 -4.91256,8.43653 -9.92342,10.34854 -12.13955,4.63212 -27.13243,-0.7096 -29.14225,-10.38292 l -0.21338,-1.027 H 99.852106 86.253658 l -0.43554,1.45521 c -2.261536,7.55615 -11.516389,12.35225 -21.95325,11.37673 z"
         id="path26" /><path
         style="fill:#a8a8a8"
         d="m 63.732576,158.24393 c -7.226873,-0.68239 -13.430261,-4.37546 -15.797042,-9.40448 l -0.860963,-1.8294 0.08697,-26.11599 0.08697,-26.115985 L 46.627,94.634114 c -0.341831,-0.07918 -1.693073,-0.173702 -3.002761,-0.210053 l -2.381249,-0.06609 0.0534,-22.489583 C 41.32576,59.499117 41.444825,48.485836 41.560974,47.39443 l 0.211179,-1.984375 h 26.808778 26.808777 l 0.178722,8.334375 c 0.168856,7.87432 0.165172,19.332392 -0.0075,23.415625 l -0.07833,1.852083 9.99511,0.06933 c 8.76592,0.06081 10.01418,0.0196 10.15029,-0.335105 0.0854,-0.222441 -0.30478,-2.218173 -0.86697,-4.434959 -1.09088,-4.301426 -1.42535,-9.289425 -0.67334,-10.041441 0.24044,-0.240439 0.31262,0.0057 0.31262,1.066096 0,7.2441 11.68838,10.56819 20.57422,5.851161 1.05661,-0.560897 2.08765,-0.955904 2.2912,-0.877794 0.5141,0.197273 0.66135,-0.443713 0.72079,-3.137396 0.0281,-1.273307 0.15004,-2.315104 0.27098,-2.315104 0.18576,0 0.39107,3.509062 0.27863,4.7625 -0.16094,1.794138 -1.66645,7.717108 -2.09012,8.222917 -0.19243,0.229739 -0.34988,0.638031 -0.34988,0.907314 0,0.991843 -1.67502,7.17915 -2.2557,8.332269 -2.75698,5.474799 -9.97117,6.412383 -14.39481,1.870802 -1.44023,-1.478631 -1.83111,-2.345523 -2.87161,-6.368719 l -0.7185,-2.778125 -9.67479,-0.04568 c -5.32114,-0.02512 -9.845511,0.06055 -10.054166,0.190379 -0.387347,0.24102 -0.47541,6.370881 -0.11998,8.351561 0.166909,0.930118 0.07876,0.908495 7.473436,1.833237 1.92472,0.240696 3.88925,0.486477 4.36562,0.546179 0.47637,0.0597 3.00926,0.343583 5.62863,0.630845 5.28278,0.579354 7.53756,0.7879 21.29896,1.969952 2.69213,0.231244 5.4901,0.478018 6.21771,0.548386 0.7276,0.07037 3.04932,0.252053 5.15937,0.403743 4.72947,0.339997 5.47943,0.467693 5.67046,0.965513 0.083,0.216229 0.34449,2.794135 0.58116,5.728681 0.23666,2.93455 0.46931,5.37979 0.51701,5.43387 0.18725,0.21233 6.46103,-5.63476 6.46858,-6.02864 0.0172,-0.895911 0.52284,0.45042 0.55473,1.47693 0.0233,0.7494 -0.25302,1.49572 -1.0594,2.86168 l -1.09087,1.84788 v 3.48829 c 0,1.91856 -0.0723,3.67662 -0.1606,3.9068 -0.41453,1.08023 -0.63315,0.15583 -0.63315,-2.67711 0,-1.90299 -0.0944,-2.99878 -0.24496,-2.84427 -0.30101,0.30888 -3.81415,6.42262 -4.05941,7.06438 -0.16713,0.43734 -1.90154,0.46302 -31.27379,0.46302 H 90.3232 v 6.57288 6.57288 l 13.78985,0.1883 13.78986,0.18829 0.96658,-0.63966 c 2.63366,-1.74287 6.14726,-3.03294 8.89801,-3.26703 2.34267,-0.19936 2.46156,-0.0679 2.56237,2.83294 l 0.0777,2.23577 3.06475,0.1672 c 7.75012,0.42281 14.31938,3.47256 17.56344,8.15374 1.05266,1.51899 1.27379,1.36876 1.05122,-0.71417 -0.26572,-2.48688 -0.94293,-4.28101 -2.27928,-6.0385 -1.68386,-2.21453 -1.66861,-2.19006 -1.48127,-2.37741 0.0952,-0.0952 2.05551,-0.19019 4.35627,-0.21112 l 4.18321,-0.0381 0.13304,-1.45521 c 0.13232,-1.44722 0.13412,-1.44287 0.32915,0.79375 0.23733,2.72194 0.22181,13.10593 -0.0224,14.94896 l -0.17526,1.32292 -1.97255,0.0788 c -2.25143,0.09 -2.65758,0.31536 -2.65787,1.47492 -9.9e-4,3.94881 -5.94546,9.29396 -12.30291,11.06255 -3.10086,0.86263 -10.65283,0.86433 -13.74405,0.003 -6.69217,-1.86448 -11.72149,-6.34586 -12.52926,-11.16419 l -0.1996,-1.19063 -13.58873,-0.0686 c -14.71322,-0.0742 -14.139409,-0.13254 -14.438856,1.46706 -1.349138,7.20688 -11.377777,12.42248 -21.964088,11.42289 z M 85.1507,137.68349 c -0.289021,-2.7524 -1.096678,-4.48936 -3.311254,-7.12124 -1.940232,-2.30583 -8.922589,-5.11574 -12.71214,-5.11574 -0.723409,0 -0.764398,0.0605 -0.762222,1.12448 0.0046,2.2269 0.316284,3.9026 0.725998,3.9026 3.820015,0 10.492987,3.2066 13.823785,6.64282 1.236927,1.27608 2.2882,2.32754 2.336163,2.33658 0.04796,0.009 0.0028,-0.78724 -0.10033,-1.7695 z M 94.920335,65.617603 C 95.011286,65.16285 95.0857,60.682649 95.0857,55.661601 v -9.129179 l -2.447396,0.168785 c -8.402932,0.579509 -15.763672,1.534364 -16.791732,2.17827 -0.322302,0.201868 -0.807563,0.367032 -1.078359,0.367032 -0.270795,0 -0.766351,0.291656 -1.101236,0.648125 -0.469567,0.499831 -0.782809,0.61334 -1.369038,0.496094 -0.826667,-0.165334 -1.166207,0.760016 -0.388394,1.058491 0.236005,0.09056 0.348444,0.463217 0.307908,1.020495 -0.03512,0.48281 0.02702,1.056431 0.138092,1.274712 0.111069,0.218281 0.267116,0.607021 0.34677,0.863867 0.07965,0.256845 0.445533,0.58132 0.813064,0.721055 0.367531,0.139735 0.668238,0.367792 0.668238,0.506794 0,0.139001 0.267891,0.290776 0.595313,0.337278 0.390741,0.05549 0.595312,0.266389 0.595312,0.613714 0,0.368303 0.201079,0.551684 0.661458,0.603238 1.427411,0.159844 1.879577,0.360669 2.096463,0.931121 0.124114,0.326446 0.566388,0.753638 0.982829,0.949315 0.416442,0.195677 0.93576,0.461325 1.154042,0.590329 0.218281,0.129004 0.694531,0.353259 1.058333,0.498346 0.363802,0.145086 0.840052,0.383684 1.058333,0.530218 0.218281,0.146535 0.575469,0.344981 0.79375,0.440993 0.218281,0.09601 0.830727,0.511972 1.360991,0.924357 0.530264,0.412385 1.197107,0.749792 1.481873,0.749792 0.909198,0 2.186449,0.56812 2.470502,1.098878 0.179539,0.335472 0.442459,0.460938 0.756831,0.36116 0.283886,-0.0901 0.539579,-0.0021 0.622604,0.214247 0.07749,0.201927 0.517811,0.442524 0.978498,0.534662 0.460688,0.09214 1.215061,0.339103 1.676386,0.548813 0.716643,0.325773 1.297493,0.509149 2.062471,0.651131 0.09095,0.01688 0.239779,-0.341378 0.330729,-0.796131 z m 47.927445,13.799163 c -0.27649,-0.447381 0.93633,-0.558011 5.26512,-0.480269 3.07875,0.05529 4.24115,0.164597 4.32153,0.406366 0.13719,0.41268 -9.33216,0.485678 -9.58665,0.0739 z"
         id="path25" /><path
         style="fill:#929292"
         d="M 63.997159,158.23313 C 56.315696,157.547 50.081128,153.70377 47.722304,148.20068 l -0.623755,-1.45521 -0.01736,-26.06146 -0.01736,-26.061459 -2.687036,-0.07513 c -1.844607,-0.05157 -2.779232,-0.186217 -2.98111,-0.429465 -0.213831,-0.257651 -0.23021,-3.666471 -0.06002,-12.492582 0.128728,-6.676033 0.151375,-16.484024 0.05033,-21.795534 -0.101049,-5.311511 -0.132056,-9.80612 -0.0689,-9.988021 0.46916,-1.35137 0.587372,1.074124 0.587372,12.051771 0,13.558501 -0.06746,13.017499 1.623192,13.017499 0.543506,0 1.322683,0.127173 1.731505,0.282607 0.408821,0.155434 1.458369,0.386509 2.332328,0.513501 5.118333,0.743728 7.021183,1.046206 8.203599,1.304047 1.810811,0.394871 6.975585,1.071483 16.404166,2.149029 2.619375,0.299355 5.536406,0.655525 6.482292,0.791488 0.945885,0.135962 3.803385,0.423313 6.349999,0.638556 4.615104,0.390074 9.443157,1.029902 9.698532,1.285277 0.367136,0.367136 1.192261,11.336974 0.933918,12.416224 -0.09398,0.392599 -0.458254,0.469151 -2.39508,0.503321 -1.256334,0.02217 -2.462839,0.05193 -2.68112,0.06615 -0.445668,0.02902 -0.645051,0.91114 -0.318957,1.411143 0.145619,0.223278 1.761247,0.409327 5.094745,0.586689 2.684827,0.142849 9.167746,0.500788 14.406496,0.79542 11.06669,0.622402 16.99315,0.919045 31.28536,1.565957 5.71079,0.25849 10.44713,0.533842 10.52518,0.611895 0.24592,0.245917 0.59834,2.887887 0.76972,5.770367 0.27335,4.59727 0.44553,6.09749 0.68297,5.95074 0.12419,-0.0768 1.66462,-2.2845 3.42317,-4.90609 2.1822,-3.25316 3.248,-4.63459 3.35684,-4.35095 0.0877,0.22857 -0.0202,0.61952 -0.23988,0.86876 -1.41566,1.6064 -1.90971,3.26676 -2.06371,6.93546 l -0.14993,3.57187 -0.0525,-2.91042 c -0.0289,-1.60073 -0.14406,-3.05439 -0.2559,-3.23036 -0.19446,-0.30598 -4.28648,6.61805 -4.28648,7.25307 0,0.99107 0.20562,0.98523 -31.76867,0.90271 l -30.919952,-0.0798 -0.07496,6.83761 c -0.04122,3.76068 -0.06113,6.87128 -0.04423,6.91243 0.0169,0.0412 6.341471,0.1496 14.054612,0.24099 13.81268,0.16366 14.03535,0.15806 14.78594,-0.37204 1.5071,-1.06439 4.13824,-2.22582 5.37402,-2.37218 l 1.25986,-0.14921 0.17064,1.4211 c 0.0939,0.7816 0.17168,1.88146 0.17295,2.44413 0.002,0.97997 0.0329,1.01597 0.7299,0.85523 1.91874,-0.4425 8.43733,-0.47835 10.83336,-0.0596 6.414,1.12104 12.07456,4.64269 14.20706,8.83876 0.80428,1.58255 1.09358,0.91557 0.81615,-1.88164 -0.25169,-2.53776 -0.97388,-4.36889 -2.53815,-6.43558 -0.71473,-0.9443 -1.23124,-1.82738 -1.14778,-1.96241 0.0834,-0.13504 2.03582,-0.24552 4.33859,-0.24552 4.11827,0 4.18948,0.01 4.3464,0.59531 0.20743,0.77401 0.15991,11.2347 -0.0604,13.29532 l -0.16972,1.5875 -2.24668,0.13229 -2.24669,0.13229 -0.17091,1.19063 c -0.28753,2.0031 -1.5243,4.21563 -3.41573,6.1106 -10.1187,10.1377 -32.16573,6.37654 -35.04352,-5.97831 l -0.30814,-1.32292 H 99.845488 85.992154 l -0.324566,1.2723 c -1.928965,7.56153 -11.160901,12.47702 -21.670429,11.53828 z m 21.495155,-19.89018 c -0.478263,-8.01637 -8.539794,-13.53542 -19.134507,-13.09979 -4.301079,0.17685 -4.116232,0.0475 -4.024127,2.81512 l 0.07598,2.28302 3.175,0.19465 c 9.021155,0.55307 15.342522,3.44054 18.694846,8.53942 1.421996,2.16286 1.386812,2.1841 1.212809,-0.73242 z m -5.809012,-25.398 0.07573,-2.57969 H 68.504657 57.250285 v 2.50828 2.50828 l 5.622395,0.0795 c 3.092318,0.0437 8.122708,0.0759 11.178646,0.0714 l 5.556249,-0.008 z M 123.64623,91.196066 c -2.62739,-0.967949 -4.77898,-2.750607 -5.68094,-4.706826 -0.46628,-1.011306 -1.9877,-6.579972 -2.12091,-7.762893 -0.0505,-0.448225 -0.50301,-2.472288 -1.00564,-4.497917 -1.09348,-4.406808 -1.32967,-5.944201 -1.0846,-7.05998 l 0.18393,-0.837443 0.7363,1.456125 c 2.45422,4.853519 8.87674,6.871794 16.70514,5.24959 2.95126,-0.61156 2.96575,-0.606909 3.41991,1.097494 0.41935,1.573742 -0.97691,11.709993 -1.84833,13.418111 -1.59097,3.118561 -6.02126,4.853441 -9.30486,3.643739 z M 95.11936,72.72828 c 0.01851,-1.200547 0.109278,-3.4925 0.201699,-5.093229 l 0.168038,-2.910417 0.150362,4.630208 c 0.152194,4.686634 0.102105,5.55625 -0.320035,5.55625 -0.128548,0 -0.218577,-0.982265 -0.200064,-2.182812 z M 41.748466,45.845264 c 0.147213,-0.238195 49.45971,-0.583251 52.080463,-0.364424 5.218803,0.435758 -1.429441,0.590669 -25.349468,0.590669 -14.810916,0 -26.808066,-0.101541 -26.730995,-0.226245 z"
         id="path24" /><path
         style="fill:#707070"
         d="m 60.777607,157.56539 c -4.635667,-1.12083 -7.278675,-2.50515 -10.010418,-5.24315 -3.863006,-3.87185 -4.317845,-6.99337 -3.222131,-22.11323 0.04549,-0.6277 0.14922,-0.66916 2.03231,-0.81223 l 1.984375,-0.15077 -2.050521,-0.0477 -2.05052,-0.0477 v -16.9117 c 0,-9.30143 -0.07227,-17.100023 -0.160599,-17.330206 -0.110502,-0.287963 -0.50254,-0.419102 -1.256771,-0.420396 -0.602895,-0.001 -1.899844,-0.07778 -2.882109,-0.170552 l -1.785938,-0.16867 0.02318,-3.070595 c 0.01991,-2.63756 0.366729,-6.537912 0.470636,-5.292817 0.03895,0.466767 0.881949,0.529191 13.925976,1.031213 3.638021,0.140015 8.281458,0.322857 10.31875,0.406315 2.037291,0.08346 9.287898,0.315542 16.112459,0.515743 9.522743,0.279353 12.457286,0.443275 12.618972,0.704887 0.291465,0.471601 0.565379,3.284487 0.45996,4.72344 l -0.08723,1.190625 -2.736584,0.07567 -2.736585,0.07567 0.09075,3.805297 c 0.04991,2.092906 0.15397,3.868326 0.231237,3.945366 0.185251,0.1847 13.498764,0.56423 39.898914,1.1374 20.81385,0.45189 21.52761,0.48409 21.79473,0.98321 0.38102,0.71194 0.78151,10.17491 0.45634,10.7825 -0.24219,0.45254 -1.64238,0.46631 -31.33814,0.30821 l -31.084621,-0.16549 v 6.50392 c 0,3.57715 -0.07227,6.69225 -0.160599,6.92243 -0.137235,0.35763 -0.77974,0.41852 -4.416381,0.41852 h -4.255781 l -1.801517,-1.07027 c -5.164646,-3.06826 -12.055807,-4.08977 -17.877434,-2.65006 -3.608956,0.89251 -3.828903,1.12775 -3.661242,3.91587 0.164981,2.74358 -0.183752,2.50459 2.947297,2.01981 10.386026,-1.60807 20.51161,2.07389 23.941091,8.70568 1.246669,2.41075 1.402796,2.26197 1.256739,-1.1976 -0.144042,-3.41186 -0.665951,-4.90103 -2.547313,-7.26826 -0.603777,-0.7597 -1.097776,-1.50277 -1.097776,-1.65126 0,-0.18258 5.760277,-0.21552 17.793228,-0.10174 l 17.793229,0.16825 1.5875,-0.81392 c 2.88396,-1.47861 2.77813,-1.52618 2.77813,1.24858 0,2.73116 -0.0312,2.70362 2.27305,2.00568 10.98324,-3.3267 23.18283,0.39112 27.15211,8.27461 1.08592,2.15676 1.4027,1.70836 1.1807,-1.67127 -0.19393,-2.95221 -0.85107,-4.83357 -2.44425,-6.99775 -1.63642,-2.22292 -1.74214,-2.14667 2.86078,-2.06335 l 4.0349,0.073 0.0819,5.29166 c 0.0451,2.91042 0.005,6.27394 -0.0899,7.47448 l -0.17181,2.18282 h -1.94172 c -2.22126,0 -2.77315,0.33281 -2.77348,1.67254 -6.1e-4,2.45919 -3.42822,6.78845 -6.91048,8.72832 -8.25668,4.59956 -20.54192,3.61882 -27.11196,-2.16436 -2.24654,-1.97748 -4.07735,-5.01833 -4.07735,-6.77219 0,-1.48726 0.40558,-1.45136 -14.491513,-1.28277 -7.527639,0.0852 -13.7192,0.18123 -13.759024,0.21342 -0.03982,0.0322 -0.29429,0.85871 -0.565479,1.8367 -2.177806,7.85384 -14.056828,12.84322 -24.542081,10.30805 z m 19.094552,-44.5543 v -2.77812 l -11.443229,-0.069 -11.443229,-0.069 v 2.75889 c 0,1.95876 0.09592,2.79802 0.330729,2.89382 0.181901,0.0742 5.331354,0.11391 11.443229,0.0882 l 11.1125,-0.0467 z M 123.62635,90.90122 c -2.77276,-0.853759 -5.19623,-3.219457 -5.89564,-5.755101 -2.18692,-7.928482 -3.85959,-15.001366 -3.85959,-16.32026 0,-1.500348 0.30828,-1.701367 0.79759,-0.520075 1.48446,3.583813 6.84436,5.770079 13.37785,5.456738 l 3.53821,-0.16969 0.44472,1.519026 c 0.46941,1.60335 0.38023,3.758758 -0.46244,11.176318 -0.29661,2.610984 -0.36766,2.82767 -1.18083,3.601641 -1.43328,1.36419 -4.24692,1.785164 -6.75987,1.011403 z"
         id="path23" /><path
         style="fill:#525252"
         d="m 64.129451,157.96019 c -8.902386,-0.82827 -15.818761,-6.01264 -16.726239,-12.53764 -0.161193,-1.15902 -0.173879,-4.37682 -0.0339,-8.59896 l 0.223682,-6.74687 1.5875,-0.0681 c 2.11522,-0.0907 2.778125,-0.26254 2.778125,-0.71998 0,-0.29478 -0.494556,-0.39855 -2.182812,-0.45798 l -2.182813,-0.0768 -0.132291,-17.19792 -0.132292,-17.197913 -2.38125,-0.06609 c -3.84943,-0.106843 -3.956665,-0.216996 -3.412956,-3.505782 l 0.153096,-0.926041 4.408055,0.18555 c 2.42443,0.102052 14.335336,0.305896 26.468679,0.452986 12.133344,0.14709 22.124809,0.331621 22.203257,0.410069 0.07845,0.07845 0.196925,0.797338 0.263284,1.597534 l 0.120651,1.454902 H 92.71982 c -3.82184,0 -3.757883,-0.167856 -3.285772,8.623565 l 0.16918,3.15039 3.763758,-0.0902 c 5.376166,-0.12883 58.123044,0.44706 58.313304,0.63667 0.0872,0.0869 0.15853,2.1426 0.15853,4.56825 v 4.41027 l -31.04851,-0.10565 c -26.400146,-0.0898 -31.083606,-0.0502 -31.282925,0.26459 -0.128928,0.20362 -0.236238,3.31702 -0.238466,6.91866 l -0.0041,6.54844 h -4.120931 -4.12093 l -1.7803,-1.05766 c -6.645633,-3.94809 -16.239136,-4.48974 -22.343213,-1.2615 l -1.633583,0.86395 -0.07624,2.62251 c -0.09388,3.22915 -0.195268,3.1445 2.854369,2.38321 12.400583,-3.09561 23.921888,0.91403 26.870112,9.35133 0.951398,2.72273 1.17572,2.43443 1.17572,-1.51105 0,-4.14735 -0.465616,-5.86047 -2.286947,-8.41423 l -1.179373,-1.65364 17.674307,-0.002 c 15.16129,-0.001 17.78206,-0.0578 18.43215,-0.39688 1.40487,-0.73268 1.49112,-0.61782 1.49112,1.98601 0,2.78007 -0.16093,2.6927 2.90129,1.57513 9.23156,-3.36911 19.70621,-1.77714 25.33749,3.85086 1.88485,1.88375 3.50497,4.56568 3.51506,5.8188 0.006,0.69562 0.43976,1.36477 0.70937,1.09332 0.11705,-0.11785 0.21163,-1.8408 0.21017,-3.82879 -0.003,-4.19725 -0.44861,-5.80492 -2.2788,-8.22302 -1.41399,-1.8682 -1.27616,-1.95093 2.87422,-1.72532 l 3.4383,0.18691 0.11217,5.32241 c 0.0617,2.92732 0.0477,6.15584 -0.0312,7.17449 l -0.14332,1.85208 -2.22908,0.1323 -2.22907,0.13229 -0.30271,1.45521 c -2.16832,10.42372 -19.6497,15.23704 -30.95789,8.52393 -3.76237,-2.23353 -6.0094,-5.0658 -6.86756,-8.65623 l -0.3162,-1.32291 H 99.862842 85.76228 l -0.696102,2.12746 c -2.317932,7.08416 -11.146773,11.58562 -20.936727,10.67476 z m 16.130274,-42.28587 c 0.392345,-0.7331 0.348977,-4.84281 -0.05684,-5.38613 -0.445722,-0.59676 -23.142784,-0.72961 -23.518178,-0.13766 -0.420302,0.66276 -0.270107,5.16208 0.187598,5.61979 0.712244,0.71224 23.003828,0.62074 23.387417,-0.096 z M 123.62449,90.636096 c -3.24964,-1.000517 -5.08748,-3.182479 -6.14483,-7.295419 -0.38756,-1.507574 -1.29692,-5.00323 -2.02079,-7.768126 -0.72386,-2.764896 -1.31146,-5.562865 -1.30577,-6.217709 l 0.0104,-1.190625 0.43695,0.661459 c 2.30518,3.489621 6.64675,5.377186 12.26431,5.332094 l 3.07172,-0.02466 0.44469,1.64576 c 0.5696,2.108077 -0.0583,13.430074 -0.78968,14.238201 -0.88511,0.978031 -3.814,1.28188 -5.96695,0.619021 z"
         id="path22" /><path
         style="fill:#4b4b4b"
         d="m 64.129451,157.70939 c -8.546567,-0.82013 -15.318425,-5.64696 -16.40874,-11.6958 -0.36181,-2.00725 -0.424813,-6.8514 -0.151355,-11.63739 l 0.238102,-4.16719 1.480267,-0.0264 c 2.065362,-0.0368 2.787084,-0.2809 2.887733,-0.97667 0.08159,-0.564 0.0052,-0.58446 -2.182813,-0.58446 h -2.26736 V 111.4519 c 0,-15.412363 -0.04283,-17.186046 -0.418515,-17.330209 -0.230183,-0.08833 -1.599401,-0.160599 -3.042708,-0.160599 h -2.624193 v -1.316368 c 0,-1.253198 0.02857,-1.305927 0.595312,-1.098801 0.327422,0.119662 2.8575,0.236951 5.622396,0.260642 13.554869,0.116145 28.193849,0.693533 28.458949,1.122474 0.08937,0.144604 0.687823,0.277774 1.329895,0.295933 0.642073,0.01816 1.305258,0.137155 1.473746,0.264434 0.168488,0.12728 0.763801,0.21949 1.322917,0.204912 0.559116,-0.01458 1.552356,0.03778 2.207199,0.116355 0.654844,0.07857 2.321719,0.198154 3.704167,0.265736 1.382448,0.06758 2.543307,0.128813 2.579687,0.136071 0.03638,0.0073 0.06615,7.75226 0.06615,17.21111 v 17.19792 h -3.856441 -3.856441 l -1.863192,-1.08816 c -6.662454,-3.89109 -15.90395,-4.45536 -22.738126,-1.38836 -2.338944,1.04965 -2.610798,1.51561 -2.610798,4.47494 0,3.64139 0.07417,3.71816 2.645833,2.73879 6.867557,-2.6154 15.681071,-2.0405 21.278174,1.38796 1.982598,1.21443 3.35183,2.35359 3.174264,2.6409 -0.08598,0.13912 -0.0078,0.43196 0.173824,0.65075 0.238356,0.2872 0.382745,0.31271 0.51931,0.0917 0.205675,-0.33278 1.391966,1.24588 2.298794,3.05915 0.651781,1.30328 1.243524,4.3638 1.005704,5.20155 -0.397986,1.40195 -1.275073,3.39741 -1.493301,3.39741 -0.128619,0 -0.233854,0.18233 -0.233854,0.40517 0,0.22285 -0.178593,0.47372 -0.396875,0.55748 -0.218281,0.0838 -0.396875,0.28187 -0.396875,0.44024 0,0.39793 -1.350042,1.77211 -1.740985,1.77211 -0.175486,0 -0.383691,0.1684 -0.462677,0.37424 -0.07899,0.20583 -0.835865,0.77964 -1.681953,1.27512 -4.1306,2.41895 -9.612163,3.57886 -14.635217,3.09685 z m 16.50815,-41.67723 c 0.208871,-0.54431 0.208871,-5.49783 0,-6.04214 -0.142944,-0.3725 -1.391285,-0.41851 -11.355443,-0.41851 -6.157164,0 -11.383176,-0.0723 -11.613359,-0.1606 -0.367789,-0.14113 -0.418514,-1.05508 -0.418514,-7.54063 0,-6.930871 -0.10731,-8.003762 -0.705062,-7.049292 -0.405043,0.646759 -0.300168,20.851242 0.110363,21.261772 0.59108,0.59108 23.754534,0.54221 23.982015,-0.0506 z m 5.360362,28.52644 c 0.471363,-0.30044 0.714821,-5.18681 0.365614,-7.33813 -0.344897,-2.12478 -1.227629,-4.22046 -2.402607,-5.70399 l -0.814448,-1.02832 17.545108,-0.0825 c 9.64981,-0.0454 17.813,-0.18162 18.14042,-0.30273 0.59463,-0.21994 0.59532,-0.21684 0.59532,2.6903 v 2.91048 l -0.99219,0.89845 c -1.82081,1.64876 -3.76584,4.67967 -3.77179,5.87749 -8.1e-4,0.1634 -0.12547,0.74358 -0.27702,1.28928 l -0.27554,0.99219 -14.208921,-0.004 c -7.814905,-0.002 -14.07168,-0.0915 -13.903946,-0.19844 z m 67.243887,-4.22928 c -0.12354,-4.83455 -0.42192,-6.00645 -2.13889,-8.40052 l -0.75902,-1.05833 2.96536,-0.0751 c 1.63094,-0.0413 2.99416,-0.0413 3.02937,0 0.0352,0.0413 0.12163,3.20053 0.19203,7.02045 l 0.12801,6.94531 h -1.65181 -1.65181 z m -50.45807,-25.46614 -12.542538,-0.1323 0.05968,-3.83311 c 0.03282,-2.10821 0.100256,-3.87368 0.149849,-3.92328 0.123251,-0.12325 23.170179,-0.0416 26.463049,0.0937 1.45521,0.0598 9.80251,0.12223 18.54956,0.1387 l 15.90373,0.0299 0.16812,2.15951 c 0.0925,1.18773 0.16884,2.96829 0.16971,3.95682 l 0.002,1.79731 -18.1901,-0.0775 c -10.00456,-0.0426 -23.83425,-0.13705 -30.73265,-0.20981 z m 20.84071,-24.491667 c -3.35276,-1.032265 -4.88523,-2.992288 -6.23571,-7.975441 -2.02749,-7.4813 -3.23956,-12.420689 -3.23263,-13.173521 l 0.007,-0.79375 0.43661,0.661458 c 2.18242,3.306399 6.88036,5.406065 11.98745,5.35759 l 2.52994,-0.02401 0.45593,1.711015 c 0.45597,1.711227 0.24465,10.242791 -0.32359,13.06374 -0.30049,1.491725 -2.85789,2.024964 -5.6253,1.172921 z"
         id="path21" /><path
         style="fill:#383838"
         d="m 47.6056,138.14651 c 0.193136,-3.81223 0.323092,-4.25372 1.883572,-6.39888 0.58998,-0.81104 1.224044,-1.3459 1.834258,-1.54729 0.571411,-0.18858 1.026167,-0.55391 1.174215,-0.94331 0.606973,-1.59646 1.048473,-0.72754 1.048473,2.06351 v 2.69902 l -2.22993,2.13178 c -1.653256,1.58048 -2.444781,2.57596 -3.060738,3.84941 l -0.830808,1.71763 z m 66.32803,0.72574 c 0.20493,-4.01544 2.43543,-8.27331 4.4354,-8.46692 l 0.66146,-0.064 -0.0514,2.46573 -0.0514,2.46573 -1.69748,1.79941 c -0.93361,0.98967 -1.9735,2.41018 -2.31087,3.15667 -0.91821,2.03168 -1.14288,1.72249 -0.98573,-1.35659 z m 5.03858,-52.517928 c -0.30393,-0.545704 -0.92066,-2.361407 -1.37052,-4.034896 -0.44986,-1.67349 -1.35045,-5.00724 -2.00131,-7.408334 -1.5658,-5.776397 -1.56033,-5.979375 0.11273,-4.185642 1.11221,1.192421 1.31442,1.569251 1.32323,2.465851 0.0102,1.036759 0.37216,3.046531 1.1675,6.482291 0.21896,0.945886 0.6395,2.791355 0.93453,4.101042 0.29504,1.309688 0.6137,2.649141 0.70815,2.976563 0.27073,0.938507 -0.26635,0.694712 -0.87431,-0.396875 z"
         id="path20" /></g></g></svg>
