<?xml version="1.0" encoding="UTF-8" standalone="no"?>
<!-- Created with Inkscape (http://www.inkscape.org/) -->

<svg
   width="77.503731mm"
   height="125.89833mm"
   viewBox="0 0 77.503731 125.89833"
   version="1.1"
   id="svg1"
   xml:space="preserve"
   xmlns:inkscape="http://www.inkscape.org/namespaces/inkscape"
   xmlns:sodipodi="http://sodipodi.sourceforge.net/DTD/sodipodi-0.dtd"
   xmlns="http://www.w3.org/2000/svg"
   xmlns:svg="http://www.w3.org/2000/svg"><sodipodi:namedview
     id="namedview1"
     pagecolor="#ffffff"
     bordercolor="#000000"
     borderopacity="0.25"
     inkscape:showpageshadow="2"
     inkscape:pageopacity="0.0"
     inkscape:pagecheckerboard="0"
     inkscape:deskcolor="#d1d1d1"
     inkscape:document-units="mm"
     inkscape:zoom="0.72515432"
     inkscape:cx="515.75229"
     inkscape:cy="341.99617"
     inkscape:window-width="1920"
     inkscape:window-height="1009"
     inkscape:window-x="-8"
     inkscape:window-y="-8"
     inkscape:window-maximized="1"
     inkscape:current-layer="layer1"><inkscape:page
       x="0"
       y="0"
       width="77.503731"
       height="125.89833"
       id="page2"
       margin="0"
       bleed="0" /></sodipodi:namedview><defs
     id="defs1" /><g
     inkscape:label="Réteg 1"
     inkscape:groupmode="layer"
     id="layer1"
     transform="translate(-294.34064,-136.07606)"><g
       id="g38"
       transform="translate(201.23877,22.703861)"><path
         style="fill:#b3b3b3"
         d="m 126.96502,239.11721 c -18.44455,-0.0566 -22.57788,-0.13338 -22.81893,-0.42382 -0.21031,-0.25342 -0.31365,-7.32449 -0.3619,-24.76443 l -0.0675,-24.40973 -5.02708,-0.0388 -5.027084,-0.0388 -0.06787,-19.41768 c -0.04839,-13.84295 0.01581,-19.51852 0.223617,-19.76891 0.200619,-0.24173 1.165251,-0.37456 3.094265,-0.42607 l 2.802774,-0.0748 0.234438,-0.92604 c 0.80691,-3.18734 5.38843,-6.75869 11.54732,-9.00126 l 2.00921,-0.73159 0.16829,-2.87264 c 0.22547,-3.84868 1.56861,-6.6673 4.11735,-8.64034 1.61858,-1.253 1.6035,-1.21655 1.7191,-4.15417 0.1625,-4.12944 1.7624,-6.54316 5.5778,-8.41504 8.84604,-4.33996 19.24141,0.39227 19.24141,8.75918 v 2.17637 l 1.44138,1.12573 c 3.41293,2.66553 4.80681,5.34192 4.70867,9.04108 -0.0869,3.27544 -0.0583,3.33963 1.71574,3.85537 5.2153,1.51613 10.55035,5.78531 11.46239,9.17239 l 0.27139,1.00784 h 3.00011 c 2.47354,0 3.06385,0.0771 3.36324,0.43936 0.48168,0.58282 0.37609,38.35744 -0.10885,38.94176 -0.23874,0.28766 -1.3309,0.34168 -5.40374,0.2673 l -5.10453,-0.0932 -0.0249,6.74687 c -0.0928,25.15267 -0.38472,42.00289 -0.73508,42.42501 -0.31598,0.38069 -0.95153,0.4291 -4.89479,0.37285 -2.49242,-0.0356 -14.66772,-0.0958 -27.05623,-0.13377 z m 33.68116,-2.35923 c -0.34362,-0.34361 -0.20499,-38.84751 0.14111,-39.19361 0.22065,-0.22065 1.6169,-0.3175 4.57729,-0.3175 2.96039,0 4.35664,0.0968 4.57729,0.3175 0.41989,0.41989 0.46215,38.07618 0.0436,38.85823 -0.27782,0.5191 -8.84783,0.82686 -9.3393,0.33538 z m -67.320309,-0.54494 c -0.391934,-0.95529 -0.227704,-38.04826 0.170585,-38.52841 0.490752,-0.59161 8.514924,-0.66101 8.998924,-0.0778 0.21727,0.26179 0.28021,5.61847 0.23083,19.64531 l -0.0679,19.28538 -4.569959,0.0724 c -4.166602,0.066 -4.586954,0.031 -4.7625,-0.39688 z"
         id="path44" /><path
         style="fill:#a6a6a6"
         d="m 126.73541,238.79155 -22.48958,-0.13739 -0.13229,-24.71505 -0.13229,-24.71506 -5.112717,0.0616 -5.112714,0.0616 0.139672,-19.39971 c 0.07682,-10.66984 0.145119,-19.48901 0.151776,-19.59815 0.0067,-0.10914 1.247682,-0.19844 2.757833,-0.19844 3.045617,0 3.059611,-0.007 3.58184,-1.83024 0.78033,-2.7241 5.83733,-6.51059 11.00264,-8.23835 2.5493,-0.85272 2.44201,-0.68936 2.55922,-3.89653 0.13973,-3.82324 0.78414,-5.23912 3.63639,-7.98973 l 2.07225,-1.99842 0.11562,-2.64159 c 0.0956,-2.18437 0.23443,-2.87058 0.80201,-3.96452 0.67745,-1.30569 0.91084,-1.5846 2.43962,-2.91555 0.88138,-0.76733 3.846,-2.24536 4.72514,-2.35574 0.3207,-0.0403 1.10686,-0.21953 1.74704,-0.39835 2.84828,-0.79563 7.97369,0.35708 10.70161,2.4068 0.74215,0.55763 1.41209,1.0147 1.48877,1.01569 0.96772,0.0126 2.33971,4.01598 2.18775,6.38382 -0.11931,1.85908 -0.0855,2.0149 0.61992,2.85319 0.63982,0.76038 0.66195,0.83451 0.15534,0.5203 -0.65267,-0.40479 -1.09146,-0.0517 -1.09975,0.88493 -0.002,0.25167 -0.48437,2.50385 -1.07142,5.00483 -1.16784,4.97533 -1.18972,4.78655 0.60513,5.22124 0.69165,0.16751 1.89413,0.54274 2.67216,0.83384 l 1.4146,0.52927 0.33761,4.03078 c 0.2462,2.93935 0.47615,4.30491 0.84924,5.04314 0.39216,0.77598 0.44087,1.0976 0.20859,1.37747 -0.16666,0.20082 -0.22511,0.49119 -0.12988,0.64527 0.15687,0.25381 0.26824,0.96415 0.51976,3.31491 0.0467,0.43656 0.15891,1.0914 0.24933,1.45521 0.18717,0.75309 1.27203,9.90932 1.26963,10.71562 -8.7e-4,0.29104 0.10863,1.06495 0.24333,1.71979 0.1347,0.65485 0.29827,1.84547 0.36348,2.64584 0.22485,2.75958 0.96837,7.30435 1.22817,7.50719 0.0549,0.0428 1.40944,0.76405 3.01017,1.60269 2.80515,1.46966 6.36694,4.03997 6.66127,4.80699 0.41406,1.07903 0.55444,-0.28859 0.71558,-6.97156 0.0974,-4.03821 0.3037,-11.35801 0.45849,-16.26623 0.24987,-7.92277 0.23374,-9.12506 -0.14381,-10.71563 -0.42943,-1.8091 -1.42295,-4.04054 -1.79902,-4.04054 -0.11218,0 -0.20397,-0.20386 -0.20397,-0.45302 0,-0.68401 1.50244,1.17812 1.85985,2.3051 0.70024,2.20796 0.52877,2.11667 3.97567,2.11667 h 3.10026 l 0.20764,0.8599 c 0.21824,0.90375 0.25386,12.96108 0.085,28.77344 l -0.1003,9.3927 -5.29167,0.0112 -5.29166,0.0112 -0.16048,10.30758 c -0.0883,5.66917 -0.19048,16.08212 -0.22715,23.13988 -0.0367,7.05776 -0.14306,13.54666 -0.2364,14.41979 l -0.16972,1.5875 -4.7625,0.005 c -2.61938,0.003 -14.88282,-0.0567 -27.25209,-0.1323 z m 34.0634,-21.63478 0.0678,-19.51302 4.21316,-0.0731 c 2.31723,-0.0402 4.31267,0.0264 4.43431,0.14807 0.2613,0.2613 0.62534,37.28028 0.37636,38.27229 l -0.17037,0.67878 h -4.49458 -4.49458 z m -67.392891,13.89062 c -0.310082,-9.10345 0.04316,-32.49793 0.501909,-33.2402 0.211758,-0.34263 7.977462,-0.42574 8.186442,-0.0876 0.0707,0.11446 0.2116,8.86556 0.31302,19.44687 l 0.1844,19.23876 h -4.501635 -4.501638 z m 62.698241,-88.40727 c -0.87312,-0.4885 -2.56083,-1.20784 -3.75046,-1.59854 -2.7459,-0.90181 -2.66064,-0.76284 -2.77088,-4.51658 -0.10684,-3.63822 -0.73422,-5.3781 -2.65173,-7.35397 -0.56397,-0.58112 -0.95129,-1.12875 -0.86072,-1.21694 0.50057,-0.48741 3.81608,4.49297 3.81608,5.73232 0,0.26609 0.12349,0.60728 0.27442,0.75821 0.1895,0.1895 0.1895,0.49776 0,0.99618 -0.8673,2.28119 -0.14797,4.42522 1.63533,4.87426 1.51536,0.38157 6.29234,2.62784 6.29234,2.95883 0,0.40906 -0.28068,0.31941 -1.98438,-0.63377 z"
         id="path43" /><path
         style="fill:#989898"
         d="m 127.79375,238.7886 -23.54792,-0.13444 -0.13229,-24.72596 -0.13229,-24.72596 -4.960492,0.0764 c -4.138893,0.0637 -4.984872,0.0128 -5.107703,-0.30725 -0.08097,-0.211 -0.0514,-9.00212 0.0657,-19.53583 l 0.212911,-19.1522 2.631014,-0.0764 c 2.882865,-0.0836 3.18026,-0.2066 3.42186,-1.4146 0.57229,-2.86144 5.40833,-6.58976 11.27733,-8.6942 2.38082,-0.85369 2.29817,-0.72132 2.44019,-3.90825 0.16831,-3.77717 0.83866,-5.23111 3.7014,-8.0281 1.86774,-1.82483 2.06099,-2.10948 2.06574,-3.04271 0.0313,-6.14903 2.59408,-9.28797 8.8583,-10.84978 3.76849,-0.93957 11.00481,0.61267 12.0616,2.58729 0.14308,0.26734 0.41835,0.48607 0.61172,0.48607 0.97434,0 2.52781,3.37405 2.4973,5.42396 -0.0333,2.23837 -0.41789,3.22952 -0.45494,1.1725 -0.0721,-4.0009 -1.84016,-6.55554 -5.62126,-8.1219 -2.49505,-1.0336 -5.35772,-1.4564 -4.68997,-0.69268 0.23964,0.27409 0.47795,0.72894 0.52957,1.01079 0.0585,0.31947 0.41753,0.59632 0.95336,0.73516 0.70303,0.18218 0.86015,0.3538 0.8631,0.94276 0.005,1.01528 0.27697,1.91066 0.58015,1.91066 0.70779,0 1.56348,1.7096 0.9569,1.9118 -0.17129,0.0571 -0.22379,0.24561 -0.11668,0.41892 0.28858,0.46693 0.69147,0.38194 0.7011,-0.1479 0.008,-0.41586 0.0486,-0.4099 0.40272,0.0586 0.21686,0.28687 0.33348,0.68006 0.25915,0.87376 -0.15615,0.40691 0.45311,1.44921 1.48283,2.53681 0.44412,0.46909 1.03916,1.74123 1.56401,3.34375 l 0.84717,2.5866 -0.57637,2.86374 c -0.72568,3.60557 -0.67146,3.54564 -3.20767,3.54564 -1.94919,0 -2.9099,0.33585 -2.89222,1.01109 0.01,0.37063 1.42655,12.92828 1.84662,16.36681 0.14543,1.1904 0.38454,2.48031 0.53136,2.86648 0.14682,0.38616 0.20805,0.7974 0.13608,0.91385 -0.072,0.11646 -0.0144,0.85061 0.12804,1.63145 0.25131,1.37801 0.39254,2.61895 0.67344,5.91761 0.0744,0.87313 0.25699,1.96558 0.40586,2.42768 0.25565,0.79355 0.71453,3.78112 0.84474,5.49972 0.067,0.88428 -0.36082,0.71803 5.21874,2.02803 7.24285,1.70051 12.30383,4.09954 15.63524,7.41148 l 2.03295,2.02107 0.17424,-5.06378 c 0.26024,-7.56341 0.66954,-14.51744 0.90624,-15.39686 l 0.20978,-0.77942 1.80454,0.0958 c 0.99251,0.0527 2.16608,0.19948 2.60795,0.32621 1.13759,0.32626 1.09004,0.58521 1.23531,-6.72735 0.0933,-4.69396 0.21038,-6.50307 0.39688,-6.13007 0.16399,0.32797 0.24169,3.79859 0.20437,9.12813 -0.0331,4.72943 -0.0926,13.00427 -0.13229,18.38854 l -0.0721,9.78958 h -5.42396 -5.42396 l -0.0533,9.39271 c -0.0293,5.16599 -0.0889,16.17927 -0.13229,24.47396 -0.0434,8.29469 -0.17527,15.23008 -0.293,15.41198 -0.15755,0.24343 -1.17021,0.31384 -3.83646,0.26673 -1.99232,-0.0352 -14.21897,-0.1245 -27.17032,-0.19844 z m 33.07251,-2.38405 c -0.23535,-0.3808 0.12783,-38.45515 0.36916,-38.70179 0.11063,-0.11307 2.03745,-0.1726 4.28182,-0.1323 l 4.08067,0.0733 0.20546,18.91771 c 0.1363,12.54909 0.11594,19.11812 -0.0605,19.51302 -0.292,0.65366 -8.48829,0.95844 -8.87664,0.33007 z m 8.33478,-33.77335 v -3.87609 l -3.56052,0.14929 c -4.41631,0.18516 -4.1124,-0.0528 -4.1124,3.22048 0,3.13593 0.0272,3.18028 2.11667,3.45878 0.80036,0.10668 2.16958,0.34867 3.04271,0.53776 2.74348,0.59415 2.51354,0.91344 2.51354,-3.49022 z m -75.586278,33.34814 c -0.246315,-0.64188 -0.224101,-34.07705 0.02411,-36.28507 l 0.215633,-1.91823 h 4.159993 4.159992 l 0.1738,19.07846 c 0.0956,10.49316 0.10813,19.18472 0.0279,19.31459 -0.28966,0.46867 -8.577614,0.28918 -8.761396,-0.18975 z m 73.006588,-84.71249 c -4.0435,-0.10163 -3.87944,-0.58665 0.19844,-0.58665 1.80752,0 3.175,0.10724 3.175,0.24897 0,0.39433 -0.22467,0.41682 -3.37344,0.33768 z"
         id="path42" /><path
         style="fill:#878787"
         d="m 129.0098,238.85261 c -17.86488,-0.0509 -24.28056,-0.14913 -24.55367,-0.37579 -0.30228,-0.25087 -0.36458,-1.71042 -0.34156,-8.00225 0.0155,-4.23247 0.0216,-15.25737 0.0136,-24.49977 l -0.0146,-16.80436 -5.093231,0.003 -5.093229,0.003 0.04514,-7.9375 c 0.04567,-8.02968 0.398147,-18.55985 0.560169,-16.7349 0.06296,0.70919 0.215597,0.99832 0.535137,1.01369 0.76244,0.0367 1.723855,0.16019 2.894445,0.37192 0.618463,0.11186 1.136423,0.1584 1.151021,0.10342 0.147207,-0.5544 0.414925,-12.37739 0.306316,-13.52757 l -0.143658,-1.52135 h -2.343558 c -2.252768,0 -2.343716,0.0231 -2.34761,0.59531 -0.0033,0.48139 -0.05313,0.51937 -0.260532,0.19844 -0.730072,-1.12971 -0.399073,-1.32292 2.266352,-1.32292 2.914642,0 3.420158,-0.18825 3.654708,-1.36099 0.62948,-3.1474 4.78006,-6.47159 10.87999,-8.71375 l 2.64583,-0.97253 0.15586,-2.87688 c 0.22164,-4.09099 1.47818,-6.62806 4.44104,-8.96683 1.18284,-0.9337 1.33922,-1.17444 1.37199,-2.11214 0.0203,-0.58209 0.12779,-1.35599 0.23877,-1.7198 0.21785,-0.71409 0.25455,-0.663 0.8012,1.11533 1.1652,3.7906 6.6175,6.31113 12.78122,5.90861 5.59021,-0.36508 5.02974,-0.47336 5.41355,1.04586 0.39528,1.56464 0.17436,4.73847 -0.36076,5.18258 -0.21782,0.18077 -2.50932,0.38221 -5.86941,0.51597 -3.03165,0.12068 -5.83223,0.29976 -6.22351,0.39797 -0.91504,0.22966 -0.92253,-0.25972 0.20207,13.21806 0.0729,0.87312 0.25469,3.19484 0.40408,5.15938 0.14939,1.96453 0.45614,5.23875 0.68168,7.27604 0.22553,2.03729 0.45814,4.35901 0.51691,5.15937 0.28792,3.92099 0.45677,5.49256 0.6164,5.73712 0.0961,0.14725 2.02021,0.41245 4.27578,0.58934 15.1484,1.18801 24.65486,4.72945 29.14316,10.85671 l 0.66754,0.91129 0.17407,-5.40921 c 0.18166,-5.64488 0.54969,-9.75173 0.89907,-10.03283 0.24657,-0.19837 5.25622,0.0596 5.47728,0.28202 0.32489,0.32695 0.63917,17.29068 0.3274,17.67203 -0.24264,0.29679 -1.26302,0.34165 -5.40554,0.23764 -2.80855,-0.0705 -5.16944,-0.0263 -5.24642,0.0983 -0.077,0.12457 -0.18046,11.12366 -0.22994,24.44242 -0.069,18.56496 -0.16534,24.30676 -0.41297,24.60515 -0.25089,0.30229 -0.89188,0.37475 -2.87031,0.32447 -1.40101,-0.0356 -13.43007,-0.0958 -26.73124,-0.13369 z m 23.73355,-28.97188 -0.0788,-1.65365 -19.57917,-0.0227 c -10.76854,-0.0125 -20.32915,0.0281 -21.2458,0.0903 l -1.66663,0.11304 0.0791,1.36491 0.0791,1.36491 14.1552,0.13577 c 7.78537,0.0747 17.34582,0.16398 21.24544,0.19844 l 7.09023,0.0627 z m 8.07588,26.36399 c -0.20712,-0.53975 0.17069,-20.24938 0.43563,-22.72597 0.19062,-1.78185 0.19956,-1.80013 0.2357,-0.48206 l 0.0376,1.37002 1.38906,0.1456 c 0.76399,0.0801 2.49039,0.242 3.83646,0.35983 l 2.4474,0.21422 0.037,-0.80381 c 0.1279,-2.7782 0.4426,4.73818 0.52577,12.5578 0.0854,8.03248 0.0454,9.31223 -0.2982,9.5299 -0.74561,0.47237 -8.45826,0.32472 -8.64639,-0.16553 z m -67.185905,-0.1513 c -0.326147,-0.52771 -0.185373,-34.37221 0.14434,-34.70192 0.19922,-0.19922 0.282893,0.60535 0.285758,2.74777 0.0022,1.66621 0.09153,3.15918 0.198437,3.31771 0.496548,0.73629 7.39642,1.5672 7.54666,0.9088 0.12057,-0.52835 0.42323,11.7023 0.51381,20.76338 l 0.0714,7.14375 -4.279875,0.0726 c -3.16225,0.0537 -4.332276,-0.0122 -4.48055,-0.2521 z m 67.373675,-37.58978 -0.008,-0.7276 h 4.21772 c 2.52641,0 4.28329,0.1061 4.38124,0.26458 0.10633,0.17205 -1.27169,0.26459 -3.93998,0.26459 -3.62898,0 -4.1347,0.0535 -4.3732,0.46302 -0.23056,0.39584 -0.27085,0.35746 -0.27773,-0.26459 z m 8.89916,-36.44635 c 0.0891,-4.72943 0.20499,-8.64857 0.25758,-8.7092 0.23058,-0.26582 0.0655,16.54885 -0.166,16.91128 -0.16274,0.25476 -0.19553,-2.68233 -0.0916,-8.20208 z"
         id="path41" /><path
         style="fill:#717171"
         d="m 151.60625,238.7864 c -1.89177,-0.10065 -13.25364,-0.20267 -25.24859,-0.22669 -11.99495,-0.024 -21.86192,-0.0966 -21.9266,-0.16129 -0.0647,-0.0647 -0.097,-11.04687 -0.0718,-24.40488 0.037,-19.59001 -0.0208,-24.3723 -0.2984,-24.72684 -0.29897,-0.38177 -0.63982,-0.41004 -2.59318,-0.21508 -3.809492,0.38021 -7.028898,0.31806 -7.411601,-0.14307 -0.25965,-0.31285 -0.288354,-1.83701 -0.130802,-6.94531 0.17935,-5.81502 0.51832,-11.28161 0.62444,-10.07037 0.03213,0.3667 0.408412,0.45772 2.187841,0.52917 2.846969,0.11432 2.663855,0.87598 2.803981,-11.66323 0.08863,-7.9313 0.198884,-10.55909 0.460691,-10.98021 0.18929,-0.30448 0.41484,-0.85995 0.50122,-1.23436 0.63326,-2.74493 5.66156,-6.46538 11.21684,-8.29937 l 2.18281,-0.72062 0.003,-2.16109 c 0.006,-4.02048 0.97617,-6.27972 3.91744,-9.12108 1.70232,-1.6445 2.02534,-2.09851 2.16487,-3.04271 l 0.16399,-1.10979 0.42698,0.97621 c 1.67253,3.82394 6.31739,6.03525 12.67707,6.03525 h 3.35683 l 0.28651,1.33594 c 0.38804,1.80937 0.36731,4.13914 -0.0391,4.39029 -0.17906,0.11066 -2.68299,0.29366 -5.56428,0.40665 -4.8977,0.19207 -10.53233,0.89302 -12.16329,1.51311 l -0.68501,0.26044 0.0955,2.72751 c 0.0526,1.50013 0.16225,4.63252 0.24378,6.96085 0.0815,2.32833 0.20877,5.3049 0.28276,6.61458 0.074,1.30969 0.25272,4.9411 0.39716,8.0698 0.4242,9.18829 0.57726,11.76587 0.70703,11.90607 0.0673,0.0727 3.95221,0.13972 8.63322,0.149 17.49652,0.0347 30.19849,4.21492 33.71613,11.09597 l 0.54102,1.05833 0.14614,-0.92604 c 0.0804,-0.50932 0.20723,-2.89057 0.28191,-5.29167 0.0747,-2.40109 0.21483,-4.7037 0.31145,-5.11692 l 0.17566,-0.75129 2.58897,0.0898 c 1.42393,0.0494 2.68536,0.18647 2.80317,0.30459 0.71347,0.71533 0.8709,13.25936 0.16978,13.5284 -0.67013,0.25716 -7.51039,0.11657 -8.27575,-0.17009 -0.36229,-0.1357 -1.05603,-0.17218 -1.54165,-0.0811 l -0.88294,0.16564 0.005,9.70765 c 0.003,5.3392 0.0189,12.80326 0.0353,16.5868 0.027,6.20883 -0.0909,7.63472 -0.62505,7.56323 -0.0929,-0.0124 -3.17518,0.004 -6.84958,0.0369 l -6.68073,0.0595 7.01146,0.13892 7.01146,0.13892 -0.005,7.45766 c -0.003,4.10171 -0.0624,7.51009 -0.13229,7.57419 -0.28646,0.26272 -3.78002,0.35329 -7.00623,0.18164 z m 1.40096,-28.89764 c 0.0731,-1.66517 0.0396,-1.78724 -0.52916,-1.92492 -0.33397,-0.0809 -10.01316,-0.11424 -21.5093,-0.0742 l -20.90209,0.0728 v 1.71979 1.71979 l 13.75834,0.13782 c 7.56708,0.0758 17.21114,0.13532 21.43125,0.13229 l 7.67291,-0.006 z m 7.98397,26.32456 c -0.17225,-4.54359 0.29271,-20.1557 0.50159,-16.84211 0.0338,0.53589 0.19631,0.56626 3.65873,0.68369 2.43836,0.0827 3.6572,0.22432 3.72677,0.43304 0.0569,0.17058 0.20031,0.25024 0.31877,0.17703 0.31943,-0.19742 0.57941,5.69592 0.48427,10.97774 l -0.0834,4.6302 -4.29948,0.0727 c -2.36471,0.04 -4.30297,-0.0195 -4.30725,-0.13229 z m -67.286779,-3.44613 c -0.233888,-4.58592 -0.213596,-19.09014 0.02785,-19.9099 0.140167,-0.47589 0.231939,-0.10475 0.327116,1.32292 l 0.132292,1.98437 3.69917,0.34791 c 2.034544,0.19135 3.772531,0.46661 3.862201,0.61169 0.25085,0.40589 0.50638,7.15035 0.50746,13.39405 l 9.6e-4,5.62239 H 98.068953 93.87645 Z"
         id="path40" /><path
         style="fill:#4b4b4b"
         d="m 128.98437,238.52833 -24.47396,-0.13875 v -7.34731 -7.34732 l 26.03072,0.008 c 14.31689,0.004 26.49103,0.0813 27.05365,0.17124 l 1.02292,0.16357 0.0607,4.39796 c 0.0646,4.68258 0.039,6.76854 -0.10908,8.89587 l -0.0921,1.32291 -2.50943,0.006 c -1.38019,0.004 -13.52271,-0.056 -26.98339,-0.13229 z m 32.19097,-2.29951 c -0.24654,-0.24654 -0.18344,-9.4854 0.0747,-10.93611 0.11652,-0.65485 0.22676,-1.0418 0.24497,-0.8599 0.0247,0.24706 0.95951,0.33073 3.69482,0.33073 3.62599,0 3.66457,0.006 3.95612,0.6462 0.32238,0.70754 0.50196,10.22189 0.2021,10.70708 -0.19539,0.31615 -7.86346,0.42123 -8.1727,0.112 z m -67.215967,-0.30053 c -0.211904,-0.34287 -0.29833,-14.02962 -0.08991,-14.23804 0.104448,-0.10445 0.189905,0.10976 0.189905,0.47602 v 0.66593 l 3.603978,0.1511 c 2.117398,0.0888 3.727154,0.27407 3.902604,0.44921 0.28154,0.28104 0.75282,12.02364 0.50207,12.50968 -0.13828,0.26803 -7.942673,0.25466 -8.10865,-0.0139 z M 104.50231,222.3174 c -0.0686,-0.18259 -0.15439,-7.77329 -0.19061,-16.86823 l -0.0659,-16.53624 -5.027084,-2.2e-4 -5.027083,-2.1e-4 -0.0825,-3.70417 c -0.04537,-2.03729 -0.0069,-4.55192 0.0855,-5.58807 l 0.168005,-1.88391 2.320409,0.1323 c 2.094659,0.11943 2.339377,0.0839 2.515373,-0.36505 0.379009,-0.96685 0.664515,-8.55037 0.673081,-17.87809 0.0048,-5.19378 0.112355,-9.50732 0.239079,-9.58564 0.12673,-0.0783 0.30827,-0.53183 0.40343,-1.00781 0.6516,-3.25924 8.1106,-8.66056 11.97459,-8.67122 0.12313,-3.4e-4 0.19136,0.98192 0.15162,2.18281 -0.12815,3.87321 0.33064,34.545 0.51955,34.73371 0.1005,0.10039 1.76737,-0.0638 3.70417,-0.36495 13.31698,-2.07039 24.55156,-1.42242 34.21311,1.97326 6.20792,2.18186 10.79717,5.71092 11.40474,8.77006 0.0939,0.47294 0.31831,0.85989 0.49862,0.85989 0.43515,0 0.6635,-1.79905 0.66796,-5.26245 0.005,-4.2311 -0.16531,-3.99796 2.92835,-3.99796 3.24575,0 3.06856,-0.30126 3.19019,5.42395 l 0.0956,4.49792 -3.61401,0.0735 c -1.98771,0.0404 -4.46124,-0.0277 -5.49674,-0.15141 -1.47093,-0.17568 -1.9475,-0.14682 -2.17884,0.13193 -0.21392,0.25776 -0.26716,4.92618 -0.1918,16.82015 l 0.1043,16.46337 -26.92917,0.0674 c -21.4044,0.0536 -26.95477,-7.1e-4 -27.05393,-0.26458 z m 48.92771,-10.67238 c 0.28366,-0.73918 0.17127,-3.43373 -0.1569,-3.7619 -0.24177,-0.24177 -5.48229,-0.3175 -21.97154,-0.3175 h -21.65405 l 0.0773,2.05052 0.0773,2.05052 2.91042,0.14614 c 7.84787,0.39405 40.55364,0.25929 40.71752,-0.16778 z m -39.18154,-72.51303 c -0.35112,-0.91501 0.10086,-5.52259 0.66709,-6.80043 0.80267,-1.81145 2.17,-3.57174 3.71828,-4.78689 0.97925,-0.76855 1.34953,-1.24841 1.40785,-1.82448 0.0786,-0.77689 0.0844,-0.77345 0.94724,0.56331 1.93334,2.99528 6.31947,5.07604 10.72043,5.08573 2.51136,0.006 2.70519,0.10859 3.05505,1.62427 0.83591,3.62132 0.59172,3.91886 -3.22097,3.92476 -5.17095,0.008 -11.62813,0.88751 -15.60674,2.12574 -1.3348,0.41543 -1.55811,0.42706 -1.68823,0.088 z"
         id="path39" /><path
         style="fill:#373737"
         d="m 163.90937,185.4073 0.13229,-3.63855 2.57969,-0.0757 c 1.41883,-0.0417 2.58255,0.0179 2.58605,0.13229 0.0349,1.14046 0.29648,5.21388 0.39146,6.095 l 0.12122,1.12448 -2.9715,5.3e-4 -2.9715,5.3e-4 z m -69.585415,-0.59584 v -3.96875 h 2.503343 2.503344 l 0.257962,-0.99219 c 0.339547,-1.30599 0.525716,-6.3911 0.699866,-19.11615 0.16999,-12.4218 0.13272,-12.19441 2.45393,-14.97282 1.07339,-1.28481 5.45021,-4.07718 6.39068,-4.07718 0.48136,0 0.3669,36.9091 -0.11596,37.39196 -0.21345,0.21345 -1.19572,0.83679 -2.18282,1.3852 -3.99193,2.21783 -6.56863,4.92536 -6.877271,7.22644 l -0.146499,1.09224 h -2.743288 -2.743287 z m 20.159985,-48.75852 c 0.17032,-3.82961 1.07275,-5.49736 4.75544,-8.78836 l 1.1843,-1.05833 1.39548,1.51953 c 2.1916,2.38641 6.423,4.14962 9.99387,4.16441 1.35763,0.006 1.36817,0.0221 1.57436,2.4613 l 0.16682,1.97342 -3.4094,0.17756 c -1.87517,0.0977 -4.28235,0.30114 -5.3493,0.45217 -1.66869,0.23621 -2.00566,0.21509 -2.41023,-0.15104 -0.43398,-0.39275 -0.49876,-0.38649 -0.83822,0.0809 -0.31836,0.43836 -5.59857,1.88943 -6.8753,1.88943 -0.22322,0 -0.27529,-0.75435 -0.18782,-2.72101 z"
         id="path38" /></g></g></svg>
