<?xml version="1.0" encoding="UTF-8" standalone="no"?>
<!-- Created with Inkscape (http://www.inkscape.org/) -->

<svg
   width="119.74908mm"
   height="114.11419mm"
   viewBox="0 0 119.74908 114.11419"
   version="1.1"
   id="svg1"
   xml:space="preserve"
   xmlns:inkscape="http://www.inkscape.org/namespaces/inkscape"
   xmlns:sodipodi="http://sodipodi.sourceforge.net/DTD/sodipodi-0.dtd"
   xmlns="http://www.w3.org/2000/svg"
   xmlns:svg="http://www.w3.org/2000/svg"><sodipodi:namedview
     id="namedview1"
     pagecolor="#ffffff"
     bordercolor="#000000"
     borderopacity="0.25"
     inkscape:showpageshadow="2"
     inkscape:pageopacity="0.0"
     inkscape:pagecheckerboard="0"
     inkscape:deskcolor="#d1d1d1"
     inkscape:document-units="mm"
     inkscape:zoom="0.72515432"
     inkscape:cx="515.75229"
     inkscape:cy="341.99617"
     inkscape:window-width="1920"
     inkscape:window-height="1009"
     inkscape:window-x="-8"
     inkscape:window-y="-8"
     inkscape:window-maximized="1"
     inkscape:current-layer="layer1"><inkscape:page
       x="3.585773e-21"
       y="0"
       width="119.74908"
       height="114.11419"
       id="page2"
       margin="0"
       bleed="0" /></sodipodi:namedview><defs
     id="defs1" /><g
     inkscape:label="Réteg 1"
     inkscape:groupmode="layer"
     id="layer1"
     transform="translate(-246.1524,-68.919847)"><g
       id="g32"
       transform="translate(212.5907,-6.1919621)"><path
         style="fill:#d6d6d6"
         d="m 124.04922,188.97729 c -7.8613,-1.13284 -14.2154,-5.51102 -15.98488,-11.0141 l -0.59134,-1.83907 -5.33793,-0.17295 c -2.935864,-0.0951 -8.969339,-0.17113 -13.407724,-0.1689 l -8.069792,0.004 -0.634363,2.00357 c -3.242614,10.24144 -19.889405,14.57924 -31.38333,8.17783 -4.079746,-2.27217 -7.04695,-5.85169 -7.68939,-9.27619 l -0.171599,-0.9147 h -1.772068 c -3.102312,0 -2.799249,2.16762 -2.799249,-20.02133 v -19.2693 l -1.322917,-2.11666 -1.322916,-2.11667 0.02655,-5.02708 0.02655,-5.02709 3.942197,-6.74687 3.942198,-6.74688 5.027084,-0.13347 c 3.771813,-0.10014 5.258317,-0.23732 5.953125,-0.54938 0.509323,-0.22875 1.670182,-0.57192 2.579687,-0.76258 0.909505,-0.19067 1.653646,-0.44272 1.653646,-0.56013 0,-0.1174 -0.421281,-1.91683 -0.936181,-3.99874 -1.818948,-7.3546 -0.705632,-11.522079 3.781802,-14.156435 2.986955,-1.753496 7.584206,-2.7251 10.251254,-2.166545 10.335197,2.164481 12.755674,6.490226 10.004256,17.87906 -0.536774,2.22185 -0.905129,4.11054 -0.818566,4.19711 0.08656,0.0866 4.259861,0.0717 9.273998,-0.0331 l 9.116612,-0.1905 0.197395,-2.67305 c 0.108568,-1.47018 0.237994,-8.792832 0.287614,-16.272564 0.05373,-8.09988 0.191794,-13.701091 0.341397,-13.850694 0.470516,-0.470516 54.18881,-0.405792 54.63788,0.06583 0.39987,0.41994 0.57735,19.236105 0.37897,40.175608 -0.1005,10.60863 0.14645,9.83064 -3.12054,9.83064 h -2.01756 l -0.33973,1.7092 c -0.25357,1.27572 -0.32462,4.91611 -0.28012,14.35365 0.11619,24.6405 -0.1433,35.22719 -0.90965,37.11321 -2.89312,7.11999 -12.87359,11.68421 -22.51237,10.29524 z"
         id="path38" /><path
         style="fill:#cacaca"
         d="m 124.3138,188.82485 c -8.31925,-1.06754 -15.50273,-6.31843 -16.43505,-12.01347 l -0.15549,-0.94982 -9.299518,-0.17425 c -5.114737,-0.0958 -11.278141,-0.17444 -13.696455,-0.17466 l -4.396933,-4.1e-4 -0.141856,1.05762 c -1.263167,9.41761 -16.971864,15.16544 -28.767402,10.52602 -5.399806,-2.12385 -9.648779,-6.44491 -10.300559,-10.47532 l -0.15784,-0.97603 -1.980387,-0.0791 c -1.089213,-0.0435 -2.099589,-0.19841 -2.245279,-0.34427 -0.171907,-0.17211 -0.264893,-6.97087 -0.264893,-19.36781 v -19.10261 l -1.389062,-2.39497 -1.389063,-2.39497 v -4.76386 -4.76386 l 1.819194,-3.15992 c 1.000556,-1.73795 2.760422,-4.76726 3.910812,-6.73179 l 2.091618,-3.57187 5.018875,-0.1323 c 3.017668,-0.0795 5.229874,-0.25235 5.548043,-0.43339 0.291041,-0.16561 1.237517,-0.44687 2.10328,-0.62503 2.111013,-0.4344 2.829196,-0.78428 2.670258,-1.30088 -1.032078,-3.3546 -1.770052,-7.439575 -1.626106,-9.001144 0.08803,-0.955035 0.155647,-2.132898 0.150249,-2.617474 -0.01121,-1.006277 1.0204,-3.3937 1.760765,-4.07488 1.504085,-1.383849 2.199959,-1.904391 3.275928,-2.450522 1.533611,-0.778418 3.828569,-1.457093 4.927199,-1.457093 0.474323,0 0.93599,-0.119062 1.025926,-0.264583 0.212993,-0.344629 2.962008,-0.344629 3.175,0 0.08994,0.145521 0.551604,0.264583 1.025926,0.264583 2.983196,0 7.227053,2.412854 8.951502,5.089396 1.536785,2.385265 1.609588,6.27322 0.220895,11.796747 -0.588609,2.34119 -1.070198,4.38113 -1.070198,4.5332 0,0.18714 3.077957,0.27649 9.525,0.27649 h 9.525 l 2.21e-4,-2.18281 c 2.75e-4,-2.71592 0.455501,-7.644069 0.781024,-8.455153 0.189729,-0.472736 0.247252,-0.2504 0.260317,1.006171 0.0092,0.88715 0.09307,2.687842 0.186314,4.001532 l 0.169543,2.38853 2.277852,0.20949 c 2.8525,0.26233 3.19706,0.28315 8.36327,0.50543 2.32833,0.10018 4.88818,0.23445 5.68854,0.29839 0.80037,0.0639 3.33342,0.16958 5.62902,0.23477 2.29559,0.0652 4.26194,0.17299 4.36965,0.23956 0.10771,0.0666 3.11106,0.19179 6.67411,0.27826 3.56304,0.0865 8.2642,0.22086 10.44701,0.29863 2.18282,0.0778 5.17293,0.17733 6.64469,0.22124 l 2.67594,0.0798 0.16675,-2.14162 c 0.0917,-1.17789 0.18198,-6.130218 0.20061,-11.005166 0.0186,-4.874948 0.11098,-10.530417 0.20522,-12.567708 l 0.17134,-3.704167 0.21337,2.778125 c 0.37045,4.823419 0.21868,43.249176 -0.17322,43.854686 -0.14465,0.2235 -0.9724,0.33073 -2.55304,0.33073 h -2.339 l -0.15956,1.25677 c -0.14408,1.13479 -0.27609,14.01069 -0.40879,39.87159 -0.0261,5.08533 -0.15283,9.80178 -0.28164,10.48099 -1.451,7.6511 -12.15381,13.317 -22.61892,11.97409 z m 7.62662,-28.91938 c 0.52464,-0.55585 0.69547,-0.94846 0.57621,-1.32422 -0.11314,-0.35647 -0.0315,-0.58709 0.2456,-0.69341 0.85824,-0.32934 0.49149,-1.38545 -0.57707,-1.66176 -0.86786,-0.2244 -3.5234,-0.41554 -4.50991,-0.3246 -0.46884,0.0432 -0.14031,1.78858 0.51167,2.71827 0.27088,0.38627 0.49251,0.94189 0.49251,1.23473 0,1.13984 2.20081,1.17426 3.26099,0.051 z m -28.81218,-11.00275 c 0.23686,-0.23687 0.41577,-0.86305 0.41577,-1.45521 v -1.03943 h -1.79895 -1.798957 l 0.110027,0.9425 c 0.0811,0.69424 0.21215,0.90332 0.49768,0.79375 0.21321,-0.0818 0.5565,-0.14875 0.76288,-0.14875 0.20638,0 0.37524,-0.18562 0.37524,-0.41249 0,-0.22687 0.11906,-0.33891 0.26458,-0.24897 0.14552,0.0899 0.26459,0.49384 0.26459,0.89756 0,0.63106 0.17699,1.08681 0.42207,1.08681 0.0381,0 0.25639,-0.1871 0.48507,-0.41577 z m 33.22411,-5.66964 v -2.38125 h -10.98021 -10.98021 v 2.38125 2.38125 h 10.98021 10.98021 z m -38.518689,-23.6009 c 0.08352,-0.77122 0.182122,-3.2477 0.219121,-5.50327 l 0.06727,-4.10104 h -9.919909 -9.91991 l -0.809874,3.04271 c -0.837539,3.14664 -1.318267,4.27945 -2.445167,5.76189 -0.858946,1.12994 -1.056082,1.06194 3.655409,1.26083 2.25149,0.0951 4.162786,0.21528 4.247325,0.26718 0.08454,0.0519 2.406257,0.17208 5.159375,0.26705 2.753117,0.095 5.026952,0.19113 5.052966,0.21367 0.02601,0.0225 1.058503,0.0752 2.29442,0.1171 l 2.247122,0.0761 z M 60.41594,118.6501 c -5.44e-4,-0.0856 -0.247378,-0.55972 -0.54852,-1.05368 -0.301143,-0.49396 -0.884895,-2.18399 -1.297227,-3.75561 -0.412332,-1.57162 -0.838041,-3.00044 -0.946019,-3.17516 -0.237191,-0.38378 -9.239481,-0.11574 -12.817661,0.38164 l -2.248958,0.31262 v 2.1121 2.11211 l 0.992187,-0.0582 c 0.545703,-0.032 0.992188,0.048 0.992188,0.17792 0,0.24276 1.823808,0.95894 2.187539,0.85902 0.111741,-0.0307 0.646139,0.12928 1.187552,0.35549 0.541413,0.22622 1.253661,0.34372 1.582773,0.26112 0.329112,-0.0826 0.598386,-0.0288 0.598386,0.11944 0,0.14829 0.245952,0.26962 0.54656,0.26962 0.300609,0 0.787661,0.12904 1.082339,0.28674 0.39243,0.21003 0.744912,0.20012 1.317444,-0.037 0.622895,-0.25802 0.927037,-0.25464 1.497349,0.0166 0.393626,0.18722 0.953808,0.37734 1.244849,0.42249 0.291042,0.0451 1.064948,0.19084 1.719792,0.32374 1.329337,0.26981 2.910942,0.30734 2.909427,0.069 z m 11.520922,-15.77404 c 10.378404,-2.66499 10.361843,-12.288086 -0.02572,-14.944777 -8.803168,-2.251471 -17.979934,3.615406 -15.207646,9.722531 1.938654,4.270696 9.219187,6.766586 15.233366,5.222246 z M 98.446107,89.125786 c -0.110586,-3.055938 -0.264607,-7.223125 -0.342269,-9.260417 -0.0877,-2.300521 -0.03984,-3.854557 0.126285,-4.101042 0.234848,-0.348444 3.567337,-0.396875 27.308617,-0.396875 26.87671,0 27.62568,0.0219 27.17147,0.794493 -0.0473,0.08045 -12.14107,0.141316 -26.87505,0.135269 l -26.789064,-0.01099 -0.03583,4.964575 c -0.01971,2.730516 -0.109465,6.869575 -0.199462,9.197908 l -0.163631,4.233334 z"
         id="path37" /><path
         style="fill:#b2b2b2"
         d="m 124.71068,188.84132 c -8.50763,-1.06633 -15.16041,-5.77411 -16.67832,-11.80225 l -0.29693,-1.17923 -5.73373,-0.17315 c -3.153552,-0.0952 -9.320153,-0.17344 -13.703559,-0.1738 l -7.96983,-6.5e-4 -0.162348,1.01527 c -1.75067,10.94809 -20.450988,15.93045 -32.445102,8.64441 -3.226289,-1.95986 -6.618515,-6.54778 -6.618515,-8.9514 0,-0.70442 -0.01071,-0.70828 -1.965476,-0.70828 -2.956698,0 -2.797023,0.4552 -2.797023,-7.97379 0,-4.41736 0.104494,-7.3375 0.273892,-7.65402 0.254386,-0.47532 0.595906,-0.51177 4.795319,-0.51177 h 4.521426 l 2.114485,-1.05833 c 3.139982,-1.57161 3.37517,-1.51178 3.380179,0.85989 0.0058,2.72633 -0.0066,2.71685 2.803801,2.15646 8.126467,-1.62045 16.74633,0.30802 22.108236,4.94614 1.885965,1.63139 1.806828,1.65876 1.806828,-0.62503 0,-2.00858 -0.272794,-2.65084 -2.030325,-4.78018 -0.340476,-0.4125 -0.551693,-0.85899 -0.469371,-0.99219 0.08754,-0.14164 6.032451,-0.24218 14.320127,-0.24218 H 104.1349 l -0.15954,-0.59531 c -0.0877,-0.32742 -0.16116,-3.42305 -0.16315,-6.87917 l -0.004,-6.28385 H 72.865811 41.923026 l -0.63769,-0.8599 c -0.350729,-0.47294 -1.339054,-2.11005 -2.196277,-3.63802 l -1.558588,-2.77812 -0.16736,2.64583 c -0.09205,1.45521 -0.181345,4.18373 -0.198437,6.06337 -0.04983,5.47943 -0.28725,3.70848 -0.514911,-3.84076 l -0.210648,-6.98511 -1.306405,-2.11666 -1.306405,-2.11667 0.04012,-5.02708 0.04012,-5.02709 3.697934,-6.34254 c 4.548327,-7.80109 4.874036,-8.12143 4.543821,-4.46889 -0.19538,2.16111 0.04083,14.768 0.281069,15.0008 0.196747,0.19065 12.902937,0.67786 25.263609,0.96872 6.111875,0.14381 12.303125,0.31783 13.758333,0.38671 1.455208,0.0689 7.003147,0.20529 12.328752,0.30314 l 9.682927,0.1779 0.16989,-1.02855 c 0.37978,-2.2991 0.49825,-2.19159 -2.50812,-2.27605 -3.502983,-0.0984 -3.369839,0.15147 -2.819539,-5.29184 0.584813,-5.7847 0.214913,-5.28018 3.749169,-5.11353 4.38104,0.20659 14.20298,0.37842 33.04119,0.57806 l 16.86719,0.17875 v -0.9525 c 0,-2.16371 0.4782,-1.03908 0.62396,1.46744 0.58992,10.1442 0.82279,9.27453 -2.53174,9.45509 l -2.45784,0.13229 -0.1852,1.19063 c -0.10186,0.65484 -0.20587,7.02468 -0.23112,14.1552 -0.0252,7.13053 -0.0914,18.23832 -0.14705,24.68398 l -0.10113,11.7194 -0.68889,1.64206 c -2.80205,6.67905 -12.48543,11.21036 -21.53307,10.07635 z m 19.15286,-26.18603 c -0.2227,-0.4693 -0.63461,-1.06114 -0.91534,-1.31521 -0.28074,-0.25406 -0.51044,-0.68161 -0.51044,-0.95009 0,-0.26849 -0.17381,-0.48816 -0.38624,-0.48816 -0.21243,0 -1.13516,-0.47658 -2.05052,-1.05907 -6.8367,-4.35052 -18.76201,-4.52665 -24.22762,-0.35782 l -0.87064,0.66407 0.17711,2.03005 c 0.0974,1.11653 0.21308,2.07215 0.25705,2.12359 0.044,0.0514 1.18879,-0.27327 2.54405,-0.72159 9.03865,-2.98995 17.70097,-1.75709 25.08598,3.57036 l 0.92604,0.66803 0.18774,-1.65544 c 0.14162,-1.24883 0.0883,-1.86502 -0.21717,-2.50872 z m -7.24661,-19.42221 v -2.64584 h -11.24479 -11.24479 v 2.64584 2.64583 h 11.24479 11.24479 z m -71.801455,-22.2114 c -2.382701,-0.95466 -3.947979,-2.32917 -4.986988,-4.37923 -0.408767,-0.80653 -2.321974,-7.57764 -2.321974,-8.21779 0,-0.72927 -2.216459,-0.47696 -4.834,0.55027 -1.286254,0.50478 -1.68044,0.51155 -1.274038,0.0219 0.369385,-0.44508 2.857958,-1.29551 3.190174,-1.09019 0.129506,0.08 0.301909,0.038 0.383118,-0.0934 0.08121,-0.1314 0.565685,-0.31733 1.076615,-0.41318 1.138682,-0.21362 1.13949,-0.23419 0.155671,-3.96484 -0.987611,-3.745025 -1.167549,-4.931235 -0.946498,-6.239623 0.237344,-1.40483 0.448959,-1.336092 1.158743,0.376388 2.788338,6.727365 15.700155,8.133865 21.681704,2.361811 0.996191,-0.9613 1.408501,-1.597283 1.644408,-2.536475 0.173168,-0.689417 0.420151,-1.188406 0.548852,-1.108864 0.555256,0.343167 0.210849,3.816973 -0.775303,7.819973 -0.555117,2.25333 -0.961914,4.23914 -0.903993,4.4129 0.15175,0.45525 18.602997,0.45373 19.058296,-0.002 0.21132,-0.21132 0.318855,-1.38373 0.321552,-3.50573 0.0046,-3.65109 0.355417,-4.83677 0.615655,-2.08099 0.372397,3.94347 0.233458,6.11839 -0.412956,6.46434 -0.437617,0.23421 -3.017052,0.27515 -10.135878,0.16087 -5.251883,-0.0843 -9.682886,-0.0705 -9.846672,0.0308 -0.163787,0.10122 -0.621338,1.49154 -1.01678,3.08958 -1.195311,4.83044 -2.298836,6.48857 -5.298507,7.96144 -2.048449,1.00581 -5.11136,1.17089 -7.081201,0.38166 z m 87.593515,-13.34186 c -0.24197,-0.63056 0.13765,-18.683743 0.3896,-18.528027 0.12238,0.07563 0.22068,4.208378 0.21845,9.183878 -0.004,8.256669 -0.15183,10.533059 -0.60805,9.344149 z M 98.438949,81.036146 C 98.324722,80.806948 98.265772,79.497261 98.30795,78.125729 l 0.07669,-2.493693 24.34166,-0.08618 c 13.38792,-0.0474 25.23464,0.01043 26.32604,0.128514 l 1.98438,0.214697 -2.77813,0.14292 c -1.52796,0.07861 -13.2192,0.09261 -25.98053,0.03112 L 99.075654,75.95131 98.929073,76.585423 c -0.08062,0.348762 -0.177149,1.586613 -0.214509,2.750779 -0.03998,1.245877 -0.15337,1.945228 -0.275615,1.699944 z"
         id="path36" /><path
         style="fill:#909090"
         d="m 124.3138,188.56307 c -8.22959,-1.027 -14.58726,-5.57862 -16.10967,-11.53332 l -0.35415,-1.38522 -9.627463,-0.19717 c -5.295105,-0.10844 -11.529283,-0.16797 -13.853731,-0.13229 l -4.226268,0.0649 -0.198105,1.16196 c -1.836743,10.77322 -20.269201,15.71922 -32.019571,8.59184 -3.217213,-1.95146 -6.557912,-6.345 -6.557912,-8.62469 0,-0.99118 -0.478186,-1.22776 -2.657656,-1.31486 l -1.972552,-0.0788 v -7.67292 -7.67292 l 4.039368,-0.0731 c 5.224066,-0.0945 5.088756,-0.17055 5.088756,2.8605 0,1.30457 0.06293,2.37194 0.139837,2.37194 0.07691,0 0.845436,-0.35619 1.707835,-0.79152 8.319487,-4.19967 18.039194,-4.11403 25.536703,0.22499 1.876663,1.08608 4.907202,4.06206 5.680893,5.57862 0.79252,1.55347 0.896322,1.35855 0.731765,-1.37407 -0.176796,-2.93587 -0.802437,-4.68247 -2.456256,-6.8571 -0.648052,-0.85213 -1.178277,-1.60753 -1.178277,-1.67867 0,-0.28158 35.951444,-0.13039 36.125924,0.15192 0.0956,0.15469 -0.0119,0.48647 -0.23887,0.73729 -0.82526,0.9119 -1.13914,2.22074 -0.98159,4.09311 l 0.15183,1.80436 1.45521,-1.04155 c 9.92699,-7.10513 25.39717,-5.66525 32.31803,3.00798 1.41039,1.7675 1.62667,1.57611 1.31968,-1.16782 -0.27468,-2.45513 -1.06594,-4.32259 -2.58198,-6.09374 -1.18463,-1.38397 -0.98575,-1.61093 1.41683,-1.61683 2.08397,-0.005 2.06771,-0.0573 1.80398,5.79291 -0.10883,2.41422 -0.15628,4.98481 -0.10544,5.71241 0.41152,5.8894 -0.34265,8.39084 -3.47383,11.52201 -4.26847,4.26848 -11.8228,6.51596 -18.92332,5.62986 z m -19.89428,-29.25656 c -0.11773,-0.1819 -0.27358,-3.30729 -0.34634,-6.94531 l -0.13229,-6.61458 -31.009207,-0.13229 c -20.147889,-0.086 -31.099623,-0.22497 -31.267351,-0.39688 -0.14198,-0.14552 -1.110687,-1.75286 -2.152681,-3.57187 -1.041994,-1.81901 -2.122389,-3.52029 -2.400878,-3.78062 -0.278489,-0.26033 -0.506343,-0.64585 -0.506343,-0.85671 0,-0.21087 -0.595313,-1.42162 -1.322917,-2.69057 l -1.322916,-2.30719 v -4.78903 -4.78903 l 3.723577,-6.40072 c 2.047968,-3.52039 3.836691,-6.40072 3.974941,-6.40072 0.150556,0 0.188812,0.82235 0.09539,2.05052 -0.209907,2.75957 0.280815,20.15296 0.576933,20.44907 0.315294,0.3153 5.616945,0.47546 21.262491,0.64235 7.203282,0.0768 19.132981,0.21574 26.510443,0.30868 l 13.413568,0.16898 0.16311,-0.64986 c 0.0897,-0.35743 0.18532,-2.24879 0.21247,-4.20303 l 0.0494,-3.55316 -2.49922,-0.0768 c -1.42708,-0.0438 -2.661675,-0.21158 -2.877904,-0.39103 -0.432971,-0.35934 -0.306563,-3.47109 0.193788,-4.77038 l 0.285069,-0.74027 26.351947,0.1876 c 22.2876,0.15866 26.38682,0.13119 26.57798,-0.17812 0.44296,-0.71673 0.60473,0.0537 0.62804,2.99082 l 0.0236,2.97815 -2.36747,0.0772 c -2.60629,0.085 -3.13335,0.31816 -2.89209,1.27941 0.089,0.35461 0.0121,0.81202 -0.1744,1.03668 -0.26415,0.31827 -0.29371,2.98949 -0.14189,12.81976 0.13953,9.0341 0.10381,13.39346 -0.1311,15.99868 l -0.32289,3.58096 h -2.37443 c -2.24797,0 -2.45581,-0.0494 -3.90257,-0.92829 -7.58413,-4.60712 -18.12791,-4.70992 -25.29998,-0.24667 l -1.88807,1.17496 h -4.24788 c -3.10775,0 -4.30533,-0.0888 -4.46193,-0.33073 z m 32.46199,-15.9361 c 0,-2.65652 -0.025,-2.77917 -0.59531,-2.91783 -0.32742,-0.0796 -5.47688,-0.11165 -11.44323,-0.0712 l -10.84792,0.0736 -0.0767,2.4937 c -0.0422,1.37153 -0.0161,2.65145 0.0578,2.84427 0.1088,0.28353 2.3119,0.35057 11.51991,0.35057 h 11.38539 z M 66.732699,121.24272 c -2.62589,-0.38942 -5.504513,-2.35916 -6.607561,-4.52131 -0.965483,-1.8925 -4.735292,-16.60951 -4.735292,-18.486167 0,-1.554517 0.366934,-1.676981 0.935015,-0.312062 1.791654,4.304779 9.221703,6.946529 15.424606,5.484229 2.990974,-0.70511 7.979903,-3.32224 7.986097,-4.189406 0.0022,-0.31197 0.130581,-0.745812 0.285227,-0.964094 0.500646,-0.706653 0.08461,2.54561 -0.809844,6.33081 -0.461732,1.95397 -0.785452,3.7594 -0.719378,4.01207 0.07438,0.28444 -0.0579,0.50595 -0.347357,0.58165 -0.353558,0.0925 -0.642163,0.85568 -1.184204,3.13167 -1.624285,6.82025 -4.940493,9.71665 -10.227309,8.93261 z"
         id="path35" /><path
         style="fill:#6e6e6e"
         d="m 125.41951,188.56829 c -0.0906,-0.0905 -0.64089,-0.19856 -1.22295,-0.24002 -7.44591,-0.53036 -14.50742,-5.59659 -15.87041,-11.38612 l -0.3174,-1.34822 -5.60581,-0.17053 c -12.403454,-0.37731 -21.753851,-0.47307 -22.107172,-0.2264 -0.198983,0.13891 -0.401822,0.59409 -0.450754,1.01151 -1.263346,10.77715 -20.561763,16.02212 -32.008921,8.69946 -3.131958,-2.00349 -6.20458,-6.05278 -6.20458,-8.17678 0,-1.24608 -0.82771,-1.74811 -2.882109,-1.74811 -1.487651,0 -1.856279,-0.0847 -2.000133,-0.45958 -0.190478,-0.49638 -0.142768,-11.99639 0.05654,-13.62949 l 0.121092,-0.99218 h 4.072095 c 4.3669,0 4.38308,0.006 3.543917,1.38266 -0.422617,0.69316 -0.528376,1.33465 -0.529167,3.20971 -0.0011,2.68614 -0.09638,2.6448 2.319379,1.00679 10.607037,-7.19214 27.986421,-4.60634 32.449586,4.82801 1.130668,2.39004 1.296775,2.19863 1.152974,-1.32862 -0.144892,-3.554 -0.55139,-4.79966 -2.339453,-7.16897 -0.571849,-0.75774 -1.039725,-1.44235 -1.039725,-1.52136 0,-0.079 7.917656,-0.14364 17.594791,-0.14364 18.41787,0 18.46927,0.003 17.18267,1.07099 -1.06654,0.88515 -1.72596,2.57168 -1.88463,4.82011 -0.2065,2.926 0.018,3.03538 2.14542,1.04527 9.34688,-8.74354 27.90226,-7.0027 33.90791,3.1812 4.34861,7.37403 -3.05388,16.7211 -14.30763,18.06612 -2.06232,0.24649 -5.6131,0.38063 -5.77553,0.21819 z m 20.78856,-23.17636 c -0.1819,-0.40018 -0.43628,-0.99748 -0.56529,-1.32732 -0.12901,-0.32985 -0.72432,-1.21931 -1.32291,-1.97659 -1.42398,-1.80147 -1.39226,-1.92161 0.50745,-1.92161 1.92483,0 1.88646,-0.0714 1.78778,3.32612 -0.0682,2.34646 -0.11162,2.5493 -0.40703,1.8994 z m -41.53958,-6.1945 c -0.25213,-0.10174 -0.33073,-1.6964 -0.33073,-6.71037 0,-4.97099 -0.0808,-6.62919 -0.33073,-6.79097 -0.1819,-0.11773 -14.245938,-0.27359 -31.253419,-0.34635 l -30.922693,-0.13229 -2.180182,-3.79848 c -1.1991,-2.08916 -2.292404,-3.8751 -2.429564,-3.96875 -0.13716,-0.0936 -0.49233,-0.64652 -0.789267,-1.2286 -0.296937,-0.58209 -0.974905,-1.87066 -1.506597,-2.8635 -0.936818,-1.74934 -0.966129,-1.88843 -0.947887,-4.49791 0.04333,-6.19753 -0.03644,-5.93438 3.820619,-12.60466 l 3.436598,-5.94315 0.164662,4.88482 c 0.09056,2.68665 0.186281,7.26607 0.212704,10.17648 0.04531,4.9906 0.318431,9.25066 0.611897,9.54413 0.07236,0.0724 13.949498,0.2063 30.838079,0.29764 l 30.70651,0.16607 0.16471,-0.90288 c 0.0906,-0.49658 0.18891,-2.92694 0.21849,-5.40079 l 0.0538,-4.49792 -2.77812,-0.13229 -2.778129,-0.13229 -0.0786,-1.20679 c -0.04323,-0.66373 0.03984,-1.5183 0.184597,-1.89905 l 0.263198,-0.69226 26.670614,0.14605 26.67061,0.14605 0.23892,1.67711 c 0.34338,2.41038 0.23564,2.49035 -3.35502,2.49035 h -2.91902 l 0.17012,5.4901 c 0.34931,11.27312 0.46201,22.52358 0.25644,25.59844 l -0.21228,3.175 -2.32934,0.0767 c -2.26321,0.0745 -2.3734,0.0499 -3.88133,-0.86613 -7.53495,-4.57724 -18.16693,-4.64897 -25.48157,-0.17191 l -1.78687,1.09368 -4.03023,-0.0209 c -2.21663,-0.0115 -4.17907,-0.0809 -4.36097,-0.15434 z m 32.34531,-15.83206 v -2.91042 l -11.35653,-0.19299 c -8.14209,-0.13836 -11.45597,-0.11047 -11.70782,0.0985 -0.46776,0.38821 -0.49416,5.26969 -0.031,5.73285 0.24289,0.24289 3.07134,0.30362 11.70781,0.25135 l 11.38754,-0.0689 z M 66.328712,121.00475 c -2.191022,-0.44868 -4.745366,-2.21041 -5.88986,-4.06224 -1.065887,-1.72464 -5.260712,-18.141233 -4.857598,-19.010375 l 0.280263,-0.604266 0.29245,0.74251 c 1.948107,4.946111 10.273821,7.261101 17.685789,4.917581 3.637671,-1.15016 4.607013,-0.49086 4.033976,2.74369 -0.758076,4.27901 -2.1973,10.43965 -2.642942,11.31318 -1.405146,2.75431 -5.624332,4.63114 -8.902078,3.95992 z"
         id="path34" /><path
         style="fill:#454545"
         d="m 124.71068,188.29411 c -8.04213,-0.85132 -14.49252,-5.37581 -16.14796,-11.32666 l -0.44162,-1.5875 -6.58802,-0.1958 c -3.623416,-0.10769 -9.978056,-0.16723 -14.121426,-0.13229 l -7.5334,0.0635 -0.20259,1.19062 c -1.602995,9.42084 -16.532594,14.77715 -28.216119,10.12314 -5.286858,-2.10597 -9.217133,-6.17074 -9.713243,-10.04564 -0.171518,-1.33966 -0.216996,-1.36481 -2.629256,-1.45426 l -2.115741,-0.0785 v -7.27604 -7.27604 l 3.425591,-0.0744 c 4.280668,-0.093 4.326986,-0.0771 3.465617,1.19051 -0.631219,0.92892 -1.093226,6.95372 -0.533241,6.95372 0.07714,0 0.895127,-0.64037 1.817745,-1.42305 8.585329,-7.28316 23.362028,-7.09535 30.872018,0.39239 1.965687,1.95986 2.551021,2.97736 3.522861,6.12389 0.602511,1.95075 1.166318,-2.40939 0.738009,-5.70732 -0.318264,-2.45059 -0.972764,-4.11383 -2.306309,-5.86087 -0.504854,-0.66139 -0.917917,-1.26103 -0.917917,-1.33253 0,-0.0715 7.689453,-0.13001 17.087674,-0.13001 9.398217,0 17.047987,0.0893 16.999477,0.19844 -0.0485,0.10914 -0.56444,0.90226 -1.14653,1.76249 l -1.05833,1.56406 v 2.93386 c 0,3.35097 0.12464,3.49417 1.55313,1.78438 8.46113,-10.12732 29.40544,-8.80191 34.888,2.20781 4.60112,9.23967 -6.85567,18.87744 -20.69842,17.41208 z m 21.31215,-24.11738 c -0.0851,-0.26817 -0.62892,-1.12311 -1.20845,-1.89987 -1.33385,-1.78776 -1.32538,-1.84587 0.26921,-1.84587 h 1.32292 v 2.11667 c 0,2.12537 -0.0963,2.53441 -0.38368,1.62907 z m -41.29527,-5.39938 c -0.0675,-0.1819 -0.15307,-3.24776 -0.19013,-6.81302 l -0.0674,-6.4823 -1.98437,-0.16385 c -1.09141,-0.0901 -15.102909,-0.17942 -31.136672,-0.19844 l -29.152295,-0.0346 -0.501639,-0.7276 c -0.275901,-0.40019 -1.31283,-2.15636 -2.304286,-3.90261 -0.991456,-1.74625 -1.964451,-3.27021 -2.162211,-3.38658 -0.19776,-0.11637 -0.359564,-0.30568 -0.359564,-0.42069 0,-0.11501 -0.59504,-1.26995 -1.322312,-2.56654 l -1.322313,-2.35744 0.01799,-3.175 c 0.0099,-1.74625 0.09892,-3.36827 0.197834,-3.60448 0.374453,-0.89424 6.315365,-5.4289 6.660908,-5.08423 0.07343,0.0733 0.196471,3.63492 0.273415,7.91483 0.114625,6.37584 0.210223,7.84788 0.529167,8.14822 0.469883,0.44248 61.215268,0.88508 61.888798,0.45093 0.66788,-0.43051 1.1967,-10.90795 0.59809,-11.8499 -0.13133,-0.20665 -1.14,-0.3476 -2.84022,-0.39687 -2.881472,-0.0835 -3.08553,-0.23389 -2.653456,-1.95541 l 0.159261,-0.63455 h 26.580545 26.58054 l 0.15683,0.62485 c 0.0863,0.34367 0.11829,1.02828 0.0712,1.52135 l -0.0856,0.89651 -3.04271,0.013 -3.04271,0.013 v 17.18497 17.18496 l -2.17965,0.0768 c -2.13181,0.0751 -2.21813,0.0536 -3.93286,-0.98062 -7.46238,-4.50077 -17.98261,-4.50964 -25.5372,-0.0215 l -1.7803,1.05766 h -3.99695 c -2.95569,0 -4.02892,-0.0862 -4.1197,-0.33073 z m 32.39537,-12.47366 c 0.2016,-0.24291 0.28046,-1.35023 0.23084,-3.24114 l -0.0754,-2.87218 -11.60556,-0.20591 c -8.62691,-0.15306 -11.69971,-0.12777 -11.9724,0.0985 -0.60103,0.49882 -0.51792,5.9462 0.0962,6.30388 0.78293,0.45602 22.9444,0.37699 23.32631,-0.0832 z M 66.609955,120.73466 c -4.351672,-0.85988 -5.896572,-2.70523 -7.664683,-9.15531 -3.642858,-13.28918 -3.817676,-14.246711 -2.205316,-12.079166 2.898916,3.897106 9.492825,5.786686 15.056426,4.314656 3.676638,-0.97278 3.50302,-0.98142 4.332454,0.21546 l 0.733759,1.05881 -0.955379,5.89922 c -0.580316,3.58331 -1.137812,6.21466 -1.420082,6.70272 -1.193471,2.06355 -5.133221,3.58581 -7.877179,3.04361 z"
         id="path33" /><path
         style="fill:#3e3e3e"
         d="m 41.434014,168.69922 c 0.141824,-2.54013 0.628707,-4.35692 1.004616,-3.74868 0.249636,0.40392 0.01912,4.38938 -0.316292,5.46847 -0.533338,1.71587 -0.83769,0.95544 -0.688324,-1.71979 z m 99.019376,-11.04244 c -1.01865,-0.64942 -1.98722,-1.18387 -2.15239,-1.18765 -0.40736,-0.009 -1.04658,-1.02804 -1.26281,-2.0125 -0.21474,-0.97773 0.75133,-2.48388 1.26422,-1.97099 0.21624,0.21624 0.19969,0.35305 -0.0623,0.51496 -0.48133,0.29748 4.7e-4,0.56142 0.69385,0.3801 0.76957,-0.20125 0.93518,-0.80312 0.33639,-1.22253 -0.27467,-0.19239 -0.58743,-0.70048 -0.695,-1.1291 -0.10758,-0.42861 -0.35821,-0.94192 -0.55697,-1.14068 -0.29535,-0.29534 -0.29928,-0.4365 -0.0215,-0.7725 0.18692,-0.22611 0.33986,-0.71951 0.33986,-1.09644 0,-0.55229 0.14238,-0.70169 0.73339,-0.76961 1.2155,-0.13968 2.14598,-2.69385 0.98136,-2.69385 -0.5097,0 -0.24874,-0.73485 0.31314,-0.88179 0.48675,-0.12729 0.52097,-0.21205 0.22806,-0.56499 -0.4991,-0.60139 0.36672,-1.56545 1.06859,-1.18982 0.31385,0.16797 0.53652,0.16502 0.64377,-0.009 0.0902,-0.14592 -0.0217,-0.2653 -0.24853,-0.2653 -0.53677,0 -0.54804,-1.14563 -0.0156,-1.5875 0.48184,-0.3999 0.49907,-0.97322 0.0556,-1.84981 -0.47582,-0.94048 -0.006,-2.38353 0.77649,-2.38353 0.74726,0 0.76916,-2.04115 0.0278,-2.59469 -0.25466,-0.19015 -0.46302,-0.55329 -0.46302,-0.80698 0,-0.25368 -0.14287,-0.60412 -0.3175,-0.77874 -0.24694,-0.24695 -0.24582,-0.3175 0.005,-0.3175 0.21161,0 0.26566,-0.22666 0.15715,-0.659 -0.18961,-0.75544 0.26194,-1.03434 1.67465,-1.03434 1.00393,0 1.03495,-0.0566 0.35396,-0.6455 -0.70289,-0.60786 -1.05615,-2.30825 -0.42961,-2.06782 0.34431,0.13212 0.42578,0.0411 0.36048,-0.40257 -0.10711,-0.72772 -0.66194,-0.92851 -0.82521,-0.29864 -0.0815,0.31437 -0.13432,0.23119 -0.15452,-0.24333 -0.028,-0.65776 0.0361,-0.70763 0.73097,-0.56866 0.4331,0.0866 0.83931,0.0267 0.94166,-0.1389 0.88363,-1.42974 0.9296,-0.61464 0.93858,16.64209 l 0.009,16.93333 -1.78837,-0.003 c -1.66196,-0.003 -1.9193,-0.0864 -3.64046,-1.18374 z M 83.997417,144.69981 c 0.06642,-0.0664 2.1985,-0.19616 4.737953,-0.2883 2.539453,-0.0922 4.686663,-0.21048 4.771579,-0.26296 0.08491,-0.0525 2.395244,-0.16975 5.134064,-0.2606 4.980327,-0.16519 5.410937,-0.10695 5.428117,0.73419 0.002,0.10914 -4.54017,0.19844 -10.094215,0.19844 -5.554045,0 -10.043919,-0.0543 -9.977498,-0.12077 z m -44.423339,-4.8236 c -0.904797,-1.58077 -1.883581,-3.07833 -2.175075,-3.32791 -0.291495,-0.24959 -0.52999,-0.62363 -0.52999,-0.83121 0,-0.20758 -0.0992,-0.4171 -0.220438,-0.46561 -1.115525,-0.44631 -2.160764,-3.64034 -2.158498,-6.59591 l 0.0023,-3.01728 1.51904,-0.97592 c 1.654871,-1.06318 4.233442,-2.32468 4.760186,-2.32879 0.655405,-0.005 0.342204,11.45122 -0.331479,12.1249 -0.07112,0.0711 -0.438786,-0.0117 -0.81704,-0.18405 l -0.687734,-0.31335 0.560443,0.90681 c 0.487382,0.78861 0.510853,0.95641 0.180043,1.28722 -0.394711,0.39471 0.245638,2.91411 1.314466,5.17166 0.996844,2.10551 0.08407,1.17061 -1.416238,-1.45056 z m 83.932012,-0.58929 c 0.0823,-0.13309 0.0123,-0.28772 -0.15535,-0.34362 -0.17945,-0.0598 0.0387,-0.49293 0.53007,-1.05262 0.52449,-0.59736 0.77403,-1.10984 0.67106,-1.37817 -0.2956,-0.77032 0.1406,-2.33887 0.60125,-2.1621 0.3375,0.12951 0.37241,0.0279 0.19706,-0.5732 -0.23447,-0.80378 -0.28091,-2.10457 -0.0964,-2.70026 0.079,-0.25512 -0.1455,-0.43468 -0.67538,-0.54014 -0.77696,-0.15463 -0.78152,-0.16474 -0.21583,-0.47773 0.31785,-0.17586 0.82387,-0.31975 1.12447,-0.31975 0.60045,0 0.74173,-0.39766 0.21332,-0.60043 -0.46962,-0.18021 -1.08408,-2.586 -0.74667,-2.92341 0.17526,-0.17526 0.39298,-0.15647 0.64899,0.056 0.31009,0.25734 0.48885,0.20853 0.91619,-0.25016 0.56792,-0.60959 1.18094,-0.69347 5.73244,-0.78442 1.30969,-0.0262 2.60538,0.0425 2.87932,0.15251 0.27394,0.11005 0.70131,0.0732 0.94972,-0.082 0.95794,-0.59824 1.03858,-0.0996 1.08158,6.68841 0.023,3.63385 0.0289,6.81537 0.013,7.07003 -0.0267,0.42839 -0.54453,0.46302 -6.92362,0.46302 -4.09989,0 -6.83415,-0.0981 -6.74522,-0.24199 z M 70.59245,119.37554 c 0.296044,-1.28483 1.000396,-5.40116 1.010945,-5.90809 0.0061,-0.29104 0.181149,-1.30307 0.389096,-2.24896 0.587708,-2.6733 0.819549,-4.24887 0.84054,-5.71221 0.02827,-1.97083 0.950579,-2.38911 2.125377,-0.96387 0.978956,1.18764 0.979316,0.71553 -0.0057,7.54027 -0.852943,5.90942 -0.923786,6.11087 -2.479788,7.05169 -1.454881,0.87967 -2.044987,0.95536 -1.880429,0.24117 z m -10.025837,-3.70899 c -0.212537,-0.50867 -0.818,-2.63859 -1.345475,-4.73316 -0.527475,-2.09456 -1.049052,-3.86955 -1.15906,-3.94441 -0.168866,-0.11491 -1.403228,-4.59419 -2.006124,-7.279861 -0.169137,-0.75344 -0.133469,-0.734719 0.702332,0.368631 1.387639,1.83183 1.533733,2.18563 1.541217,3.73241 0.0039,0.80036 0.189078,2.11005 0.411569,2.91042 0.929592,3.34401 2.450675,9.66212 2.350316,9.76248 -0.05959,0.0596 -0.282239,-0.30784 -0.494775,-0.81651 z"
         id="path32" /></g></g></svg>
