# Blender v2.79 (sub 0) OBJ File: 'deatchase.blend'
# www.blender.org
mtllib tree.mtl
o Tree2_Cylinder.001
v 5.824536 5.481064 0.045541
v 5.617809 5.481064 0.164894
v 5.265003 6.134296 -0.038797
v 5.824536 6.134296 -0.361844
v 5.265003 6.134296 0.607295
v 5.378686 8.453269 0.541660
v 5.378686 8.453269 0.026837
v 5.617809 5.481064 0.403602
v 5.824536 5.481064 0.522956
v 5.824536 6.134296 0.930341
v 6.031262 5.481064 0.403602
v 6.031262 5.481064 0.164894
v 6.384068 6.134296 -0.038798
v 6.384068 6.134296 0.607295
v 5.824536 8.453269 -0.230574
v 5.615124 9.759734 0.163345
v 5.824536 9.759734 0.042441
v 6.270386 8.453269 0.541660
v 5.824536 8.453269 0.799072
v 6.270386 8.453269 0.026837
v 6.033947 9.759734 0.163345
v 5.615124 9.759734 0.405153
v 5.824536 9.759734 0.526057
v 6.033947 9.759734 0.405153
v 5.824536 0.000000 -0.044746
v 6.109453 0.000000 0.119751
v 6.109453 0.000000 0.448746
v 5.824536 0.000000 0.613243
v 5.539618 0.000000 0.448746
v 5.539618 0.000000 0.119751
v 5.604502 2.740532 0.157211
v 5.824536 2.740532 0.538321
v 5.824536 2.740532 0.030175
v 5.604502 2.740532 0.411285
v 6.044569 2.740532 0.157211
v 6.044569 2.740532 0.411285
vt 0.062500 0.187500
vt 0.437500 0.187500
vt 0.468750 0.937500
vt 0.031250 0.937500
vt 0.000000 -0.000000
vt 0.500000 0.000000
vt 0.500000 1.000000
vt -0.000000 1.000000
vt 0.062500 0.812500
vt 0.062500 0.562500
vt 0.437500 0.437500
vt 0.437500 0.875000
vt 0.062500 0.500000
vt 0.437500 0.500000
vt 0.500000 1.000000
vt 0.000000 1.000000
vt 0.093750 0.500000
vt 0.406250 0.500000
vt 0.437500 1.000000
vt 0.031250 1.000000
vt 0.062500 0.187500
vt 0.437500 0.187500
vt 0.468750 0.937500
vt 0.031250 0.937500
vt 0.062500 0.937500
vt 0.125000 0.437500
vt 0.375000 0.437500
vt 0.437500 0.937500
vt 0.031250 0.312500
vt 0.468750 0.312500
vt 0.406250 0.937500
vt 0.062500 0.937500
vt -0.000000 1.000000
vt 0.000000 0.000000
vt 0.500000 0.000000
vt 0.500000 1.000000
vt 0.000000 -0.000000
vt 0.500000 -0.000000
vt 0.500000 1.000000
vt -0.000000 1.000000
vt -0.000000 0.000000
vt 0.500000 -0.000000
vt 0.500000 1.000000
vt 0.000000 1.000000
vt -0.000000 1.000000
vt -0.000000 -0.000000
vt 0.500000 -0.000000
vt 0.500000 0.000000
vt 0.500000 1.000000
vt 0.000000 1.000000
vt 0.406250 0.687500
vt 0.218750 0.937500
vt 0.031250 0.687500
vt 0.031250 0.375000
vt 0.218750 0.125000
vt 0.406250 0.375000
vt 0.000000 0.312500
vt 0.500000 0.312500
vt 0.375000 0.812500
vt 0.125000 0.812500
vt 0.031250 0.125000
vt 0.468750 0.125000
vt 0.375000 0.937500
vt 0.125000 0.937500
vt 0.031250 0.187500
vt 0.437500 0.187500
vt 0.343750 0.937500
vt 0.156250 0.937500
vt 0.031250 0.125000
vt 0.437500 0.125000
vt 0.343750 0.937500
vt 0.156250 0.937500
vt 0.031250 0.250000
vt 0.500000 0.250000
vt 0.375000 0.875000
vt 0.125000 0.875000
vt 1.000000 0.000000
vt 1.000000 1.000000
vt 0.500000 1.000000
vt 0.500000 0.000000
vt 1.000000 0.000000
vt 1.000000 1.000000
vt 0.500000 1.000000
vt 0.500000 0.000000
vt 1.000000 1.000000
vt 1.000000 0.000000
vt 0.500000 1.000000
vt 0.500000 0.000000
vt 1.000000 -0.000000
vt 1.000000 1.000000
vt 0.500000 1.000000
vt 0.500000 -0.000000
vt 1.000000 0.000000
vt 1.000000 1.000000
vt 0.500000 1.000000
vt 0.500000 0.000000
vt 1.000000 -0.000000
vt 1.000000 1.000000
vt 0.500000 1.000000
vt 0.500000 0.000000
vt 1.000000 -0.000000
vt 1.000000 1.000000
vt 0.500000 1.000000
vt 0.500000 0.000000
vt 1.000000 -0.000000
vt 1.000000 1.000000
vt 0.500000 1.000000
vt 0.500000 -0.000000
vt 0.500000 0.000000
vt 0.500000 1.000000
vt 1.000000 0.000000
vt 1.000000 1.000000
vt 1.000000 0.000000
vt 1.000000 1.000000
vt 0.500000 1.000000
vt 0.500000 0.000000
vn -0.4399 -0.4752 -0.7620
vn -0.9988 0.0490 0.0000
vn -0.4399 -0.4752 0.7620
vn 0.8799 -0.4752 0.0000
vn -0.8799 -0.4752 0.0000
vn 0.4399 -0.4752 -0.7620
vn 0.4399 -0.4752 0.7620
vn -0.4920 0.1781 -0.8522
vn 0.4994 0.0490 0.8650
vn 0.4994 0.0490 -0.8650
vn -0.4994 0.0490 -0.8650
vn -0.4994 0.0490 0.8650
vn 0.9988 0.0490 0.0000
vn 0.0000 1.0000 0.0000
vn -0.4920 0.1781 0.8522
vn 0.9840 0.1781 0.0000
vn -0.9840 0.1781 0.0000
vn 0.4920 0.1781 0.8522
vn 0.4920 0.1781 -0.8522
vn 0.4999 0.0143 -0.8659
vn 0.5000 0.0049 -0.8660
vn 0.9999 0.0143 0.0000
vn 1.0000 0.0049 0.0000
vn 0.4999 0.0143 0.8659
vn 0.5000 0.0049 0.8660
vn -0.4999 0.0143 0.8659
vn -0.5000 0.0049 0.8660
vn -0.9999 0.0143 0.0000
vn -1.0000 0.0049 0.0000
vn -0.4999 0.0143 -0.8659
vn -0.5000 0.0049 -0.8660
vn -0.4999 0.0237 -0.8658
vn -0.9997 0.0237 0.0000
vn -0.4999 0.0237 0.8658
vn 0.4999 0.0237 0.8658
vn 0.9997 0.0237 0.0000
vn 0.4999 0.0237 -0.8658
usemtl White
s 1
f 1/1/1 2/2/1 3/3/1 4/4/1
f 3/5/2 5/6/2 6/7/2 7/8/2
f 8/9/3 9/10/3 10/11/3 5/12/3
f 11/13/4 12/14/4 13/15/4 14/16/4
f 2/17/5 8/18/5 5/19/5 3/20/5
f 12/21/6 1/22/6 4/23/6 13/24/6
f 9/25/7 11/26/7 14/27/7 10/28/7
f 15/29/8 7/30/8 16/31/8 17/32/8
f 10/33/9 14/34/9 18/35/9 19/36/9
f 13/37/10 4/38/10 15/39/10 20/40/10
f 4/41/11 3/42/11 7/43/11 15/44/11
f 5/45/12 10/46/12 19/47/12 6/7/12
f 14/34/13 13/48/13 20/49/13 18/50/13
f 21/51/14 17/52/14 16/53/14 22/54/14 23/55/14 24/56/14
f 6/57/15 19/58/15 23/59/15 22/60/15
f 18/61/16 20/62/16 21/63/16 24/64/16
f 7/65/17 6/66/17 22/67/17 16/68/17
f 19/69/18 18/70/18 24/71/18 23/72/18
f 20/73/19 15/74/19 17/75/19 21/76/19
f 33/77/20 1/78/21 12/79/21 35/80/20
f 35/81/22 12/82/23 11/83/23 36/84/22
f 36/84/24 11/83/25 9/85/25 32/86/24
f 32/86/26 9/85/27 8/87/27 34/88/26
f 34/89/28 8/90/29 2/91/29 31/92/28
f 31/93/30 2/94/31 1/95/31 33/96/30
f 30/97/32 31/98/30 33/99/30 25/100/32
f 29/101/33 34/102/28 31/103/28 30/104/33
f 28/105/34 32/106/26 34/107/26 29/108/34
f 27/109/35 36/110/24 32/106/24 28/105/35
f 26/111/36 35/112/22 36/110/22 27/109/36
f 25/113/37 33/114/20 35/115/20 26/116/37
