<?xml version="1.0" encoding="UTF-8" standalone="no"?>
<!-- Created with Inkscape (http://www.inkscape.org/) -->

<svg
   width="37.602509mm"
   height="39.925892mm"
   viewBox="0 0 37.602509 39.925892"
   version="1.1"
   id="svg39802"
   inkscape:version="1.2.2 (732a01da63, 2022-12-09)"
   sodipodi:docname="boy_run1.svg"
   xmlns:inkscape="http://www.inkscape.org/namespaces/inkscape"
   xmlns:sodipodi="http://sodipodi.sourceforge.net/DTD/sodipodi-0.dtd"
   xmlns="http://www.w3.org/2000/svg"
   xmlns:svg="http://www.w3.org/2000/svg">
  <sodipodi:namedview
     id="namedview39804"
     pagecolor="#ffffff"
     bordercolor="#000000"
     borderopacity="0.25"
     inkscape:showpageshadow="2"
     inkscape:pageopacity="0.0"
     inkscape:pagecheckerboard="0"
     inkscape:deskcolor="#d1d1d1"
     inkscape:document-units="mm"
     showgrid="false"
     inkscape:zoom="0.73049944"
     inkscape:cx="83.504513"
     inkscape:cy="-134.15479"
     inkscape:window-width="2880"
     inkscape:window-height="1514"
     inkscape:window-x="2869"
     inkscape:window-y="-11"
     inkscape:window-maximized="1"
     inkscape:current-layer="layer1" />
  <defs
     id="defs39799" />
  <g
     inkscape:label="Layer 1"
     inkscape:groupmode="layer"
     id="layer1"
     transform="translate(-82.975576,-183.95291)">
    <g
       id="g19421"
       transform="translate(21.289644,128.54464)">
      <path
         id="path16431"
         style="fill:#ea9e22;stroke:#000000;stroke-width:0.501097"
         d="m 91.577825,80.2303 c 0.143881,-1.735158 -0.294573,-3.458144 -0.176619,-5.237489 L 98.422605,74.769 c 0.485607,2.123388 1.176744,2.787428 -0.168783,5.693062 -1.947879,0.296241 0.697671,-0.03475 -6.675997,-0.231762 z"
         sodipodi:nodetypes="ccccc" />
      <path
         id="path16433"
         style="fill:#008000;stroke:#000000;stroke-width:0.501097"
         d="m 82.715972,73.731424 1.86661,7.202266 7.087142,-0.862049 -0.02487,-5.154231 C 86.061965,74.083991 86.9712,74.9649 82.715972,73.731424 Z"
         sodipodi:nodetypes="ccccc" />
      <path
         id="path16435"
         style="fill:#ff2a2a;stroke:#000000;stroke-width:0.700739;stroke-dasharray:none;stroke-opacity:1"
         d="m 74.02495,71.458471 9.694577,1.143866 c 0.02899,5.558971 0.269466,8.09805 8.291735,12.402364 l 0.49776,5.419047 c -3.909969,-0.657574 -18.598904,-3.258794 -20.681826,0.663581 -3.684154,0.781196 -5.622177,-0.696162 -5.376263,-4.706033 2.445805,-5.983763 5.756021,-7.923527 7.574017,-14.922825 z"
         sodipodi:nodetypes="ccccccc" />
      <ellipse
         style="fill:#ea9e22;fill-opacity:1;stroke:#000000;stroke-width:0.499102;stroke-dasharray:none;stroke-opacity:1"
         id="ellipse16437"
         cx="80.226234"
         cy="66.062645"
         rx="12.767761"
         ry="7.5785666" />
      <path
         id="path16439"
         style="fill:#333333;stroke:#000000;stroke-width:0.501097"
         d="M 92.030368,91.011527 C 92.950473,82.152561 87.874731,77.853915 97.60117,78.718199 l -0.706548,12.566813 z"
         sodipodi:nodetypes="cccc" />
      <path
         id="path16441"
         style="fill:#aa4400;stroke:#000000;stroke-width:0.800559;stroke-dasharray:none"
         d="m 71.397466,56.58943 c 6.112043,-1.201576 12.00961,-0.80045 17.883922,-0.225552 2.110171,1.311786 3.948242,2.7039 2.852373,4.962157 L 77.396932,59.045102 C 76.828233,67.813081 72.476884,70.272342 66.371858,69.806811 66.80533,64.883643 64.80038,58.944493 71.397466,56.58943 Z"
         sodipodi:nodetypes="cccccc" />
      <g
         id="g16451"
         transform="matrix(1.00003,0,0,0.99638036,49.800935,18.6966)">
        <ellipse
           style="fill:#ffffff;fill-opacity:1;stroke:#000000;stroke-width:0.502017;stroke-dasharray:none;stroke-opacity:1"
           id="ellipse16443"
           cx="32.175209"
           cy="44.197781"
           rx="2.4315548"
           ry="3.6540506"
           transform="matrix(0.99976758,0.02155879,-0.03329804,0.99944547,0,0)" />
        <ellipse
           style="fill:#1a1a1a;fill-opacity:1;stroke:none;stroke-width:0.238158;stroke-dasharray:none;stroke-opacity:1"
           id="ellipse16445"
           cx="32.995094"
           cy="44.29147"
           rx="1.2065431"
           ry="1.6573262"
           transform="matrix(0.99980586,0.01970387,-0.03643012,0.9993362,0,0)" />
        <ellipse
           style="fill:#ffffff;fill-opacity:1;stroke:none;stroke-width:0.113013;stroke-dasharray:none;stroke-opacity:1"
           id="ellipse16447"
           cx="32.772541"
           cy="43.815571"
           rx="0.48300949"
           ry="0.93222374"
           transform="matrix(0.99961643,0.02769448,-0.02592263,0.99966395,0,0)" />
        <path
           id="path16449"
           style="fill:#000000;stroke-width:0.501999"
           d="m 27.889023,39.999925 c 1.915941,-0.353072 3.44838,-1.952523 5.795122,-0.905488 v 1.743064 c -1.939253,-1.805309 -3.878506,-0.18147 -5.817759,0 z"
           sodipodi:nodetypes="ccccc" />
      </g>
      <g
         id="g16461"
         transform="matrix(1.00003,0,0,0.99638036,56.003713,18.538713)">
        <ellipse
           style="fill:#ffffff;fill-opacity:1;stroke:#000000;stroke-width:0.502017;stroke-dasharray:none;stroke-opacity:1"
           id="ellipse16453"
           cx="32.175209"
           cy="44.197781"
           rx="2.4315548"
           ry="3.6540506"
           transform="matrix(0.99976758,0.02155879,-0.03329804,0.99944547,0,0)" />
        <ellipse
           style="fill:#1a1a1a;fill-opacity:1;stroke:none;stroke-width:0.238158;stroke-dasharray:none;stroke-opacity:1"
           id="ellipse16455"
           cx="32.995094"
           cy="44.29147"
           rx="1.2065431"
           ry="1.6573262"
           transform="matrix(0.99980586,0.01970387,-0.03643012,0.9993362,0,0)" />
        <ellipse
           style="fill:#ffffff;fill-opacity:1;stroke:none;stroke-width:0.113013;stroke-dasharray:none;stroke-opacity:1"
           id="ellipse16457"
           cx="32.772541"
           cy="43.815571"
           rx="0.48300949"
           ry="0.93222374"
           transform="matrix(0.99961643,0.02769448,-0.02592263,0.99966395,0,0)" />
        <path
           id="path16459"
           style="fill:#000000;stroke-width:0.501999"
           d="m 27.889023,39.999925 c 1.915941,-0.353072 3.44838,-1.952523 5.795122,-0.905488 v 1.743064 c -1.939253,-1.805309 -3.878506,-0.18147 -5.817759,0 z"
           sodipodi:nodetypes="ccccc" />
      </g>
      <ellipse
         style="fill:#ea9e22;fill-opacity:1;stroke:#000000;stroke-width:0.404632;stroke-opacity:1"
         id="ellipse16463"
         cx="-42.285542"
         cy="102.48776"
         rx="2.913316"
         ry="5.457531"
         transform="matrix(0.24987694,-0.9682776,0.96871678,0.24816891,0,0)" />
      <ellipse
         style="fill:#000000;fill-opacity:1;stroke:none;stroke-width:0.253979;stroke-opacity:1"
         id="ellipse16465"
         cx="-69.844826"
         cy="83.886505"
         rx="1.717274"
         ry="3.6477044"
         transform="matrix(0.00604395,-0.99998174,0.99998909,0.00467082,0,0)" />
      <path
         id="path16467"
         style="fill:#333333;stroke:#000000;stroke-width:0.501097"
         d="m 66.226091,86.095763 c 5.616341,7.78995 13.784389,1.964485 7.323317,8.986962 l -6.102253,-0.04903 -4.378879,-5.22795 z"
         sodipodi:nodetypes="ccccc" />
      <path
         id="path16469"
         style="fill:#ea9e22;stroke:#000000;stroke-width:0.501097"
         d="m 67.205174,75.504013 3.377681,5.296451 -5.245702,3.634912 c -1.979387,-0.909185 -3.191285,-2.27749 -3.389178,-4.252388 z"
         sodipodi:nodetypes="ccccc" />
      <path
         id="path16471"
         style="fill:#008000;stroke:#000000;stroke-width:0.501097"
         d="m 75.019527,73.37054 c 0.02275,2.14897 -1.037481,5.254513 -5.229168,7.828859 l -3.155478,-5.298292 c 2.797686,-3.298484 0.992064,-1.617232 8.384646,-2.530567 z"
         sodipodi:nodetypes="cccc" />
    </g>
  </g>
</svg>
