<?xml version="1.0" encoding="UTF-8" standalone="no"?>
<!-- Created with Inkscape (http://www.inkscape.org/) -->

<svg
   width="36.622375mm"
   height="38.461868mm"
   viewBox="0 0 36.622375 38.461868"
   version="1.1"
   id="svg40805"
   inkscape:version="1.2.2 (732a01da63, 2022-12-09)"
   sodipodi:docname="boy_run2.svg"
   xmlns:inkscape="http://www.inkscape.org/namespaces/inkscape"
   xmlns:sodipodi="http://sodipodi.sourceforge.net/DTD/sodipodi-0.dtd"
   xmlns="http://www.w3.org/2000/svg"
   xmlns:svg="http://www.w3.org/2000/svg">
  <sodipodi:namedview
     id="namedview40807"
     pagecolor="#ffffff"
     bordercolor="#000000"
     borderopacity="0.25"
     inkscape:showpageshadow="2"
     inkscape:pageopacity="0.0"
     inkscape:pagecheckerboard="0"
     inkscape:deskcolor="#d1d1d1"
     inkscape:document-units="mm"
     showgrid="false"
     inkscape:zoom="0.73049944"
     inkscape:cx="136.89264"
     inkscape:cy="175.22258"
     inkscape:window-width="2880"
     inkscape:window-height="1514"
     inkscape:window-x="2869"
     inkscape:window-y="-11"
     inkscape:window-maximized="1"
     inkscape:current-layer="layer1" />
  <defs
     id="defs40802" />
  <g
     inkscape:label="Layer 1"
     inkscape:groupmode="layer"
     id="layer1"
     transform="translate(-68.977837,-102.10443)">
    <g
       id="g21687"
       transform="translate(-88.237169,56.526266)">
      <path
         id="path20149"
         style="fill:#ea9e22;stroke:#000000;stroke-width:0.501097"
         d="m 181.03072,70.482546 8.28546,-1.443537 -0.27166,6.044808 c -1.9837,0.899728 -2.86064,1.685709 -5.9764,0.947322 z"
         sodipodi:nodetypes="ccccc" />
      <path
         id="path20151"
         style="fill:#008000;stroke:#000000;stroke-width:0.501097"
         d="m 178.22319,62.54309 2.80709,9.157434 8.33074,-1.984862 c -0.49269,-8.324655 -3.74525,-6.259237 -11.13783,-7.172572 z"
         sodipodi:nodetypes="cccc" />
      <path
         id="path20153"
         style="fill:#ff2a2a;stroke:#000000;stroke-width:0.700739;stroke-dasharray:none;stroke-opacity:1"
         d="m 172.0192,61.773064 7.20754,-0.359061 c 0.75458,4.797703 1.1854,12.163308 2.93593,17.186628 l -8.95098,0.452744 c -2.30378,-4.187922 -6.06067,2.085403 -8.74588,0.814939 0.96384,-3.440854 0.77186,-2.982783 3.07262,-6.293141 2.44581,-5.983763 5.19814,-5.255555 4.48077,-11.802109 z"
         sodipodi:nodetypes="ccccccc" />
      <ellipse
         style="fill:#ea9e22;fill-opacity:1;stroke:#000000;stroke-width:0.499102;stroke-dasharray:none;stroke-opacity:1"
         id="ellipse20155"
         cx="179.80814"
         cy="56.23254"
         rx="12.767761"
         ry="7.5785666" />
      <path
         id="path20157"
         style="fill:#333333;stroke:#000000;stroke-width:0.501097"
         d="m 172.74541,78.91755 c 8.89665,0.421359 12.90359,-4.887683 12.58666,4.871936 h -12.58666 z"
         sodipodi:nodetypes="cccc" />
      <path
         id="path20159"
         style="fill:#aa4400;stroke:#000000;stroke-width:0.800559;stroke-dasharray:none"
         d="m 170.97938,46.759328 c 6.11204,-1.201575 12.00961,-0.80045 17.88392,-0.225552 2.11017,1.311786 3.94824,2.7039 2.85238,4.962157 L 176.97885,49.215 c -0.5687,8.767979 -4.92005,11.22724 -11.02508,10.761709 0.43348,-4.923168 -1.57148,-10.862318 5.02561,-13.217381 z"
         sodipodi:nodetypes="cccccc" />
      <g
         id="g20169"
         transform="matrix(1.00003,0,0,0.99638036,149.38285,8.8664978)">
        <ellipse
           style="fill:#ffffff;fill-opacity:1;stroke:#000000;stroke-width:0.502017;stroke-dasharray:none;stroke-opacity:1"
           id="ellipse20161"
           cx="32.175209"
           cy="44.197781"
           rx="2.4315548"
           ry="3.6540506"
           transform="matrix(0.99976758,0.02155879,-0.03329804,0.99944547,0,0)" />
        <ellipse
           style="fill:#1a1a1a;fill-opacity:1;stroke:none;stroke-width:0.238158;stroke-dasharray:none;stroke-opacity:1"
           id="ellipse20163"
           cx="32.995094"
           cy="44.29147"
           rx="1.2065431"
           ry="1.6573262"
           transform="matrix(0.99980586,0.01970387,-0.03643012,0.9993362,0,0)" />
        <ellipse
           style="fill:#ffffff;fill-opacity:1;stroke:none;stroke-width:0.113013;stroke-dasharray:none;stroke-opacity:1"
           id="ellipse20165"
           cx="32.772541"
           cy="43.815571"
           rx="0.48300949"
           ry="0.93222374"
           transform="matrix(0.99961643,0.02769448,-0.02592263,0.99966395,0,0)" />
        <path
           id="path20167"
           style="fill:#000000;stroke-width:0.501999"
           d="m 27.889023,39.999925 c 1.915941,-0.353072 3.44838,-1.952523 5.795122,-0.905488 v 1.743064 c -1.939253,-1.805309 -3.878506,-0.18147 -5.817759,0 z"
           sodipodi:nodetypes="ccccc" />
      </g>
      <g
         id="g20179"
         transform="matrix(1.00003,0,0,0.99638036,155.58563,8.708611)">
        <ellipse
           style="fill:#ffffff;fill-opacity:1;stroke:#000000;stroke-width:0.502017;stroke-dasharray:none;stroke-opacity:1"
           id="ellipse20171"
           cx="32.175209"
           cy="44.197781"
           rx="2.4315548"
           ry="3.6540506"
           transform="matrix(0.99976758,0.02155879,-0.03329804,0.99944547,0,0)" />
        <ellipse
           style="fill:#1a1a1a;fill-opacity:1;stroke:none;stroke-width:0.238158;stroke-dasharray:none;stroke-opacity:1"
           id="ellipse20173"
           cx="32.995094"
           cy="44.29147"
           rx="1.2065431"
           ry="1.6573262"
           transform="matrix(0.99980586,0.01970387,-0.03643012,0.9993362,0,0)" />
        <ellipse
           style="fill:#ffffff;fill-opacity:1;stroke:none;stroke-width:0.113013;stroke-dasharray:none;stroke-opacity:1"
           id="ellipse20175"
           cx="32.772541"
           cy="43.815571"
           rx="0.48300949"
           ry="0.93222374"
           transform="matrix(0.99961643,0.02769448,-0.02592263,0.99966395,0,0)" />
        <path
           id="path20177"
           style="fill:#000000;stroke-width:0.501999"
           d="m 27.889023,39.999925 c 1.915941,-0.353072 3.44838,-1.952523 5.795122,-0.905488 v 1.743064 c -1.939253,-1.805309 -3.878506,-0.18147 -5.817759,0 z"
           sodipodi:nodetypes="ccccc" />
      </g>
      <ellipse
         style="fill:#ea9e22;fill-opacity:1;stroke:#000000;stroke-width:0.404632;stroke-opacity:1"
         id="ellipse20181"
         cx="-8.0497694"
         cy="196.45453"
         rx="2.913316"
         ry="5.457531"
         transform="matrix(0.24987694,-0.9682776,0.96871678,0.24816891,0,0)" />
      <ellipse
         style="fill:#000000;fill-opacity:1;stroke:none;stroke-width:0.253979;stroke-opacity:1"
         id="ellipse20183"
         cx="-59.549694"
         cy="183.40729"
         rx="1.717274"
         ry="3.6477044"
         transform="matrix(0.00604395,-0.99998174,0.99998909,0.00467082,0,0)" />
      <path
         id="path20185"
         style="fill:#333333;stroke:#000000;stroke-width:0.501097"
         d="m 168.21365,73.27332 c -4.94355,7.408731 -2.45675,13.577794 -10.65896,8.279272 l 6.48298,-10.788649 z"
         sodipodi:nodetypes="cccc" />
      <path
         id="path20187"
         style="fill:#ea9e22;stroke:#000000;stroke-width:0.501097"
         d="m 167.76665,65.005623 c 2.64084,1.562036 2.10423,3.417125 3.02052,5.668981 l -3.60543,1.539959 c -1.29967,-1.747989 -5.59926,-2.262476 -4.82453,-4.089808 z"
         sodipodi:nodetypes="ccccc" />
      <path
         id="path20189"
         style="fill:#008000;stroke:#000000;stroke-width:0.501097"
         d="m 173.28848,62.63495 c 0.88976,2.806695 0.55932,5.25708 -2.9882,8.661219 l -3.66746,-5.518068 c 1.47596,-3.945659 4.19233,-2.87372 6.65566,-3.143154 z"
         sodipodi:nodetypes="ccccc" />
    </g>
  </g>
</svg>
