<?xml version="1.0" encoding="UTF-8" standalone="no"?>
<!-- Created with Inkscape (http://www.inkscape.org/) -->

<svg
   xmlns:dc="http://purl.org/dc/elements/1.1/"
   xmlns:cc="http://creativecommons.org/ns#"
   xmlns:rdf="http://www.w3.org/1999/02/22-rdf-syntax-ns#"
   xmlns:svg="http://www.w3.org/2000/svg"
   xmlns="http://www.w3.org/2000/svg"
   xmlns:sodipodi="http://sodipodi.sourceforge.net/DTD/sodipodi-0.dtd"
   xmlns:inkscape="http://www.inkscape.org/namespaces/inkscape"
   width="210mm"
   height="297mm"
   id="svg3140"
   version="1.1"
   inkscape:version="0.48.2 r9819"
   sodipodi:docname="title.svg">
  <defs
     id="defs3" />
  <sodipodi:namedview
     inkscape:document-units="mm"
     id="base"
     pagecolor="#ffffff"
     bordercolor="#666666"
     borderopacity="1.0"
     inkscape:pageopacity="0.0"
     inkscape:pageshadow="2"
     inkscape:zoom="0.71"
     inkscape:cx="505.8697"
     inkscape:cy="767.33957"
     inkscape:current-layer="layer1"
     showgrid="false"
     showguides="true"
     inkscape:guide-bbox="true"
     inkscape:window-width="1920"
     inkscape:window-height="1018"
     inkscape:window-x="-8"
     inkscape:window-y="-8"
     inkscape:window-maximized="1" />
  <metadata
     id="metadata4">
    <rdf:RDF>
      <cc:Work
         rdf:about="">
        <dc:format>image/svg+xml</dc:format>
        <dc:type
           rdf:resource="http://purl.org/dc/dcmitype/StillImage" />
        <dc:title></dc:title>
      </cc:Work>
    </rdf:RDF>
  </metadata>
  <g
     inkscape:label="Layer 1"
     inkscape:groupmode="layer"
     id="layer1">
    <path
       style="fill:#ff4141;stroke:#b50000;stroke-width:14.10944843;stroke-linecap:butt;stroke-linejoin:miter;stroke-miterlimit:4;stroke-opacity:1;stroke-dasharray:none"
       d="m 134.64789,204.19317 56.47887,0 1.40845,38.02817 26.76056,-38.02817 54.92959,0 -34.25353,67.60563 36.61972,54.92958 -59.15493,0 -23.94366,-20.98591 0,20.98591 -58.84507,0 z"
       id="path3154"
       inkscape:connector-curvature="0"
       sodipodi:nodetypes="cccccccccccc" />
    <path
       sodipodi:nodetypes="ccccc"
       inkscape:connector-curvature="0"
       id="path3924"
       d="m 296.64789,204.19317 56.47887,0 8,122.53521 -64.47887,0 z"
       style="fill:#ff4141;stroke:#b50000;stroke-width:14.10944843;stroke-linecap:butt;stroke-linejoin:miter;stroke-miterlimit:4;stroke-opacity:1;stroke-dasharray:none" />
    <path
       id="path3928"
       style="fill:#ff4141;fill-rule:evenodd;stroke:#b50000;stroke-width:14.10944843;stroke-linecap:butt;stroke-linejoin:miter;stroke-miterlimit:4;stroke-opacity:1;stroke-dasharray:none"
       d="m 418.90142,242.22134 15.63379,0 c 25.48488,3.76877 35.43441,50.40414 -1.85915,50.70422 l -12.3662,0 z m -42.25353,-38.02817 56.47887,0 c 108.69047,0 92.89324,122.53521 2.3662,122.53521 l -58.84507,0 z"
       inkscape:connector-curvature="0"
       sodipodi:nodetypes="ccccccsscc" />
    <path
       style="fill:#ff4141;fill-opacity:1;stroke:#b50000;stroke-width:14.10944843;stroke-linecap:butt;stroke-linejoin:miter;stroke-miterlimit:4;stroke-opacity:1;stroke-dasharray:none"
       d="m 512.74648,306.30584 27.11267,-30.98591 c 37.14262,28.60384 69.15818,5.58442 19.71831,-13.38028 -57.99419,-21.39785 -46.86329,-52.40122 -2.12541,-57.74648 16.84712,-2.01288 70.10423,0 81.70288,15.84507 l -16.54929,21.83098 c -37.53005,-14.43349 -39.89676,10.56451 -26.7502,12.2739 27.85721,5.17696 58.80038,15.90625 57.29123,43.88704 -1.63012,30.22366 -96.81588,66.09643 -140.40019,8.27568 z"
       id="path3931"
       inkscape:connector-curvature="0"
       sodipodi:nodetypes="cccscccsc" />
    <path
       id="path3935"
       style="fill:#ff4141;fill-rule:evenodd;stroke:#b50000;stroke-width:14.10944843;stroke-linecap:butt;stroke-linejoin:miter;stroke-miterlimit:4;stroke-opacity:1;stroke-dasharray:none"
       d="m 2.17031,516.05845 15.37612,0 c 16.30215,0.33038 15.47849,26.15426 0.64418,25.93048 l -16.0203,0 z m -53.837,-31.86528 56.47888,0 c 98.26373,0 102.80188,95.39167 1.41645,88.66993 l 0.94975,33.86528 -58.84508,0 z"
       inkscape:connector-curvature="0"
       sodipodi:nodetypes="ccccccccccc" />
    <path
       sodipodi:nodetypes="ccccccccc"
       inkscape:connector-curvature="0"
       id="path3949"
       d="m 96.64789,484.19317 56.47887,0 0.41252,38.02817 c -4.18074,30.95841 27.09894,37.51197 25.4664,1.13189 l 2.29009,-39.16006 54.92959,0 0.60385,66.6097 c 2.86946,78.65666 -143.02236,87.59111 -140.18132,-18.07449 z"
       style="fill:#ff4141;stroke:#b50000;stroke-width:14.10944843;stroke-linecap:butt;stroke-linejoin:miter;stroke-miterlimit:4;stroke-opacity:1;stroke-dasharray:none" />
    <path
       sodipodi:nodetypes="ccccccccc"
       inkscape:connector-curvature="0"
       id="path3951"
       d="m 303.4482,532.9935 -48.0932,3.9837 -2.5753,-52.78403 141.4457,0 -39.7272,68.88467 39.335,-5.26274 2.7584,58.91328 -141.94371,0 z"
       style="fill:#ff4141;stroke:#b50000;stroke-width:14.10944843;stroke-linecap:butt;stroke-linejoin:miter;stroke-miterlimit:4;stroke-opacity:1;stroke-dasharray:none" />
    <path
       style="fill:#ff4141;stroke:#b50000;stroke-width:14.10944843;stroke-linecap:butt;stroke-linejoin:miter;stroke-miterlimit:4;stroke-opacity:1;stroke-dasharray:none"
       d="m 467.4482,532.9935 -48.0932,3.9837 -2.5753,-52.78403 141.4457,0 -39.7272,68.88467 39.335,-5.26274 2.7584,58.91328 -141.9437,0 z"
       id="path3953"
       inkscape:connector-curvature="0"
       sodipodi:nodetypes="ccccccccc" />
    <path
       sodipodi:nodetypes="ccccccc"
       inkscape:connector-curvature="0"
       id="path3955"
       d="m 578.64789,484.19317 56.47887,0 1.40845,65.91407 47.43662,1.69156 15.956,54.92958 -121.27994,0 z"
       style="fill:#ff4141;stroke:#b50000;stroke-width:14.10944843;stroke-linecap:butt;stroke-linejoin:miter;stroke-miterlimit:4;stroke-opacity:1;stroke-dasharray:none" />
    <path
       sodipodi:nodetypes="ccccccccccccc"
       inkscape:connector-curvature="0"
       id="path3957"
       d="m 714.64789,484.19317 139.57751,0 1.5997,46.71565 -90.36549,-3.74689 1.32817,3.94166 58.71502,-1.37059 0.8628,30.4677 -58.40193,-0.95856 1.19015,6.92958 87.55348,-4.62824 -0.1157,45.1849 -141.94371,0 z"
       style="fill:#ff4141;stroke:#b50000;stroke-width:14.10944843;stroke-linecap:butt;stroke-linejoin:miter;stroke-miterlimit:4;stroke-opacity:1;stroke-dasharray:none" />
    <path
       sodipodi:nodetypes="ccccccccc"
       inkscape:connector-curvature="0"
       id="path3959"
       d="m 28.35937,344.19317 139.57747,0 -1.388,49.67898 -37.07874,4.1374 0.60058,68.71883 -62.80919,0 0,-64.73513 -38.90212,0 z"
       style="fill:#ff4141;stroke:#b50000;stroke-width:14.10944843;stroke-linecap:butt;stroke-linejoin:miter;stroke-miterlimit:4;stroke-opacity:1;stroke-dasharray:none" />
    <path
       sodipodi:nodetypes="cccccccccccccc"
       inkscape:connector-curvature="0"
       d="m 238.41481,376.05845 15.37612,0 c 16.30215,0.33038 15.47849,26.15426 0.64418,25.93048 l -16.0203,0 z m -53.837,-31.86528 56.47888,0 c 74.78201,0 95.28076,55.24821 56.11974,78.69039 l 24.23108,43.84482 -48.19737,0 -30.737,-33.86528 0.94975,33.86528 -58.84508,0 z"
       style="fill:#ff4141;fill-rule:evenodd;stroke:#b50000;stroke-width:14.10944843;stroke-linecap:butt;stroke-linejoin:miter;stroke-miterlimit:4;stroke-opacity:1;stroke-dasharray:none"
       id="path3961" />
    <path
       style="fill:#ff4141;stroke:#b50000;stroke-width:14.10944843;stroke-linecap:butt;stroke-linejoin:miter;stroke-miterlimit:4;stroke-opacity:1;stroke-dasharray:none"
       d="m 329.97796,344.19317 56.47887,0 0.41252,38.02817 c -4.18074,30.95841 27.09894,37.51197 25.4664,1.13189 l 2.29009,-39.16006 54.92959,0 0.60385,66.6097 c 2.86946,78.65666 -143.02236,87.59111 -140.18132,-18.07449 z"
       id="path3963"
       inkscape:connector-curvature="0"
       sodipodi:nodetypes="ccccccccc" />
    <path
       sodipodi:nodetypes="cccccccccccc"
       inkscape:connector-curvature="0"
       id="path3965"
       d="m 635.31782,344.19317 56.47887,0 1.40845,38.02817 26.76056,-38.02817 54.92959,0 -34.25353,67.60563 36.61972,54.92958 -59.15493,0 -23.94366,-20.98591 0,20.98591 -58.84507,0 z"
       style="fill:#ff4141;stroke:#b50000;stroke-width:14.10944843;stroke-linecap:butt;stroke-linejoin:miter;stroke-miterlimit:4;stroke-opacity:1;stroke-dasharray:none" />
    <path
       sodipodi:nodetypes="cczccsscc"
       inkscape:connector-curvature="0"
       id="path3967"
       d="m 616.93905,371.08315 -40.83231,19.90945 c -15.57943,-9.12331 -29.70277,1.18049 -30.92141,11.57392 -1.21863,10.39344 16.53663,26.3874 36.34319,0.17699 l 41.19779,22.53522 c -13.22506,24.2496 -28.02883,41.44965 -76.46885,41.44965 -35.55423,0 -60.18745,-31.69875 -60.52007,-63.222 -0.30507,-28.91225 21.18735,-59.31321 69.71943,-59.31268 46.72952,-5.3e-4 50.00211,9.85863 61.48223,26.88945 z"
       style="fill:#ff4141;stroke:#b50000;stroke-width:14.10944843;stroke-linecap:butt;stroke-linejoin:miter;stroke-miterlimit:4;stroke-opacity:1;stroke-dasharray:none" />
  </g>
</svg>
