<?xml version="1.0" encoding="UTF-8" standalone="no"?>
<!-- Created with Inkscape (http://www.inkscape.org/) -->

<svg
   width="16.806221mm"
   height="16.411919mm"
   viewBox="0 0 16.806221 16.411919"
   version="1.1"
   id="svg1227"
   inkscape:version="1.2.2 (732a01da63, 2022-12-09)"
   sodipodi:docname="dragoncat.svg"
   xmlns:inkscape="http://www.inkscape.org/namespaces/inkscape"
   xmlns:sodipodi="http://sodipodi.sourceforge.net/DTD/sodipodi-0.dtd"
   xmlns="http://www.w3.org/2000/svg"
   xmlns:svg="http://www.w3.org/2000/svg">
  <sodipodi:namedview
     id="namedview1229"
     pagecolor="#ffffff"
     bordercolor="#000000"
     borderopacity="0.25"
     inkscape:showpageshadow="2"
     inkscape:pageopacity="0.0"
     inkscape:pagecheckerboard="0"
     inkscape:deskcolor="#d1d1d1"
     inkscape:document-units="mm"
     showgrid="false"
     inkscape:zoom="2.9219978"
     inkscape:cx="89.322451"
     inkscape:cy="36.961014"
     inkscape:window-width="1920"
     inkscape:window-height="974"
     inkscape:window-x="-11"
     inkscape:window-y="-11"
     inkscape:window-maximized="1"
     inkscape:current-layer="layer1" />
  <defs
     id="defs1224" />
  <g
     inkscape:label="Layer 1"
     inkscape:groupmode="layer"
     id="layer1"
     transform="translate(-120.53835,-140.65624)">
    <g
       id="g1373">
      <path
         id="path360"
         style="fill:#7c70da;fill-opacity:1;stroke-width:0.3"
         d="m 130.92893,140.65624 c -2.08812,1.46895 -4.55655,-0.0201 -6.46058,0.29662 -0.62785,1.4462 -1.85497,1.97527 -3.93,1.74667 l 0.18087,1.62367 c 0.38438,0.28009 0.70993,0.67837 0.97358,1.19993 l 0.5886,-0.95085 1.13171,1.04128 c 0.6424,-1.05597 1.15719,-1.21879 1.62988,-1.08676 0.43238,0.5438 0.37355,0.97843 0.27182,1.40354 -0.2671,0.46029 -1.80311,0.64471 -4.02973,0.67902 l 0.0961,0.99839 c 1.90434,-0.19 3.7351,-0.0115 5.88026,-1.4056 l -0.0455,2.173 c -1.79182,0.1988 -8.94867,2.49303 -3.8933,5.11597 -1.38341,0.79984 -1.86659,1.6 -2.71663,2.39985 l 0.37672,0.93172 c 1.32068,-1.0519 2.24738,-2.02486 5.0245,-2.10581 -1.31863,-1.19159 -2.41469,-2.69815 -0.46612,-3.80597 l 6.09988,-0.0134 c 2.44856,1.1144 1.72717,2.18282 0.1664,3.46387 2.46662,0.19066 4.48014,2.61545 5.45961,2.70681 l -0.0455,-1.13223 c -0.98094,-0.84512 -1.19303,-1.56196 -2.78225,-2.40708 2.63641,-1.41937 1.48155,-3.27753 -0.77567,-3.4799 -0.84828,-2.23976 1.98496,-2.83016 1.26659,-4.24677 -0.67771,-1.33643 -0.62172,-3.49137 2.41432,-3.71553 -3.22841,-2.04857 -5.99054,-0.47103 -4.09794,3.14244 1.12642,0.84088 -0.22376,2.66228 -2.61224,4.23282 -0.2415,-0.71307 -0.73902,-1.95264 0.0424,-2.60346 -1.00694,-0.99037 -0.39524,-2.43333 0.0424,-2.87476 -0.59619,-0.70175 -0.16786,-1.69757 0.2098,-3.32744 z" />
      <path
         id="path1146"
         style="stroke-width:0.3;fill:#ffffff"
         d="m 128.6197,142.35381 c -0.0495,0.2823 -0.32327,1.18309 -0.79046,1.4398 -0.15866,-0.38902 -0.0652,-0.77201 -0.88469,-0.76069 -0.87301,0.0121 -0.72111,0.99018 -0.9866,0.82851 -0.36411,-0.22172 -0.49394,-0.58962 -0.51877,-0.97565 -0.0226,-0.35194 0.31448,-0.65648 1.59592,-0.98472 0.83567,-0.21405 1.33559,-0.13689 1.5846,0.45275 z"
         sodipodi:nodetypes="ccscssc" />
    </g>
  </g>
</svg>
