<?xml version="1.0" encoding="UTF-8" standalone="no"?>
<!-- Created with Inkscape (http://www.inkscape.org/) -->

<svg
   width="210mm"
   height="297mm"
   viewBox="0 0 210 297"
   version="1.1"
   id="svg5"
   inkscape:version="1.2.2 (732a01da63, 2022-12-09)"
   sodipodi:docname="dotman_all.svg"
   xmlns:inkscape="http://www.inkscape.org/namespaces/inkscape"
   xmlns:sodipodi="http://sodipodi.sourceforge.net/DTD/sodipodi-0.dtd"
   xmlns="http://www.w3.org/2000/svg"
   xmlns:svg="http://www.w3.org/2000/svg">
  <sodipodi:namedview
     id="namedview7"
     pagecolor="#ffffff"
     bordercolor="#000000"
     borderopacity="0.25"
     inkscape:showpageshadow="2"
     inkscape:pageopacity="0.0"
     inkscape:pagecheckerboard="0"
     inkscape:deskcolor="#d1d1d1"
     inkscape:document-units="mm"
     showgrid="false"
     inkscape:zoom="1.0880334"
     inkscape:cx="261.94049"
     inkscape:cy="772.03513"
     inkscape:window-width="2880"
     inkscape:window-height="1514"
     inkscape:window-x="2869"
     inkscape:window-y="-11"
     inkscape:window-maximized="1"
     inkscape:current-layer="layer1" />
  <defs
     id="defs2" />
  <g
     inkscape:label="Layer 1"
     inkscape:groupmode="layer"
     id="layer1">
    <g
       id="g4337">
      <g
         id="g2879">
        <path
           style="fill:#ffcc00;stroke-width:0.994934"
           id="path792"
           sodipodi:type="arc"
           sodipodi:cx="70"
           sodipodi:cy="60"
           sodipodi:rx="20"
           sodipodi:ry="20"
           sodipodi:start="0.051341475"
           sodipodi:end="6.245392"
           sodipodi:arc-type="slice"
           d="M 89.973646,61.026378 A 20,20 0 0 1 69.418926,79.991557 20,20 0 0 1 50.000459,59.864519 20,20 0 0 1 69.68982,40.002405 20,20 0 0 1 89.985718,59.244314 L 70,60 Z" />
      </g>
      <circle
         style="fill:#1a1a1a;stroke-width:0.202141"
         id="circle1310"
         r="4.0634146"
         cy="53.842686"
         cx="66.196945" />
      <circle
         style="fill:#ffffff;stroke-width:0.0604015"
         id="circle1366"
         r="1.2141838"
         cy="52.017895"
         cx="64.884377" />
    </g>
    <g
       id="g5068">
      <path
         style="fill:#ffcc00;stroke-width:0.994934"
         id="circle2094"
         sodipodi:type="arc"
         sodipodi:cx="130"
         sodipodi:cy="60"
         sodipodi:rx="20"
         sodipodi:ry="20"
         sodipodi:start="0.57977753"
         sodipodi:end="5.6601491"
         sodipodi:arc-type="slice"
         d="m 146.73169,70.956757 a 20,20 0 0 1 -22.241,8.269461 20,20 0 0 1 -14.48601,-18.793665 20,20 0 0 1 13.65972,-19.402533 20,20 0 0 1 22.57781,7.299908 L 130,60 Z" />
      <circle
         style="fill:#1a1a1a;stroke-width:0.202141"
         id="circle2096"
         r="4.0634146"
         cy="53.842686"
         cx="126.19693" />
      <circle
         style="fill:#ffffff;stroke-width:0.0604015"
         id="circle2098"
         r="1.2141838"
         cy="52.017895"
         cx="124.88437" />
    </g>
    <g
       id="enemygroup">
      <path
         id="enemybody"
         style="fill:#ff0000;stroke-width:0.777028"
         d="m 88.148796,218.74185 c 0,5.12025 0.191301,14.83541 -0.164394,20.01629 -4.611271,2.38435 -4.298755,-6.35504 -9.134789,-6.35951 -3.863261,-0.004 -5.577733,6.39627 -10.700817,6.34322 -4.667731,-0.0483 -5.839897,-6.3614 -9.30018,-6.37526 -5.360462,-0.0215 -4.319627,8.74246 -10.518908,6.30118 -0.484651,-4.38668 -0.180912,-14.73161 -0.180912,-19.92592 0,-11.04569 8.954305,-20 20,-20 11.045695,0 20,8.95431 20,20 z"
         sodipodi:nodetypes="scssscsss" />
      <circle
         style="fill:#1a1a1a;stroke-width:0.202141"
         id="circle5800"
         r="4.0634146"
         cy="212.93681"
         cx="61.394222" />
      <circle
         style="fill:#ffffff;stroke-width:0.0604015"
         id="circle5802"
         r="1.2141838"
         cy="211.11203"
         cx="60.081654" />
      <circle
         style="fill:#1a1a1a;stroke-width:0.202141"
         id="circle6643"
         r="4.0634146"
         cy="212.93681"
         cx="75.559212" />
      <circle
         style="fill:#ffffff;stroke-width:0.0604015"
         id="circle6645"
         r="1.2141838"
         cy="211.11203"
         cx="74.246643" />
    </g>
  </g>
</svg>
