<?xml version="1.0" encoding="UTF-8" standalone="no"?>
<!-- Created with Inkscape (http://www.inkscape.org/) -->

<svg
   width="67.606339mm"
   height="89.151108mm"
   viewBox="0 0 67.606339 89.151108"
   version="1.1"
   id="svg58120"
   inkscape:version="1.2.2 (732a01da63, 2022-12-09)"
   sodipodi:docname="hammer_idle.svg"
   xmlns:inkscape="http://www.inkscape.org/namespaces/inkscape"
   xmlns:sodipodi="http://sodipodi.sourceforge.net/DTD/sodipodi-0.dtd"
   xmlns="http://www.w3.org/2000/svg"
   xmlns:svg="http://www.w3.org/2000/svg">
  <sodipodi:namedview
     id="namedview58122"
     pagecolor="#ffffff"
     bordercolor="#000000"
     borderopacity="0.25"
     inkscape:showpageshadow="2"
     inkscape:pageopacity="0.0"
     inkscape:pagecheckerboard="0"
     inkscape:deskcolor="#d1d1d1"
     inkscape:document-units="mm"
     showgrid="false"
     inkscape:zoom="0.70733726"
     inkscape:cx="150.56467"
     inkscape:cy="209.23541"
     inkscape:window-width="2880"
     inkscape:window-height="1514"
     inkscape:window-x="2869"
     inkscape:window-y="-11"
     inkscape:window-maximized="1"
     inkscape:current-layer="layer1" />
  <defs
     id="defs58117" />
  <g
     inkscape:label="Layer 1"
     inkscape:groupmode="layer"
     id="layer1"
     transform="translate(-65.321518,-93.076838)">
    <g
       id="g45308"
       transform="rotate(62.624537,75.707207,119.37348)">
      <path
         id="path45256"
         style="fill:#00ccff;stroke:#000000"
         d="m 107.35606,117.56155 c 0,0 0.0298,1.50541 0.0298,6.10688 0.002,6.03044 -10.523385,8.72125 -19.207651,8.57073 -8.684266,-0.15051 -18.114097,-1.90319 -18.163911,-8.29019 -0.09942,-7.76625 -0.01699,-6.06012 -0.01699,-6.06012 z"
         sodipodi:nodetypes="ccsccc" />
      <rect
         style="fill:#00ccff;fill-opacity:1;stroke:#000000;stroke-width:1;stroke-dasharray:none;stroke-opacity:1"
         id="rect45258"
         width="44.633896"
         height="9.8525143"
         x="109.2373"
         y="95.417336"
         rx="1.5"
         ry="1.7" />
      <rect
         style="fill:#369bb4;fill-opacity:1;stroke:none;stroke-width:1;stroke-dasharray:none;stroke-opacity:1"
         id="rect45260"
         width="43.311405"
         height="4.0335841"
         x="109.43568"
         y="100.11216"
         rx="1.5"
         ry="1.7" />
      <rect
         style="fill:#94eaff;fill-opacity:1;stroke:none;stroke-width:1;stroke-dasharray:none;stroke-opacity:1"
         id="rect45262"
         width="43.509781"
         height="1.5869862"
         x="109.43568"
         y="96.40799"
         rx="1.5"
         ry="0.79349309" />
      <rect
         style="fill:#ffcc00;fill-opacity:1;stroke:#000000;stroke-width:1;stroke-dasharray:none;stroke-opacity:1"
         id="rect45264"
         width="14.307619"
         height="16.458437"
         x="97.093292"
         y="92.204659"
         rx="1.5"
         ry="1.7" />
      <rect
         style="fill:#b49b36;fill-opacity:1;stroke:none;stroke-width:1;stroke-dasharray:none;stroke-opacity:1"
         id="rect45266"
         width="6.3479309"
         height="8.728405"
         x="104.07962"
         y="98.855797"
         rx="1.5"
         ry="0.79349303" />
      <path
         id="path45268"
         style="fill:#ffcc00;stroke:#000000"
         d="M 63.357804,96.932545 74.359209,92.204659 V 108.6631 l -10.935281,-5.62056 z"
         sodipodi:nodetypes="ccccc" />
      <path
         id="path45270"
         style="fill:#ffea94;fill-opacity:1;stroke:none"
         d="m 64.548041,97.825223 9.811168,-4.463389 v 5.514873 l -9.910355,1.454733 z"
         sodipodi:nodetypes="ccccc" />
      <path
         id="path45272"
         style="fill:#ffcc00;stroke:#000000"
         d="m 107.35606,74.699009 c 0,0 0.0298,37.488741 0.0298,42.090211 0.002,6.03044 -10.523385,8.72125 -19.207651,8.57073 -8.684266,-0.15051 -18.114097,-1.90319 -18.163911,-8.29019 -0.09942,-7.76625 -0.01699,-42.043453 -0.01699,-42.043453 z"
         sodipodi:nodetypes="ccsccc" />
      <path
         id="path45274"
         style="fill:#00ccff;stroke:#000000"
         d="m 107.35606,75.228091 c 0,0 0.0298,1.505401 0.0298,6.106847 0.002,6.030404 -10.523385,8.721199 -19.207651,8.570682 -8.684266,-0.15051 -18.114097,-1.903181 -18.163911,-8.290145 -0.09942,-7.766205 -0.01699,-6.060084 -0.01699,-6.060084 z"
         sodipodi:nodetypes="ccsccc" />
      <path
         id="path45276"
         style="fill:#6c6c6c;fill-opacity:0.505285;stroke:none"
         d="m 94.613573,75.372144 v 57.029076 c 6.706997,-0.951 12.751607,-3.60169 12.750097,-8.17159 0,-4.60147 -0.03,-6.10712 -0.03,-6.10712 l -0.0305,5.1e-4 c 0.0393,-0.25135 0.0605,-0.50844 0.0605,-0.77256 0,-4.58921 -0.0298,-41.77959 -0.03,-41.978316 z" />
      <path
         id="path45278"
         style="fill:#ffffff;fill-opacity:0.579281;stroke:none"
         d="m 82.724905,74.510449 -5.42396,0.04754 v 55.888581 c 1.65906,0.4825 3.50519,0.81635 5.42396,1.03663 z" />
      <path
         id="path45280"
         style="fill:#aaeeff;stroke:#000000"
         d="m 107.38583,74.984932 c 0.002,6.030402 -10.523385,8.7212 -19.207651,8.570688 -8.684266,-0.150512 -17.818001,-3.142335 -18.163911,-8.290146 0,-4.601449 8.22075,-8.612201 18.592269,-8.612201 10.371518,10e-7 18.779293,3.730211 18.779293,8.331659 z"
         sodipodi:nodetypes="cscsc" />
      <ellipse
         style="fill:#80e5ff;fill-opacity:1;stroke:none;stroke-width:1;stroke-dasharray:none;stroke-opacity:1"
         id="ellipse45282"
         cx="89.095322"
         cy="74.507156"
         rx="14.518025"
         ry="4.9328556" />
      <g
         id="g45290"
         transform="rotate(19.178711,105.2182,106.18476)">
        <path
           id="path45284"
           style="fill:#550000;stroke:#000000"
           d="m 104.73552,110.0658 c 0,4.02841 -2.26981,4.62399 -8.88382,7.29408 -2.218863,-3.82912 -1.658782,-4.57099 -8.883817,-7.29408 -3.769562,-1.42073 3.977421,-7.29408 8.883817,-7.29408 4.9064,0 8.88382,3.26567 8.88382,7.29408 z"
           sodipodi:nodetypes="zcssz" />
        <ellipse
           style="fill:#aa0000;fill-opacity:1;stroke:#000000;stroke-width:0.80326;stroke-dasharray:none;stroke-opacity:1"
           id="ellipse45286"
           cx="38.389923"
           cy="137.36449"
           rx="3.0326509"
           ry="4.0299535"
           transform="matrix(0.93707679,-0.34912333,0.47317382,0.88096909,0,0)" />
        <path
           id="path45288"
           style="fill:#ffffff;stroke:#000000"
           d="m 99.8728,115.72339 c -2.335734,0.85845 -1.335235,0.46271 -4.0211,1.26243 -2.218863,-3.82912 -3.890072,-5.84572 -8.883817,-6.92002 -2.042392,-0.43938 0.258173,-3.66479 1.402708,-4.06786 5.009287,-0.3147 12.555889,8.97524 11.502209,9.72545 z"
           sodipodi:nodetypes="ccscc" />
      </g>
      <g
         id="g45298">
        <ellipse
           style="fill:#ffffff;fill-opacity:1;stroke:#000000;stroke-width:1;stroke-dasharray:none;stroke-opacity:1"
           id="ellipse45292"
           cx="80.205154"
           cy="105.45623"
           rx="4.3483939"
           ry="4.1146092" />
        <ellipse
           style="fill:#000000;fill-opacity:1;stroke:none;stroke-width:0.480719;stroke-dasharray:none;stroke-opacity:1"
           id="ellipse45294"
           cx="79.760963"
           cy="105.90042"
           rx="1.9871691"
           ry="2.080683" />
        <path
           id="path45296"
           d="m 70.768341,109.12854 c 3.64866,-6.34132 4.358259,-8.58802 5.368786,-13.379179 4.481926,3.723662 -3.140958,12.784509 -5.368786,13.379179 z"
           style="fill:#000000;stroke:none;stroke-width:1.443"
           sodipodi:nodetypes="ccc" />
      </g>
      <g
         id="g45306"
         transform="matrix(1,0,0,-1,3.6470404,222.55918)">
        <ellipse
           style="fill:#ffffff;fill-opacity:1;stroke:#000000;stroke-width:1;stroke-dasharray:none;stroke-opacity:1"
           id="ellipse45300"
           cx="80.205154"
           cy="105.45623"
           rx="4.3483939"
           ry="4.1146092" />
        <ellipse
           style="fill:#000000;fill-opacity:1;stroke:none;stroke-width:0.480719;stroke-dasharray:none;stroke-opacity:1"
           id="ellipse45302"
           cx="79.760963"
           cy="105.90042"
           rx="1.9871691"
           ry="2.080683" />
        <path
           id="path45304"
           d="m 70.768341,109.12854 c 3.64866,-6.34132 4.358259,-8.58802 5.368786,-13.379179 4.481926,3.723662 -3.140958,12.784509 -5.368786,13.379179 z"
           style="fill:#000000;stroke:none;stroke-width:1.443"
           sodipodi:nodetypes="ccc" />
      </g>
    </g>
  </g>
</svg>
