<?xml version="1.0" encoding="UTF-8" standalone="no"?>
<!-- Created with Inkscape (http://www.inkscape.org/) -->

<svg
   width="104.5477mm"
   height="49.936459mm"
   viewBox="0 0 104.5477 49.936459"
   version="1.1"
   id="svg62419"
   inkscape:version="1.2.2 (732a01da63, 2022-12-09)"
   sodipodi:docname="hole.svg"
   xmlns:inkscape="http://www.inkscape.org/namespaces/inkscape"
   xmlns:sodipodi="http://sodipodi.sourceforge.net/DTD/sodipodi-0.dtd"
   xmlns="http://www.w3.org/2000/svg"
   xmlns:svg="http://www.w3.org/2000/svg">
  <sodipodi:namedview
     id="namedview62421"
     pagecolor="#ffffff"
     bordercolor="#000000"
     borderopacity="0.25"
     inkscape:showpageshadow="2"
     inkscape:pageopacity="0.0"
     inkscape:pagecheckerboard="0"
     inkscape:deskcolor="#d1d1d1"
     inkscape:document-units="mm"
     showgrid="false"
     inkscape:zoom="0.70733726"
     inkscape:cx="317.38749"
     inkscape:cy="189.44287"
     inkscape:window-width="2880"
     inkscape:window-height="1514"
     inkscape:window-x="2869"
     inkscape:window-y="-11"
     inkscape:window-maximized="1"
     inkscape:current-layer="layer1" />
  <defs
     id="defs62416" />
  <g
     inkscape:label="Layer 1"
     inkscape:groupmode="layer"
     id="layer1"
     transform="translate(-21.415068,-98.47006)">
    <g
       id="g63998"
       transform="translate(-14.307495,-108.38243)">
      <path
         id="ellipse50776"
         style="fill:#c87137;fill-opacity:1;stroke:none;stroke-width:0.399883;stroke-dasharray:none"
         d="m 74.250248,206.85249 a 9.1643562,8.5097609 0 0 0 -5.23844,1.53117 9.1643562,8.5097609 0 0 0 -2.803963,-0.40876 9.1643562,8.5097609 0 0 0 -8.380884,5.08135 9.1643562,8.5097609 0 0 0 -0.783414,-0.0315 9.1643562,8.5097609 0 0 0 -8.895582,6.48126 9.1643562,8.5097609 0 0 0 -5.131469,7.63933 9.1643562,8.5097609 0 0 0 9.164298,8.50956 9.1643562,8.5097609 0 0 0 8.895581,-6.48126 9.1643562,8.5097609 0 0 0 4.349089,-4.21318 9.1643562,8.5097609 0 0 0 0.782381,0.0341 9.1643562,8.5097609 0 0 0 5.241024,-1.53273 9.1643562,8.5097609 0 0 0 2.801379,0.41031 9.1643562,8.5097609 0 0 0 4.395081,-1.04799 9.1643562,8.5097609 0 0 0 4.39508,1.04799 9.1643562,8.5097609 0 0 0 5.517493,-1.72186 9.1643562,8.5097609 0 0 0 5.516976,1.72186 9.1643562,8.5097609 0 0 0 4.994527,-1.38027 9.1643562,8.5097609 0 0 0 5.292185,1.56734 9.1643562,8.5097609 0 0 0 3.47989,-0.64182 9.1643562,8.5097609 0 0 0 8.11578,4.56923 9.1643562,8.5097609 0 0 0 2.07791,-0.22324 9.1643562,8.5097609 0 0 0 -0.0207,0.50384 9.1643562,8.5097609 0 0 0 9.1643,8.51008 9.1643562,8.5097609 0 0 0 9.1643,-8.51008 9.1643562,8.5097609 0 0 0 -9.1643,-8.50955 9.1643562,8.5097609 0 0 0 -2.07791,0.22324 9.1643562,8.5097609 0 0 0 0.0207,-0.50385 9.1643562,8.5097609 0 0 0 -9.1643,-8.50956 9.1643562,8.5097609 0 0 0 -3.4742,0.63924 9.1643562,8.5097609 0 0 0 -8.12147,-4.56716 9.1643562,8.5097609 0 0 0 -4.990911,1.37873 9.1643562,8.5097609 0 0 0 -5.295801,-1.5658 9.1643562,8.5097609 0 0 0 -5.512842,1.71928 9.1643562,8.5097609 0 0 0 -5.521627,-1.71928 9.1643562,8.5097609 0 0 0 -4.389913,1.04593 9.1643562,8.5097609 0 0 0 -4.400248,-1.04593 z" />
      <ellipse
         style="fill:#552200;fill-opacity:1;stroke:none;stroke-width:1;stroke-dasharray:none"
         id="path46814"
         cx="86.780861"
         cy="227.70622"
         rx="36.470402"
         ry="13.372481" />
      <path
         id="ellipse47854"
         style="fill:#c87137;fill-opacity:1;stroke:none;stroke-width:0.399883;stroke-dasharray:none"
         d="m 48.814238,220.50586 a 9.1643562,8.5097609 0 0 0 -9.164298,8.50956 9.1643562,8.5097609 0 0 0 0.0052,0.1235 9.1643562,8.5097609 0 0 0 -3.932577,6.98356 9.1643562,8.5097609 0 0 0 9.164299,8.50956 9.1643562,8.5097609 0 0 0 1.054716,-0.0625 9.1643562,8.5097609 0 0 0 8.483719,5.29941 9.1643562,8.5097609 0 0 0 4.684469,-1.19941 9.1643562,8.5097609 0 0 0 8.22017,4.7532 9.1643562,8.5097609 0 0 0 7.064168,-3.0949 9.1643562,8.5097609 0 0 0 7.524089,3.65559 9.1643562,8.5097609 0 0 0 4.467428,-1.08365 9.1643562,8.5097609 0 0 0 7.689453,3.88917 9.1643562,8.5097609 0 0 0 8.501806,-5.33973 9.1643562,8.5097609 0 0 0 5.33818,1.59939 9.1643562,8.5097609 0 0 0 6.83163,-2.84428 9.1643562,8.5097609 0 0 0 6.44715,2.47014 9.1643562,8.5097609 0 0 0 9.1643,-8.50956 9.1643562,8.5097609 0 0 0 -0.002,-0.12402 9.1643562,8.5097609 0 0 0 0.74982,0.0305 9.1643562,8.5097609 0 0 0 9.1643,-8.51008 9.1643562,8.5097609 0 0 0 -4.02714,-7.0466 9.1643562,8.5097609 0 0 0 -9.06456,-7.26105 9.1643562,8.5097609 0 0 0 -7.50962,3.63698 9.1643562,8.5097609 0 0 0 -0.9555,-0.25011 9.1643562,8.5097609 0 0 0 -0.0274,-0.005 9.1643562,8.5097609 0 0 0 -0.96635,-0.14934 9.1643562,8.5097609 0 0 0 -0.0202,-0.002 9.1643562,8.5097609 0 0 0 -0.99477,-0.0506 9.1643562,8.5097609 0 0 0 -1.40922,0.10283 9.1643562,8.5097609 0 0 0 -0.0522,0.009 9.1643562,8.5097609 0 0 0 -1.32447,0.29404 9.1643562,8.5097609 0 0 0 -0.0832,0.0269 9.1643562,8.5097609 0 0 0 -1.233,0.47232 9.1643562,8.5097609 0 0 0 -0.0868,0.0424 9.1643562,8.5097609 0 0 0 -1.12861,0.63768 9.1643562,8.5097609 0 0 0 -0.0909,0.0625 9.1643562,8.5097609 0 0 0 -0.99735,0.78445 9.1643562,8.5097609 0 0 0 -0.0858,0.0796 9.1643562,8.5097609 0 0 0 -0.85628,0.92294 9.1643562,8.5097609 0 0 0 -0.062,0.078 9.1643562,8.5097609 0 0 0 -0.15141,0.22634 9.1643562,8.5097609 0 0 0 -3.73207,2.45773 9.1643562,8.5097609 0 0 0 -5.726279,-1.89498 9.1643562,8.5097609 0 0 0 -7.747845,3.97651 9.1643562,8.5097609 0 0 0 -6.466272,-2.47996 9.1643562,8.5097609 0 0 0 -4.561995,1.13017 9.1643562,8.5097609 0 0 0 -7.594368,-3.74861 9.1643562,8.5097609 0 0 0 -5.848222,1.9637 9.1643562,8.5097609 0 0 0 -6.308659,-2.33784 9.1643562,8.5097609 0 0 0 -3.273702,0.56379 9.1643562,8.5097609 0 0 0 -9.070248,-7.29671 z" />
      <path
         id="path50868"
         style="fill:#d38d5f;fill-opacity:1;stroke:none;stroke-width:1.24996;stroke-dasharray:none"
         d="m 48.440142,224.80722 a 5.7978587,5.8913727 0 0 0 -5.797579,5.89163 5.7978587,5.8913727 0 0 0 0.03669,0.62581 5.7978587,5.8913727 0 0 0 -3.029272,5.17177 5.7978587,5.8913727 0 0 0 5.797579,5.89163 5.7978587,5.8913727 0 0 0 5.798095,-5.89163 5.7978587,5.8913727 0 0 0 -0.03359,-0.62735 5.7978587,5.8913727 0 0 0 3.026171,-5.17023 5.7978587,5.8913727 0 0 0 -5.798095,-5.89163 z m 74.623868,0.74828 a 5.4238029,5.1432619 0 0 0 -5.42344,5.14335 5.4238029,5.1432619 0 0 0 0.21497,1.42421 5.4238029,5.1432619 0 0 0 -2.08566,-0.39584 5.4238029,5.1432619 0 0 0 -5.42344,5.14335 5.4238029,5.1432619 0 0 0 3.43958,4.78679 5.9848862,6.358942 0 0 0 -0.26045,1.8526 5.9848862,6.358942 0 0 0 5.98517,6.3593 5.9848862,6.358942 0 0 0 5.98465,-6.3593 5.9848862,6.358942 0 0 0 -0.36846,-2.19625 5.9848862,6.358942 0 0 0 4.67052,2.38332 5.9848862,6.358942 0 0 0 5.98465,-6.35879 5.9848862,6.358942 0 0 0 -5.98465,-6.35878 5.9848862,6.358942 0 0 0 -1.33119,0.15916 5.4238029,5.1432619 0 0 0 0.0217,-0.43977 5.4238029,5.1432619 0 0 0 -5.42396,-5.14335 z m -63.308797,4.67568 a 4.3951507,5.0497479 0 0 0 -4.39508,5.04982 4.3951507,5.0497479 0 0 0 0.05891,0.81287 5.9848862,6.358942 0 0 0 -3.799251,5.92006 5.9848862,6.358942 0 0 0 5.984647,6.35878 5.9848862,6.358942 0 0 0 5.985165,-6.35878 5.9848862,6.358942 0 0 0 -0.769462,-3.11816 4.3951507,5.0497479 0 0 0 1.330151,-3.61477 4.3951507,5.0497479 0 0 0 -4.39508,-5.04982 z m 11.12852,2.43138 a 5.4238029,5.1432619 0 0 0 -5.423958,5.14335 5.4238029,5.1432619 0 0 0 0.706933,2.53577 5.9848862,6.358942 0 0 0 -2.577103,5.22552 5.9848862,6.358942 0 0 0 5.984647,6.3593 5.9848862,6.358942 0 0 0 5.985165,-6.3593 5.9848862,6.358942 0 0 0 -1.19941,-3.81786 5.4238029,5.1432619 0 0 0 1.947168,-3.94343 5.4238029,5.1432619 0 0 0 -5.423442,-5.14335 z m 11.408606,0.74827 a 5.4238029,5.1432619 0 0 0 -5.423958,5.14284 5.4238029,5.1432619 0 0 0 1.303796,3.33985 5.9848862,6.358942 0 0 0 -1.865002,4.60902 5.9848862,6.358942 0 0 0 5.985164,6.35879 5.9848862,6.358942 0 0 0 5.984648,-6.35879 5.9848862,6.358942 0 0 0 -1.862936,-4.61057 5.4238029,5.1432619 0 0 0 1.30173,-3.3383 5.4238029,5.1432619 0 0 0 -5.423442,-5.14284 z m 22.256001,0.37362 a 5.4238029,5.1432619 0 0 0 -5.326799,4.19665 5.4238029,5.1432619 0 0 0 -4.772321,-2.7001 5.4238029,5.1432619 0 0 0 -5.423959,5.14336 5.4238029,5.1432619 0 0 0 1.241785,3.2706 5.9848862,6.358942 0 0 0 -1.428853,4.11655 5.9848862,6.358942 0 0 0 5.984647,6.3593 5.9848862,6.358942 0 0 0 5.97018,-5.93659 5.9848862,6.358942 0 0 0 5.25187,3.31814 5.9848862,6.358942 0 0 0 5.98465,-6.3593 5.9848862,6.358942 0 0 0 -2.23914,-4.95835 5.4238029,5.1432619 0 0 0 0.1819,-1.3069 5.4238029,5.1432619 0 0 0 -5.42396,-5.14336 z m 16.43259,1.65985 a 5.4238029,5.1432619 0 0 0 2.08308,0.39739 5.4238029,5.1432619 0 0 0 0.93948,-0.0806 5.9848862,6.358942 0 0 0 -0.19121,1.57716 5.9848862,6.358942 0 0 0 0.37466,2.204 5.9848862,6.358942 0 0 0 -3.02514,-2.14405 5.4238029,5.1432619 0 0 0 0.032,-0.52762 5.4238029,5.1432619 0 0 0 -0.21291,-1.42627 z m -21.203869,5.92212 a 5.4238029,5.1432619 0 0 0 0.855239,1.11673 5.9848862,6.358942 0 0 0 -0.55707,2.28048 5.9848862,6.358942 0 0 0 -1.09192,-1.52239 5.4238029,5.1432619 0 0 0 0.793751,-1.87482 z" />
      <path
         id="path53183"
         style="fill:#deaa87;fill-opacity:1;stroke:none;stroke-width:1;stroke-dasharray:none"
         d="m 121.84838,225.36816 a 4.0210958,3.9275818 0 0 0 -4.02095,3.92792 4.0210958,3.9275818 0 0 0 4.02095,3.92741 4.0210958,3.9275818 0 0 0 4.02146,-3.92741 4.0210958,3.9275818 0 0 0 -4.02146,-3.92792 z m -73.875598,2.05775 a 4.0210958,3.9275818 0 0 0 -4.02146,3.92741 4.0210958,3.9275818 0 0 0 4.02146,3.92741 4.0210958,3.9275818 0 0 0 4.020944,-3.92741 4.0210958,3.9275818 0 0 0 -4.020944,-3.92741 z m 65.459568,1.49603 a 4.0210958,3.9275818 0 0 0 -4.02094,3.92741 4.0210958,3.9275818 0 0 0 4.02094,3.92793 4.0210958,3.9275818 0 0 0 4.02095,-3.92793 4.0210958,3.9275818 0 0 0 -4.02095,-3.92741 z m -54.612168,4.11448 a 4.0210958,3.9275818 0 0 0 -4.020943,3.92793 4.0210958,3.9275818 0 0 0 2.068608,3.43131 2.8989296,2.43136 0 0 0 -0.66611,-0.0651 2.8989296,2.43136 0 0 0 -2.899047,2.43138 2.8989296,2.43136 0 0 0 2.899047,2.43137 2.8989296,2.43136 0 0 0 2.899048,-2.43137 2.8989296,2.43136 0 0 0 -1.215946,-1.97973 4.0210958,3.9275818 0 0 0 0.935343,0.10956 4.0210958,3.9275818 0 0 0 4.020943,-3.92741 4.0210958,3.9275818 0 0 0 -4.020943,-3.92793 z m 11.595675,0.74828 a 4.0210958,3.9275818 0 0 0 -4.020943,3.92741 4.0210958,3.9275818 0 0 0 4.020943,3.92792 4.0210958,3.9275818 0 0 0 4.020943,-3.92792 4.0210958,3.9275818 0 0 0 -4.020943,-3.92741 z m 57.791823,0 a 2.8989296,2.43136 0 0 0 -2.89905,2.43137 2.8989296,2.43136 0 0 0 2.89905,2.43138 2.8989296,2.43136 0 0 0 2.89853,-2.43138 2.8989296,2.43136 0 0 0 -2.89853,-2.43137 z m -34.039268,0.37413 a 4.0210958,3.9275818 0 0 0 -4.020943,3.92741 4.0210958,3.9275818 0 0 0 4.020943,3.92741 4.0210958,3.9275818 0 0 0 4.020943,-3.92741 4.0210958,3.9275818 0 0 0 -4.020943,-3.92741 z m -11.034468,0.37414 a 4.0210958,3.9275818 0 0 0 -4.02146,3.92741 4.0210958,3.9275818 0 0 0 4.02146,3.92741 4.0210958,3.9275818 0 0 0 4.020943,-3.92741 4.0210958,3.9275818 0 0 0 -4.020943,-3.92741 z m 20.947046,0.18655 a 4.0210958,3.9275818 0 0 0 -4.02095,3.92793 4.0210958,3.9275818 0 0 0 4.02095,3.92741 4.0210958,3.9275818 0 0 0 4.02094,-3.92741 4.0210958,3.9275818 0 0 0 -4.02094,-3.92793 z m -60.410271,1.12242 a 2.8989296,2.43136 0 0 0 -2.898531,2.43137 2.8989296,2.43136 0 0 0 2.898531,2.43138 2.8989296,2.43136 0 0 0 2.899048,-2.43138 2.8989296,2.43136 0 0 0 -2.899048,-2.43137 z m 74.437321,1.6831 a 2.8989296,2.43136 0 0 0 -2.89905,2.43137 2.8989296,2.43136 0 0 0 2.89905,2.43138 2.8989296,2.43136 0 0 0 2.89904,-2.43138 2.8989296,2.43136 0 0 0 -2.89904,-2.43137 z m -47.879252,4.30154 a 2.8989296,2.43136 0 0 0 -2.899048,2.43138 2.8989296,2.43136 0 0 0 2.899048,2.43138 2.8989296,2.43136 0 0 0 2.899048,-2.43138 2.8989296,2.43136 0 0 0 -2.899048,-2.43138 z m 24.874968,2.24483 a 2.8989296,2.43136 0 0 0 -2.899048,2.43086 2.8989296,2.43136 0 0 0 2.899048,2.43137 2.8989296,2.43136 0 0 0 2.898531,-2.43137 2.8989296,2.43136 0 0 0 -2.898531,-2.43086 z m -13.279293,0.56069 a 2.8989296,2.43136 0 0 0 -2.898531,2.43137 2.8989296,2.43136 0 0 0 2.898531,2.43138 2.8989296,2.43136 0 0 0 2.899048,-2.43138 2.8989296,2.43136 0 0 0 -2.899048,-2.43137 z m 23.939627,0.18707 a 2.8989296,2.43136 0 0 0 -2.89905,2.43137 2.8989296,2.43136 0 0 0 2.89905,2.43138 2.8989296,2.43136 0 0 0 2.89904,-2.43138 2.8989296,2.43136 0 0 0 -2.89904,-2.43137 z" />
      <ellipse
         style="fill:#deaa87;fill-opacity:1;stroke:none;stroke-width:0.66805;stroke-dasharray:none"
         id="ellipse54717"
         cx="43.670963"
         cy="238.2733"
         rx="2.8989296"
         ry="2.43136" />
    </g>
  </g>
</svg>
