<?xml version="1.0" encoding="UTF-8" standalone="no"?>
<!-- Created with Inkscape (http://www.inkscape.org/) -->

<svg
   width="90.906395mm"
   height="73.00753mm"
   viewBox="0 0 90.906395 73.00753"
   version="1.1"
   id="svg1399"
   inkscape:version="1.2.2 (732a01da63, 2022-12-09)"
   sodipodi:docname="mole_pain.svg"
   xmlns:inkscape="http://www.inkscape.org/namespaces/inkscape"
   xmlns:sodipodi="http://sodipodi.sourceforge.net/DTD/sodipodi-0.dtd"
   xmlns="http://www.w3.org/2000/svg"
   xmlns:svg="http://www.w3.org/2000/svg">
  <sodipodi:namedview
     id="namedview1401"
     pagecolor="#ffffff"
     bordercolor="#000000"
     borderopacity="0.25"
     inkscape:showpageshadow="2"
     inkscape:pageopacity="0.0"
     inkscape:pagecheckerboard="0"
     inkscape:deskcolor="#d1d1d1"
     inkscape:document-units="mm"
     showgrid="false"
     inkscape:zoom="0.70733726"
     inkscape:cx="245.2861"
     inkscape:cy="255.88925"
     inkscape:window-width="2880"
     inkscape:window-height="1514"
     inkscape:window-x="2869"
     inkscape:window-y="-11"
     inkscape:window-maximized="1"
     inkscape:current-layer="layer1" />
  <defs
     id="defs1396" />
  <g
     inkscape:label="Layer 1"
     inkscape:groupmode="layer"
     id="layer1"
     transform="translate(-40.57955,-80.949635)">
    <g
       id="g1353"
       transform="translate(-73.17467,-79.393824)">
      <path
         id="path69989"
         style="fill:#d45500;stroke:#000000"
         d="m 131.57697,226.7351 c 0.20122,-36.87466 3.49266,-65.77282 27.74703,-65.8913 24.25436,-0.11848 27.00242,30.36394 27.59229,65.13318 -20.51176,6.58955 -37.33974,6.6535 -55.33932,0.75812 z"
         sodipodi:nodetypes="czcc" />
      <path
         id="path69991"
         style="fill:#ffffff;fill-opacity:0.379182;stroke:none"
         d="m 133.69294,208.74929 c 1.24055,-15.66578 7.97508,-46.42718 24.31034,-40.78909 12.44391,-6.08806 17.99549,1.5681 21.78329,10.45497 -8.65018,-11.20686 -14.15008,-8.32345 -21.78264,-5.1525 -8.25304,-5.5032 -18.5819,17.37455 -24.31099,35.48662 z"
         sodipodi:nodetypes="ccccc" />
      <path
         id="path69993"
         d="m 157.50797,194.58733 c -1.93391,2.90054 -3.2363,2.78154 -3.38419,1.75839 -0.59638,-4.12595 -1.58996,-6.03019 -5.30334,-11.01016 2.57572,-0.7867 2.69939,-0.45895 4.52873,-1.10779 3.33023,2.22041 0.92029,12.24238 4.1588,10.35956 z"
         sodipodi:nodetypes="csccc" />
      <path
         id="path70009"
         style="fill:#000000;fill-opacity:0.379182;stroke:none"
         d="m 132.37046,226.4706 c 0.10062,-18.43733 -0.82592,-1.887 -0.32562,-15.05941 8.69971,3.09417 15.52003,11.18083 26.88241,11.39106 11.36238,0.21022 19.44803,-7.06696 27.04184,-10.08851 0.84913,13.7079 1.07416,-0.002 1.7407,12.99874 -20.32933,5.93211 -37.4656,7.24328 -55.33933,0.75812 z"
         sodipodi:nodetypes="ccsccc" />
      <ellipse
         style="fill:#550000;fill-opacity:1;stroke:#000000;stroke-width:0.874677;stroke-dasharray:none;stroke-opacity:1"
         id="path70127"
         cx="159.78932"
         cy="213.54837"
         rx="4.6582985"
         ry="4.1293049" />
      <path
         id="path70013"
         style="fill:#ffffff;stroke:#000000"
         d="m 161.82848,210.20499 c 0.99891,1.2745 4.17023,5.58553 5.01167,6.72246 2.4207,-1.98364 -1.51477,-10.30043 -1.51477,-10.30043 0,0 -2.35,2.53152 -3.4969,3.57797 z"
         sodipodi:nodetypes="cccc" />
      <path
         id="path70011"
         style="fill:#ffffff;stroke:#000000"
         d="m 157.69255,210.11076 c -0.94157,1.31744 -4.12897,6.05182 -4.91931,7.22485 -2.50604,-1.87464 1.35945,-10.35972 1.35945,-10.35972 0,0 2.36781,2.14017 3.55986,3.13487 z"
         sodipodi:nodetypes="cccc" />
      <g
         id="g70035"
         transform="translate(70.783574,28.069976)">
        <ellipse
           style="fill:#deaa87;fill-opacity:1;stroke:#000000;stroke-width:1;stroke-dasharray:none;stroke-opacity:1"
           id="ellipse70017"
           cx="88.573471"
           cy="177.47757"
           rx="8.761467"
           ry="5.2238183" />
        <path
           style="fill:#deaa87;fill-opacity:1;stroke:#000000;stroke-width:1;stroke-dasharray:none;stroke-opacity:1"
           d="m 82.853723,176.28733 c -4.231954,-1.32248 -7.934914,-2.51272 -7.934914,-2.51272"
           id="path70019"
           sodipodi:nodetypes="cc" />
        <path
           style="fill:#deaa87;fill-opacity:1;stroke:#000000;stroke-width:1;stroke-dasharray:none;stroke-opacity:1"
           d="m 82.787599,177.94044 c -4.802667,-0.0384 -1.95845,0.037 -8.662281,0"
           id="path70021"
           sodipodi:nodetypes="cc" />
        <path
           style="fill:#deaa87;fill-opacity:1;stroke:#000000;stroke-width:1;stroke-dasharray:none;stroke-opacity:1"
           d="m 82.65535,179.59477 c -4.231954,1.32248 -7.934914,2.51272 -7.934914,2.51272"
           id="path70023"
           sodipodi:nodetypes="cc" />
        <path
           style="fill:#deaa87;fill-opacity:1;stroke:#000000;stroke-width:1;stroke-dasharray:none;stroke-opacity:1"
           d="m 94.844743,176.19382 c 4.231954,-1.32248 7.934917,-2.51272 7.934917,-2.51272"
           id="path70025"
           sodipodi:nodetypes="cc" />
        <path
           style="fill:#deaa87;fill-opacity:1;stroke:#000000;stroke-width:1;stroke-dasharray:none;stroke-opacity:1"
           d="m 94.910867,177.84693 c 4.802667,-0.0384 1.95845,0.037 8.662283,0"
           id="path70027"
           sodipodi:nodetypes="cc" />
        <path
           style="fill:#deaa87;fill-opacity:1;stroke:#000000;stroke-width:1;stroke-dasharray:none;stroke-opacity:1"
           d="m 95.043116,179.50126 c 4.231954,1.32248 7.934914,2.51272 7.934914,2.51272"
           id="path70029"
           sodipodi:nodetypes="cc" />
        <path
           id="path70031"
           d="m 92.888134,174.24159 c 0.310263,1.65066 -3.647229,4.71219 -4.606204,4.71051 -1.161161,0.14394 -4.360319,-4.28574 -3.663195,-5.06499 0.697123,-0.77926 8.080062,-0.82924 8.269399,0.35448 z"
           sodipodi:nodetypes="cczc"
           style="stroke-width:0.834278" />
        <path
           id="path70033"
           style="fill:#ffffff"
           d="m 86.886053,174.67219 c -0.479407,0.22113 -1.129433,0.67826 -0.853313,1.44947 0.154506,0.43154 -0.80656,-1.08149 -0.806557,-1.44947 -3e-6,-0.36798 0.371573,-0.66629 0.829935,-0.66629 0.458362,0 3.526859,-0.57767 0.829935,0.66629 z"
           sodipodi:nodetypes="sssss" />
      </g>
      <g
         id="g70045"
         transform="rotate(-55.312306,220.74272,146.66883)">
        <path
           id="path70037"
           style="fill:#deaa87;fill-opacity:1;stroke:#000000;stroke-width:1;stroke-dasharray:none"
           d="m 137.9947,162.45695 c 0,6.0509 -0.10958,6.2103 -0.29555,13.50438 -3.88449,-7.3198 -5.11099,-4.40219 -5.28354,-11.62573 1.84585,-0.95852 4.19976,-1.87453 5.57909,-1.87865 z"
           sodipodi:nodetypes="cccc" />
        <path
           id="path70039"
           style="fill:#deaa87;fill-opacity:1;stroke:#000000;stroke-width:1;stroke-dasharray:none"
           d="m 144.87562,162.4102 c 0,6.0509 -0.1242,8.2676 0.0618,15.56168 3.88449,-7.3198 5.43829,-5.29057 5.61084,-12.51411 -1.84585,-0.95852 -4.29328,-3.04345 -5.67261,-3.04757 z"
           sodipodi:nodetypes="cccc" />
        <path
           id="path70041"
           style="fill:#deaa87;fill-opacity:1;stroke:#000000;stroke-width:1;stroke-dasharray:none"
           d="m 138.2829,161.89587 c 0,6.0509 1.41878,8.9222 2.21259,16.16952 3.88449,-7.3198 4.2226,-8.23625 4.39515,-15.45979 -1.84585,-0.53771 -5.22841,-0.70561 -6.60774,-0.70973 z"
           sodipodi:nodetypes="cccc" />
        <path
           id="path70043"
           style="fill:#d45500;stroke:#000000;stroke-width:1;stroke-dasharray:none"
           d="m 141.53296,152.50594 a 9.2261126,10.956118 0 0 0 -9.22579,10.95643 9.2261126,10.956118 0 0 0 0.0527,1.10433 9.1968511,12.420394 88.568063 0 1 7.68273,-2.34249 9.1968511,12.420394 88.568063 0 1 10.48929,3.65507 9.2261126,10.956118 0 0 0 0.22737,-2.41691 9.2261126,10.956118 0 0 0 -9.22631,-10.95643 z" />
      </g>
      <g
         id="g70069"
         transform="matrix(-0.63150632,-0.77537073,-0.77537073,0.63150632,344.47871,228.13749)">
        <path
           id="path70061"
           style="fill:#deaa87;fill-opacity:1;stroke:#000000;stroke-width:1;stroke-dasharray:none"
           d="m 137.9947,162.45695 c 0,6.0509 -0.10958,6.2103 -0.29555,13.50438 -3.88449,-7.3198 -5.11099,-4.40219 -5.28354,-11.62573 1.84585,-0.95852 4.19976,-1.87453 5.57909,-1.87865 z"
           sodipodi:nodetypes="cccc" />
        <path
           id="path70063"
           style="fill:#deaa87;fill-opacity:1;stroke:#000000;stroke-width:1;stroke-dasharray:none"
           d="m 144.87562,162.4102 c 0,6.0509 -0.1242,8.2676 0.0618,15.56168 3.88449,-7.3198 5.43829,-5.29057 5.61084,-12.51411 -1.84585,-0.95852 -4.29328,-3.04345 -5.67261,-3.04757 z"
           sodipodi:nodetypes="cccc" />
        <path
           id="path70065"
           style="fill:#deaa87;fill-opacity:1;stroke:#000000;stroke-width:1;stroke-dasharray:none"
           d="m 138.2829,161.89587 c 0,6.0509 1.41878,8.9222 2.21259,16.16952 3.88449,-7.3198 4.2226,-8.23625 4.39515,-15.45979 -1.84585,-0.53771 -5.22841,-0.70561 -6.60774,-0.70973 z"
           sodipodi:nodetypes="cccc" />
        <path
           id="path70067"
           style="fill:#d45500;stroke:#000000;stroke-width:1;stroke-dasharray:none"
           d="m 141.53296,152.50594 a 9.2261126,10.956118 0 0 0 -9.22579,10.95643 9.2261126,10.956118 0 0 0 0.0527,1.10433 9.1968511,12.420394 88.568063 0 1 7.68273,-2.34249 9.1968511,12.420394 88.568063 0 1 10.48929,3.65507 9.2261126,10.956118 0 0 0 0.22737,-2.41691 9.2261126,10.956118 0 0 0 -9.22631,-10.95643 z" />
      </g>
      <path
         id="path70114"
         d="m 151.7217,197.21273 c 0.40261,1.02096 -1.94537,-0.51452 -3.59094,0.1344 -1.64555,0.64891 -1.96555,3.23648 -2.36816,2.21552 -0.40261,-1.02097 0.40589,-2.49721 2.05146,-3.14612 1.64555,-0.64891 3.50503,-0.22477 3.90764,0.7962 z"
         sodipodi:nodetypes="sssss" />
      <path
         id="path70117"
         d="m 171.94529,199.87489 c -0.39678,1.02324 -1.08028,-1.6977 -2.72951,-2.33722 -1.64923,-0.63952 -3.63967,1.04456 -3.24289,0.0213 0.39678,-1.02324 1.99224,-1.55941 3.64148,-0.91989 1.64923,0.63952 2.72771,2.21255 2.33092,3.2358 z"
         sodipodi:nodetypes="sssss" />
      <path
         id="path70119"
         d="m 160.46292,194.35355 c 1.93391,2.90054 3.2363,2.78154 3.38419,1.75839 0.59638,-4.12595 1.58996,-6.03019 5.30334,-11.01016 -2.57572,-0.7867 -2.69939,-0.45895 -4.52873,-1.10779 -3.33023,2.22041 -0.92029,12.24238 -4.1588,10.35956 z"
         sodipodi:nodetypes="csccc" />
      <path
         id="path70247"
         d="m 155.9061,217.96388 c 1.93407,1.19039 5.55461,1.24512 8.53133,-0.42718 -1.97672,3.50237 -8.73518,2.36163 -8.53133,0.42718 z"
         sodipodi:nodetypes="ccc" />
      <path
         id="path1064"
         style="fill:#aa0000"
         d="m 163.66092,214.80131 c 0,1.03292 -1.82502,2.38667 -3.95096,2.34953 -1.9858,-0.0347 -3.64704,-1.17634 -3.64704,-2.20926 0,-0.87692 2.61852,-2.03075 3.72202,-0.15887 1.44711,-1.89948 3.87598,-1.01433 3.87598,0.0186 z"
         sodipodi:nodetypes="csscc" />
    </g>
  </g>
</svg>
