<?xml version="1.0" encoding="UTF-8" standalone="no"?>
<!-- Created with Inkscape (http://www.inkscape.org/) -->

<svg
   width="90.906387mm"
   height="73.00753mm"
   viewBox="0 0 90.906387 73.00753"
   version="1.1"
   id="svg60620"
   inkscape:version="1.2.2 (732a01da63, 2022-12-09)"
   sodipodi:docname="mole.svg"
   xmlns:inkscape="http://www.inkscape.org/namespaces/inkscape"
   xmlns:sodipodi="http://sodipodi.sourceforge.net/DTD/sodipodi-0.dtd"
   xmlns="http://www.w3.org/2000/svg"
   xmlns:svg="http://www.w3.org/2000/svg">
  <sodipodi:namedview
     id="namedview60622"
     pagecolor="#ffffff"
     bordercolor="#000000"
     borderopacity="0.25"
     inkscape:showpageshadow="2"
     inkscape:pageopacity="0.0"
     inkscape:pagecheckerboard="0"
     inkscape:deskcolor="#d1d1d1"
     inkscape:document-units="mm"
     showgrid="false"
     inkscape:zoom="0.70733726"
     inkscape:cx="225.49356"
     inkscape:cy="286.99181"
     inkscape:window-width="2880"
     inkscape:window-height="1514"
     inkscape:window-x="2869"
     inkscape:window-y="-11"
     inkscape:window-maximized="1"
     inkscape:current-layer="layer1" />
  <defs
     id="defs60617" />
  <g
     inkscape:label="Layer 1"
     inkscape:groupmode="layer"
     id="layer1"
     transform="translate(-45.816326,-72.720416)">
    <g
       id="g54763"
       transform="translate(2.5479459,-61.439163)">
      <path
         id="path46438"
         style="fill:#d45500;stroke:#000000"
         d="m 61.091128,200.55122 c 0.201224,-36.87466 3.492665,-65.77282 27.74703,-65.8913 24.254362,-0.11848 27.002422,30.36394 27.592292,65.13318 -20.511762,6.58955 -37.339737,6.6535 -55.339322,0.75812 z"
         sodipodi:nodetypes="czcc" />
      <path
         id="path33610"
         style="fill:#ffffff;fill-opacity:0.379182;stroke:none"
         d="m 63.207102,182.56541 c 1.240547,-15.66578 6.718719,-46.42718 24.905459,-46.34353 13.369649,0.0615 17.400369,7.12254 21.188169,16.00941 -8.65018,-11.20686 -12.829125,-12.03465 -20.923026,-11.83105 -12.551114,0.31573 -19.441513,24.0531 -25.170602,42.16517 z"
         sodipodi:nodetypes="cscsc" />
      <path
         id="path53027"
         d="m 85.798961,158.13193 c 3e-6,3.48613 -3.191851,7.04508 -4.161367,6.68625 -3.861294,-1.4291 -6.405702,-2.3585 -10.520309,-6.21868 1.706631,-2.08342 1.991356,-1.87933 3.153458,-3.43399 4.002584,0 9.878194,6.32951 11.528218,2.96642 z"
         sodipodi:nodetypes="csccc" />
      <g
         id="g61022"
         transform="translate(-1.6364924,0.28054156)">
        <ellipse
           style="fill:#000000;fill-opacity:1;stroke:none;stroke-width:1;stroke-dasharray:none;stroke-opacity:1"
           id="path58112"
           cx="76.803352"
           cy="167.06299"
           rx="3.8682702"
           ry="3.5376489" />
        <ellipse
           style="fill:#ffffff;fill-opacity:1;stroke:none;stroke-width:0.327653;stroke-dasharray:none;stroke-opacity:1"
           id="ellipse58114"
           cx="75.249435"
           cy="166.4348"
           rx="0.92573971"
           ry="1.5869826" />
      </g>
      <g
         id="g61028"
         transform="translate(24.512171,0.27251934)">
        <ellipse
           style="fill:#000000;fill-opacity:1;stroke:none;stroke-width:1;stroke-dasharray:none;stroke-opacity:1"
           id="ellipse61024"
           cx="76.803352"
           cy="167.06299"
           rx="3.8682702"
           ry="3.5376489" />
        <ellipse
           style="fill:#ffffff;fill-opacity:1;stroke:none;stroke-width:0.327653;stroke-dasharray:none;stroke-opacity:1"
           id="ellipse61026"
           cx="75.249435"
           cy="166.4348"
           rx="0.92573971"
           ry="1.5869826" />
      </g>
      <path
         id="path61756"
         d="m 91.056105,158.30428 c 0,3.48613 3.19185,7.04508 4.161366,6.68625 3.861287,-1.4291 6.405709,-2.3585 10.520309,-6.21868 -1.70663,-2.08342 -1.99135,-1.87933 -3.15345,-3.43399 -4.002592,0 -9.878202,6.32951 -11.528225,2.96642 z"
         sodipodi:nodetypes="csccc" />
      <path
         id="path29252"
         style="fill:#000000;fill-opacity:0.379182;stroke:none"
         d="m 61.884617,200.28672 c 0.10062,-18.43733 -0.825918,-1.887 -0.32562,-15.05941 8.69971,3.09417 15.520036,11.18083 26.882416,11.39106 11.362373,0.21022 19.448027,-7.06696 27.041837,-10.08851 0.84913,13.7079 1.07416,-0.002 1.7407,12.99874 -20.329335,5.93211 -37.465599,7.24328 -55.339333,0.75812 z"
         sodipodi:nodetypes="ccsccc" />
      <g
         id="g70614">
        <path
           id="path70607"
           style="fill:#ffffff;stroke:#000000"
           d="m 88.484327,179.39463 c -0.05866,1.61825 -0.105938,7.32541 -0.118139,8.7398 -3.124369,-0.18137 -4.580357,-9.39107 -4.580357,-9.39107 0,0 3.155516,0.47909 4.698496,0.65127 z"
           sodipodi:nodetypes="cccc" />
        <path
           id="path70610"
           style="fill:#ffffff;stroke:#000000"
           d="m 88.574468,179.72525 c 0.05866,1.61825 0.08941,6.97 0.101608,8.38439 3.124369,-0.18137 4.830672,-9.22269 4.830672,-9.22269 0,0 -3.3893,0.66612 -4.93228,0.8383 z"
           sodipodi:nodetypes="cccc" />
      </g>
      <g
         id="g69879"
         transform="translate(-0.23143498,-2.8764062)">
        <ellipse
           style="fill:#deaa87;fill-opacity:1;stroke:#000000;stroke-width:1;stroke-dasharray:none;stroke-opacity:1"
           id="path62484"
           cx="88.573471"
           cy="177.47757"
           rx="8.761467"
           ry="5.2238183" />
        <path
           style="fill:#deaa87;fill-opacity:1;stroke:#000000;stroke-width:1;stroke-dasharray:none;stroke-opacity:1"
           d="m 82.853723,176.28733 c -4.231954,-1.32248 -7.934914,-2.51272 -7.934914,-2.51272"
           id="path64770"
           sodipodi:nodetypes="cc" />
        <path
           style="fill:#deaa87;fill-opacity:1;stroke:#000000;stroke-width:1;stroke-dasharray:none;stroke-opacity:1"
           d="m 82.787599,177.94044 c -4.802667,-0.0384 -1.95845,0.037 -8.662281,0"
           id="path65498"
           sodipodi:nodetypes="cc" />
        <path
           style="fill:#deaa87;fill-opacity:1;stroke:#000000;stroke-width:1;stroke-dasharray:none;stroke-opacity:1"
           d="m 82.65535,179.59477 c -4.231954,1.32248 -7.934914,2.51272 -7.934914,2.51272"
           id="path65500"
           sodipodi:nodetypes="cc" />
        <path
           style="fill:#deaa87;fill-opacity:1;stroke:#000000;stroke-width:1;stroke-dasharray:none;stroke-opacity:1"
           d="m 94.844743,176.19382 c 4.231954,-1.32248 7.934917,-2.51272 7.934917,-2.51272"
           id="path65502"
           sodipodi:nodetypes="cc" />
        <path
           style="fill:#deaa87;fill-opacity:1;stroke:#000000;stroke-width:1;stroke-dasharray:none;stroke-opacity:1"
           d="m 94.910867,177.84693 c 4.802667,-0.0384 1.95845,0.037 8.662283,0"
           id="path65504"
           sodipodi:nodetypes="cc" />
        <path
           style="fill:#deaa87;fill-opacity:1;stroke:#000000;stroke-width:1;stroke-dasharray:none;stroke-opacity:1"
           d="m 95.043116,179.50126 c 4.231954,1.32248 7.934914,2.51272 7.934914,2.51272"
           id="path65506"
           sodipodi:nodetypes="cc" />
        <path
           id="ellipse66234"
           d="m 92.888134,174.24159 c 0.310263,1.65066 -3.647229,4.71219 -4.606204,4.71051 -1.161161,0.14394 -4.360319,-4.28574 -3.663195,-5.06499 0.697123,-0.77926 8.080062,-0.82924 8.269399,0.35448 z"
           sodipodi:nodetypes="cczc"
           style="stroke-width:0.834278" />
        <path
           id="path67689"
           style="fill:#ffffff"
           d="m 86.886053,174.67219 c -0.479407,0.22113 -1.129433,0.67826 -0.853313,1.44947 0.154506,0.43154 -0.80656,-1.08149 -0.806557,-1.44947 -3e-6,-0.36798 0.371573,-0.66629 0.829935,-0.66629 0.458362,0 3.526859,-0.57767 0.829935,0.66629 z"
           sodipodi:nodetypes="sssss" />
      </g>
      <g
         id="g22706"
         transform="rotate(-55.312306,160.51689,200.82976)">
        <path
           id="path15185"
           style="fill:#deaa87;fill-opacity:1;stroke:#000000;stroke-width:1;stroke-dasharray:none"
           d="m 137.9947,162.45695 c 0,6.0509 -0.10958,6.2103 -0.29555,13.50438 -3.88449,-7.3198 -5.11099,-4.40219 -5.28354,-11.62573 1.84585,-0.95852 4.19976,-1.87453 5.57909,-1.87865 z"
           sodipodi:nodetypes="cccc" />
        <path
           id="path20520"
           style="fill:#deaa87;fill-opacity:1;stroke:#000000;stroke-width:1;stroke-dasharray:none"
           d="m 144.87562,162.4102 c 0,6.0509 -0.1242,8.2676 0.0618,15.56168 3.88449,-7.3198 5.43829,-5.29057 5.61084,-12.51411 -1.84585,-0.95852 -4.29328,-3.04345 -5.67261,-3.04757 z"
           sodipodi:nodetypes="cccc" />
        <path
           id="path21974"
           style="fill:#deaa87;fill-opacity:1;stroke:#000000;stroke-width:1;stroke-dasharray:none"
           d="m 138.2829,161.89587 c 0,6.0509 1.41878,8.9222 2.21259,16.16952 3.88449,-7.3198 4.2226,-8.23625 4.39515,-15.45979 -1.84585,-0.53771 -5.22841,-0.70561 -6.60774,-0.70973 z"
           sodipodi:nodetypes="cccc" />
        <path
           id="path9027"
           style="fill:#d45500;stroke:#000000;stroke-width:1;stroke-dasharray:none"
           d="m 141.53296,152.50594 a 9.2261126,10.956118 0 0 0 -9.22579,10.95643 9.2261126,10.956118 0 0 0 0.0527,1.10433 9.1968511,12.420394 88.568063 0 1 7.68273,-2.34249 9.1968511,12.420394 88.568063 0 1 10.48929,3.65507 9.2261126,10.956118 0 0 0 0.22737,-2.41691 9.2261126,10.956118 0 0 0 -9.22631,-10.95643 z" />
      </g>
      <path
         id="path18870"
         style="fill:#ff2a2a;stroke-width:0.234965"
         d="m 86.628902,181.77341 c 0,0.79729 -0.277373,1.44362 -0.61953,1.44362 -0.342156,0 -0.350677,-0.52944 -0.350677,-1.32673 0,-0.79729 0.335819,-0.46172 0.350677,-1.56051 0.505806,0.25716 0.61953,0.64633 0.61953,1.44362 z"
         sodipodi:nodetypes="ssscs" />
      <g
         id="g19066"
         transform="rotate(-18.063413,102.03225,168.37287)">
        <path
           id="path18982"
           d="m 105.88457,169.52396 c -0.55791,2.14156 -5.52626,3.99585 -6.533919,1.86857 3.044359,0.8737 4.203599,-0.38913 6.533919,-1.86857 z"
           sodipodi:nodetypes="ccc"
           style="stroke-width:0.753998" />
        <path
           id="path18984"
           d="m 104.81818,171.58101 c -0.28366,1.21012 -2.96324,2.22333 -3.52902,1.00923 1.65983,0.51894 2.27764,-0.18824 3.52902,-1.00923 z"
           sodipodi:nodetypes="ccc"
           style="stroke-width:0.418219" />
      </g>
      <g
         id="g19000"
         transform="rotate(13.869714,105.67903,34.164274)">
        <path
           id="path18990"
           d="m 103.7458,173.171 c 0.55791,2.14156 5.52626,3.99585 6.53392,1.86857 -3.04436,0.8737 -4.2036,-0.38913 -6.53392,-1.86857 z"
           sodipodi:nodetypes="ccc"
           style="stroke-width:0.753998" />
        <path
           id="path18992"
           d="m 104.81219,175.32156 c 0.28366,1.21012 2.96324,2.22333 3.52902,1.00923 -1.65983,0.51894 -2.27764,-0.18824 -3.52902,-1.00923 z"
           sodipodi:nodetypes="ccc"
           style="stroke-width:0.418219" />
      </g>
      <g
         id="g24168"
         transform="matrix(-0.63150632,-0.77537073,-0.77537073,0.63150632,273.99287,201.95361)">
        <path
           id="path24160"
           style="fill:#deaa87;fill-opacity:1;stroke:#000000;stroke-width:1;stroke-dasharray:none"
           d="m 137.9947,162.45695 c 0,6.0509 -0.10958,6.2103 -0.29555,13.50438 -3.88449,-7.3198 -5.11099,-4.40219 -5.28354,-11.62573 1.84585,-0.95852 4.19976,-1.87453 5.57909,-1.87865 z"
           sodipodi:nodetypes="cccc" />
        <path
           id="path24162"
           style="fill:#deaa87;fill-opacity:1;stroke:#000000;stroke-width:1;stroke-dasharray:none"
           d="m 144.87562,162.4102 c 0,6.0509 -0.1242,8.2676 0.0618,15.56168 3.88449,-7.3198 5.43829,-5.29057 5.61084,-12.51411 -1.84585,-0.95852 -4.29328,-3.04345 -5.67261,-3.04757 z"
           sodipodi:nodetypes="cccc" />
        <path
           id="path24164"
           style="fill:#deaa87;fill-opacity:1;stroke:#000000;stroke-width:1;stroke-dasharray:none"
           d="m 138.2829,161.89587 c 0,6.0509 1.41878,8.9222 2.21259,16.16952 3.88449,-7.3198 4.2226,-8.23625 4.39515,-15.45979 -1.84585,-0.53771 -5.22841,-0.70561 -6.60774,-0.70973 z"
           sodipodi:nodetypes="cccc" />
        <path
           id="path24166"
           style="fill:#d45500;stroke:#000000;stroke-width:1;stroke-dasharray:none"
           d="m 141.53296,152.50594 a 9.2261126,10.956118 0 0 0 -9.22579,10.95643 9.2261126,10.956118 0 0 0 0.0527,1.10433 9.1968511,12.420394 88.568063 0 1 7.68273,-2.34249 9.1968511,12.420394 88.568063 0 1 10.48929,3.65507 9.2261126,10.956118 0 0 0 0.22737,-2.41691 9.2261126,10.956118 0 0 0 -9.22631,-10.95643 z" />
      </g>
    </g>
  </g>
</svg>
