<?xml version="1.0" encoding="UTF-8" standalone="no"?>
<!-- Created with Inkscape (http://www.inkscape.org/) -->

<svg
   width="210mm"
   height="297mm"
   viewBox="0 0 210 297"
   version="1.1"
   id="svg5"
   inkscape:version="1.2.2 (732a01da63, 2022-12-09)"
   sodipodi:docname="mole_all.svg"
   xmlns:inkscape="http://www.inkscape.org/namespaces/inkscape"
   xmlns:sodipodi="http://sodipodi.sourceforge.net/DTD/sodipodi-0.dtd"
   xmlns="http://www.w3.org/2000/svg"
   xmlns:svg="http://www.w3.org/2000/svg">
  <sodipodi:namedview
     id="namedview7"
     pagecolor="#ffffff"
     bordercolor="#000000"
     borderopacity="0.25"
     inkscape:showpageshadow="2"
     inkscape:pageopacity="0.0"
     inkscape:pagecheckerboard="0"
     inkscape:deskcolor="#d1d1d1"
     inkscape:document-units="mm"
     showgrid="false"
     inkscape:zoom="1.000326"
     inkscape:cx="404.3682"
     inkscape:cy="533.826"
     inkscape:window-width="2880"
     inkscape:window-height="1514"
     inkscape:window-x="2869"
     inkscape:window-y="-11"
     inkscape:window-maximized="1"
     inkscape:current-layer="layer1" />
  <defs
     id="defs2" />
  <g
     inkscape:label="Layer 1"
     inkscape:groupmode="layer"
     id="layer1">
    <g
       id="g45254">
      <path
         id="path6597"
         style="fill:#00ccff;stroke:#000000"
         d="m 107.35606,117.56155 c 0,0 0.0298,1.50541 0.0298,6.10688 0.002,6.03044 -10.523385,8.72125 -19.207651,8.57073 -8.684266,-0.15051 -18.114097,-1.90319 -18.163911,-8.29019 -0.09942,-7.76625 -0.01699,-6.06012 -0.01699,-6.06012 z"
         sodipodi:nodetypes="ccsccc" />
      <rect
         style="fill:#00ccff;fill-opacity:1;stroke:#000000;stroke-width:1;stroke-dasharray:none;stroke-opacity:1"
         id="rect18088"
         width="44.633896"
         height="9.8525143"
         x="109.2373"
         y="95.417336"
         rx="1.5"
         ry="1.7" />
      <rect
         style="fill:#369bb4;fill-opacity:1;stroke:none;stroke-width:1;stroke-dasharray:none;stroke-opacity:1"
         id="rect19420"
         width="43.311405"
         height="4.0335841"
         x="109.43568"
         y="100.11216"
         rx="1.5"
         ry="1.7" />
      <rect
         style="fill:#94eaff;fill-opacity:1;stroke:none;stroke-width:1;stroke-dasharray:none;stroke-opacity:1"
         id="rect19560"
         width="43.509781"
         height="1.5869862"
         x="109.43568"
         y="96.40799"
         rx="1.5"
         ry="0.79349309" />
      <rect
         style="fill:#ffcc00;fill-opacity:1;stroke:#000000;stroke-width:1;stroke-dasharray:none;stroke-opacity:1"
         id="rect16599"
         width="14.307619"
         height="16.458437"
         x="97.093292"
         y="92.204659"
         rx="1.5"
         ry="1.7" />
      <rect
         style="fill:#b49b36;fill-opacity:1;stroke:none;stroke-width:1;stroke-dasharray:none;stroke-opacity:1"
         id="rect20392"
         width="6.3479309"
         height="8.728405"
         x="104.07962"
         y="98.855797"
         rx="1.5"
         ry="0.79349303" />
      <path
         id="rect21189"
         style="fill:#ffcc00;stroke:#000000"
         d="M 63.357804,96.932545 74.359209,92.204659 V 108.6631 l -10.935281,-5.62056 z"
         sodipodi:nodetypes="ccccc" />
      <path
         id="path22696"
         style="fill:#ffea94;fill-opacity:1;stroke:none"
         d="m 64.548041,97.825223 9.811168,-4.463389 v 5.514873 l -9.910355,1.454733 z"
         sodipodi:nodetypes="ccccc" />
      <path
         id="path4415"
         style="fill:#ffcc00;stroke:#000000"
         d="m 107.35606,74.699009 c 0,0 0.0298,37.488741 0.0298,42.090211 0.002,6.03044 -10.523385,8.72125 -19.207651,8.57073 -8.684266,-0.15051 -18.114097,-1.90319 -18.163911,-8.29019 -0.09942,-7.76625 -0.01699,-42.043453 -0.01699,-42.043453 z"
         sodipodi:nodetypes="ccsccc" />
      <path
         id="path8777"
         style="fill:#00ccff;stroke:#000000"
         d="m 107.35606,75.228091 c 0,0 0.0298,1.505401 0.0298,6.106847 0.002,6.030404 -10.523385,8.721199 -19.207651,8.570682 -8.684266,-0.15051 -18.114097,-1.903181 -18.163911,-8.290145 -0.09942,-7.766205 -0.01699,-6.060084 -0.01699,-6.060084 z"
         sodipodi:nodetypes="ccsccc" />
      <path
         id="path14342"
         style="fill:#6c6c6c;fill-opacity:0.505285;stroke:none"
         d="m 94.613573,75.372144 v 57.029076 c 6.706997,-0.951 12.751607,-3.60169 12.750097,-8.17159 0,-4.60147 -0.03,-6.10712 -0.03,-6.10712 l -0.0305,5.1e-4 c 0.0393,-0.25135 0.0605,-0.50844 0.0605,-0.77256 0,-4.58921 -0.0298,-41.77959 -0.03,-41.978316 z" />
      <path
         id="path14350"
         style="fill:#ffffff;fill-opacity:0.579281;stroke:none"
         d="m 82.724905,74.510449 -5.42396,0.04754 v 55.888581 c 1.65906,0.4825 3.50519,0.81635 5.42396,1.03663 z" />
      <path
         id="path238"
         style="fill:#aaeeff;stroke:#000000"
         d="m 107.38583,74.984932 c 0.002,6.030402 -10.523385,8.7212 -19.207651,8.570688 -8.684266,-0.150512 -17.818001,-3.142335 -18.163911,-8.290146 0,-4.601449 8.22075,-8.612201 18.592269,-8.612201 10.371518,10e-7 18.779293,3.730211 18.779293,8.331659 z"
         sodipodi:nodetypes="cscsc" />
      <ellipse
         style="fill:#80e5ff;fill-opacity:1;stroke:none;stroke-width:1;stroke-dasharray:none;stroke-opacity:1"
         id="path9557"
         cx="89.095322"
         cy="74.507156"
         rx="14.518025"
         ry="4.9328556" />
      <g
         id="g43459"
         transform="rotate(19.178711,105.2182,106.18476)">
        <path
           id="path24254"
           style="fill:#550000;stroke:#000000"
           d="m 104.73552,110.0658 c 0,4.02841 -2.26981,4.62399 -8.88382,7.29408 -2.218863,-3.82912 -1.658782,-4.57099 -8.883817,-7.29408 -3.769562,-1.42073 3.977421,-7.29408 8.883817,-7.29408 4.9064,0 8.88382,3.26567 8.88382,7.29408 z"
           sodipodi:nodetypes="zcssz" />
        <ellipse
           style="fill:#aa0000;fill-opacity:1;stroke:#000000;stroke-width:0.80326;stroke-dasharray:none;stroke-opacity:1"
           id="path30221"
           cx="38.389923"
           cy="137.36449"
           rx="3.0326509"
           ry="4.0299535"
           transform="matrix(0.93707679,-0.34912333,0.47317382,0.88096909,0,0)" />
        <path
           id="path33231"
           style="fill:#ffffff;stroke:#000000"
           d="m 99.8728,115.72339 c -2.335734,0.85845 -1.335235,0.46271 -4.0211,1.26243 -2.218863,-3.82912 -3.890072,-5.84572 -8.883817,-6.92002 -2.042392,-0.43938 0.258173,-3.66479 1.402708,-4.06786 5.009287,-0.3147 12.555889,8.97524 11.502209,9.72545 z"
           sodipodi:nodetypes="ccscc" />
      </g>
      <g
         id="g44258">
        <ellipse
           style="fill:#ffffff;fill-opacity:1;stroke:#000000;stroke-width:1;stroke-dasharray:none;stroke-opacity:1"
           id="path34685"
           cx="80.205154"
           cy="105.45623"
           rx="4.3483939"
           ry="4.1146092" />
        <ellipse
           style="fill:#000000;fill-opacity:1;stroke:none;stroke-width:0.480719;stroke-dasharray:none;stroke-opacity:1"
           id="ellipse34687"
           cx="79.760963"
           cy="105.90042"
           rx="1.9871691"
           ry="2.080683" />
        <path
           id="path36919"
           d="m 70.768341,109.12854 c 3.64866,-6.34132 4.358259,-8.58802 5.368786,-13.379179 4.481926,3.723662 -3.140958,12.784509 -5.368786,13.379179 z"
           style="fill:#000000;stroke:none;stroke-width:1.443"
           sodipodi:nodetypes="ccc" />
      </g>
      <g
         id="g6795"
         transform="matrix(1,0,0,-1,3.6470404,222.55918)">
        <ellipse
           style="fill:#ffffff;fill-opacity:1;stroke:#000000;stroke-width:1;stroke-dasharray:none;stroke-opacity:1"
           id="ellipse6789"
           cx="80.205154"
           cy="105.45623"
           rx="4.3483939"
           ry="4.1146092" />
        <ellipse
           style="fill:#000000;fill-opacity:1;stroke:none;stroke-width:0.480719;stroke-dasharray:none;stroke-opacity:1"
           id="ellipse6791"
           cx="79.760963"
           cy="105.90042"
           rx="1.9871691"
           ry="2.080683" />
        <path
           id="path6793"
           d="m 70.768341,109.12854 c 3.64866,-6.34132 4.358259,-8.58802 5.368786,-13.379179 4.481926,3.723662 -3.140958,12.784509 -5.368786,13.379179 z"
           style="fill:#000000;stroke:none;stroke-width:1.443"
           sodipodi:nodetypes="ccc" />
      </g>
    </g>
    <g
       id="g45308"
       transform="rotate(62.624537,177.15784,120.72658)">
      <path
         id="path45256"
         style="fill:#00ccff;stroke:#000000"
         d="m 107.35606,117.56155 c 0,0 0.0298,1.50541 0.0298,6.10688 0.002,6.03044 -10.523385,8.72125 -19.207651,8.57073 -8.684266,-0.15051 -18.114097,-1.90319 -18.163911,-8.29019 -0.09942,-7.76625 -0.01699,-6.06012 -0.01699,-6.06012 z"
         sodipodi:nodetypes="ccsccc" />
      <rect
         style="fill:#00ccff;fill-opacity:1;stroke:#000000;stroke-width:1;stroke-dasharray:none;stroke-opacity:1"
         id="rect45258"
         width="44.633896"
         height="9.8525143"
         x="109.2373"
         y="95.417336"
         rx="1.5"
         ry="1.7" />
      <rect
         style="fill:#369bb4;fill-opacity:1;stroke:none;stroke-width:1;stroke-dasharray:none;stroke-opacity:1"
         id="rect45260"
         width="43.311405"
         height="4.0335841"
         x="109.43568"
         y="100.11216"
         rx="1.5"
         ry="1.7" />
      <rect
         style="fill:#94eaff;fill-opacity:1;stroke:none;stroke-width:1;stroke-dasharray:none;stroke-opacity:1"
         id="rect45262"
         width="43.509781"
         height="1.5869862"
         x="109.43568"
         y="96.40799"
         rx="1.5"
         ry="0.79349309" />
      <rect
         style="fill:#ffcc00;fill-opacity:1;stroke:#000000;stroke-width:1;stroke-dasharray:none;stroke-opacity:1"
         id="rect45264"
         width="14.307619"
         height="16.458437"
         x="97.093292"
         y="92.204659"
         rx="1.5"
         ry="1.7" />
      <rect
         style="fill:#b49b36;fill-opacity:1;stroke:none;stroke-width:1;stroke-dasharray:none;stroke-opacity:1"
         id="rect45266"
         width="6.3479309"
         height="8.728405"
         x="104.07962"
         y="98.855797"
         rx="1.5"
         ry="0.79349303" />
      <path
         id="path45268"
         style="fill:#ffcc00;stroke:#000000"
         d="M 63.357804,96.932545 74.359209,92.204659 V 108.6631 l -10.935281,-5.62056 z"
         sodipodi:nodetypes="ccccc" />
      <path
         id="path45270"
         style="fill:#ffea94;fill-opacity:1;stroke:none"
         d="m 64.548041,97.825223 9.811168,-4.463389 v 5.514873 l -9.910355,1.454733 z"
         sodipodi:nodetypes="ccccc" />
      <path
         id="path45272"
         style="fill:#ffcc00;stroke:#000000"
         d="m 107.35606,74.699009 c 0,0 0.0298,37.488741 0.0298,42.090211 0.002,6.03044 -10.523385,8.72125 -19.207651,8.57073 -8.684266,-0.15051 -18.114097,-1.90319 -18.163911,-8.29019 -0.09942,-7.76625 -0.01699,-42.043453 -0.01699,-42.043453 z"
         sodipodi:nodetypes="ccsccc" />
      <path
         id="path45274"
         style="fill:#00ccff;stroke:#000000"
         d="m 107.35606,75.228091 c 0,0 0.0298,1.505401 0.0298,6.106847 0.002,6.030404 -10.523385,8.721199 -19.207651,8.570682 -8.684266,-0.15051 -18.114097,-1.903181 -18.163911,-8.290145 -0.09942,-7.766205 -0.01699,-6.060084 -0.01699,-6.060084 z"
         sodipodi:nodetypes="ccsccc" />
      <path
         id="path45276"
         style="fill:#6c6c6c;fill-opacity:0.505285;stroke:none"
         d="m 94.613573,75.372144 v 57.029076 c 6.706997,-0.951 12.751607,-3.60169 12.750097,-8.17159 0,-4.60147 -0.03,-6.10712 -0.03,-6.10712 l -0.0305,5.1e-4 c 0.0393,-0.25135 0.0605,-0.50844 0.0605,-0.77256 0,-4.58921 -0.0298,-41.77959 -0.03,-41.978316 z" />
      <path
         id="path45278"
         style="fill:#ffffff;fill-opacity:0.579281;stroke:none"
         d="m 82.724905,74.510449 -5.42396,0.04754 v 55.888581 c 1.65906,0.4825 3.50519,0.81635 5.42396,1.03663 z" />
      <path
         id="path45280"
         style="fill:#aaeeff;stroke:#000000"
         d="m 107.38583,74.984932 c 0.002,6.030402 -10.523385,8.7212 -19.207651,8.570688 -8.684266,-0.150512 -17.818001,-3.142335 -18.163911,-8.290146 0,-4.601449 8.22075,-8.612201 18.592269,-8.612201 10.371518,10e-7 18.779293,3.730211 18.779293,8.331659 z"
         sodipodi:nodetypes="cscsc" />
      <ellipse
         style="fill:#80e5ff;fill-opacity:1;stroke:none;stroke-width:1;stroke-dasharray:none;stroke-opacity:1"
         id="ellipse45282"
         cx="89.095322"
         cy="74.507156"
         rx="14.518025"
         ry="4.9328556" />
      <g
         id="g45290"
         transform="rotate(19.178711,105.2182,106.18476)">
        <path
           id="path45284"
           style="fill:#550000;stroke:#000000"
           d="m 104.73552,110.0658 c 0,4.02841 -2.26981,4.62399 -8.88382,7.29408 -2.218863,-3.82912 -1.658782,-4.57099 -8.883817,-7.29408 -3.769562,-1.42073 3.977421,-7.29408 8.883817,-7.29408 4.9064,0 8.88382,3.26567 8.88382,7.29408 z"
           sodipodi:nodetypes="zcssz" />
        <ellipse
           style="fill:#aa0000;fill-opacity:1;stroke:#000000;stroke-width:0.80326;stroke-dasharray:none;stroke-opacity:1"
           id="ellipse45286"
           cx="38.389923"
           cy="137.36449"
           rx="3.0326509"
           ry="4.0299535"
           transform="matrix(0.93707679,-0.34912333,0.47317382,0.88096909,0,0)" />
        <path
           id="path45288"
           style="fill:#ffffff;stroke:#000000"
           d="m 99.8728,115.72339 c -2.335734,0.85845 -1.335235,0.46271 -4.0211,1.26243 -2.218863,-3.82912 -3.890072,-5.84572 -8.883817,-6.92002 -2.042392,-0.43938 0.258173,-3.66479 1.402708,-4.06786 5.009287,-0.3147 12.555889,8.97524 11.502209,9.72545 z"
           sodipodi:nodetypes="ccscc" />
      </g>
      <g
         id="g45298">
        <ellipse
           style="fill:#ffffff;fill-opacity:1;stroke:#000000;stroke-width:1;stroke-dasharray:none;stroke-opacity:1"
           id="ellipse45292"
           cx="80.205154"
           cy="105.45623"
           rx="4.3483939"
           ry="4.1146092" />
        <ellipse
           style="fill:#000000;fill-opacity:1;stroke:none;stroke-width:0.480719;stroke-dasharray:none;stroke-opacity:1"
           id="ellipse45294"
           cx="79.760963"
           cy="105.90042"
           rx="1.9871691"
           ry="2.080683" />
        <path
           id="path45296"
           d="m 70.768341,109.12854 c 3.64866,-6.34132 4.358259,-8.58802 5.368786,-13.379179 4.481926,3.723662 -3.140958,12.784509 -5.368786,13.379179 z"
           style="fill:#000000;stroke:none;stroke-width:1.443"
           sodipodi:nodetypes="ccc" />
      </g>
      <g
         id="g45306"
         transform="matrix(1,0,0,-1,3.6470404,222.55918)">
        <ellipse
           style="fill:#ffffff;fill-opacity:1;stroke:#000000;stroke-width:1;stroke-dasharray:none;stroke-opacity:1"
           id="ellipse45300"
           cx="80.205154"
           cy="105.45623"
           rx="4.3483939"
           ry="4.1146092" />
        <ellipse
           style="fill:#000000;fill-opacity:1;stroke:none;stroke-width:0.480719;stroke-dasharray:none;stroke-opacity:1"
           id="ellipse45302"
           cx="79.760963"
           cy="105.90042"
           rx="1.9871691"
           ry="2.080683" />
        <path
           id="path45304"
           d="m 70.768341,109.12854 c 3.64866,-6.34132 4.358259,-8.58802 5.368786,-13.379179 4.481926,3.723662 -3.140958,12.784509 -5.368786,13.379179 z"
           style="fill:#000000;stroke:none;stroke-width:1.443"
           sodipodi:nodetypes="ccc" />
      </g>
    </g>
    <g
       id="g63998"
       transform="translate(-27.516678)">
      <path
         id="ellipse50776"
         style="fill:#c87137;fill-opacity:1;stroke:none;stroke-width:0.399883;stroke-dasharray:none"
         d="m 74.250248,206.85249 a 9.1643562,8.5097609 0 0 0 -5.23844,1.53117 9.1643562,8.5097609 0 0 0 -2.803963,-0.40876 9.1643562,8.5097609 0 0 0 -8.380884,5.08135 9.1643562,8.5097609 0 0 0 -0.783414,-0.0315 9.1643562,8.5097609 0 0 0 -8.895582,6.48126 9.1643562,8.5097609 0 0 0 -5.131469,7.63933 9.1643562,8.5097609 0 0 0 9.164298,8.50956 9.1643562,8.5097609 0 0 0 8.895581,-6.48126 9.1643562,8.5097609 0 0 0 4.349089,-4.21318 9.1643562,8.5097609 0 0 0 0.782381,0.0341 9.1643562,8.5097609 0 0 0 5.241024,-1.53273 9.1643562,8.5097609 0 0 0 2.801379,0.41031 9.1643562,8.5097609 0 0 0 4.395081,-1.04799 9.1643562,8.5097609 0 0 0 4.39508,1.04799 9.1643562,8.5097609 0 0 0 5.517493,-1.72186 9.1643562,8.5097609 0 0 0 5.516976,1.72186 9.1643562,8.5097609 0 0 0 4.994527,-1.38027 9.1643562,8.5097609 0 0 0 5.292185,1.56734 9.1643562,8.5097609 0 0 0 3.47989,-0.64182 9.1643562,8.5097609 0 0 0 8.11578,4.56923 9.1643562,8.5097609 0 0 0 2.07791,-0.22324 9.1643562,8.5097609 0 0 0 -0.0207,0.50384 9.1643562,8.5097609 0 0 0 9.1643,8.51008 9.1643562,8.5097609 0 0 0 9.1643,-8.51008 9.1643562,8.5097609 0 0 0 -9.1643,-8.50955 9.1643562,8.5097609 0 0 0 -2.07791,0.22324 9.1643562,8.5097609 0 0 0 0.0207,-0.50385 9.1643562,8.5097609 0 0 0 -9.1643,-8.50956 9.1643562,8.5097609 0 0 0 -3.4742,0.63924 9.1643562,8.5097609 0 0 0 -8.12147,-4.56716 9.1643562,8.5097609 0 0 0 -4.990911,1.37873 9.1643562,8.5097609 0 0 0 -5.295801,-1.5658 9.1643562,8.5097609 0 0 0 -5.512842,1.71928 9.1643562,8.5097609 0 0 0 -5.521627,-1.71928 9.1643562,8.5097609 0 0 0 -4.389913,1.04593 9.1643562,8.5097609 0 0 0 -4.400248,-1.04593 z" />
      <ellipse
         style="fill:#552200;fill-opacity:1;stroke:none;stroke-width:1;stroke-dasharray:none"
         id="path46814"
         cx="86.780861"
         cy="227.70622"
         rx="36.470402"
         ry="13.372481" />
      <path
         id="ellipse47854"
         style="fill:#c87137;fill-opacity:1;stroke:none;stroke-width:0.399883;stroke-dasharray:none"
         d="m 48.814238,220.50586 a 9.1643562,8.5097609 0 0 0 -9.164298,8.50956 9.1643562,8.5097609 0 0 0 0.0052,0.1235 9.1643562,8.5097609 0 0 0 -3.932577,6.98356 9.1643562,8.5097609 0 0 0 9.164299,8.50956 9.1643562,8.5097609 0 0 0 1.054716,-0.0625 9.1643562,8.5097609 0 0 0 8.483719,5.29941 9.1643562,8.5097609 0 0 0 4.684469,-1.19941 9.1643562,8.5097609 0 0 0 8.22017,4.7532 9.1643562,8.5097609 0 0 0 7.064168,-3.0949 9.1643562,8.5097609 0 0 0 7.524089,3.65559 9.1643562,8.5097609 0 0 0 4.467428,-1.08365 9.1643562,8.5097609 0 0 0 7.689453,3.88917 9.1643562,8.5097609 0 0 0 8.501806,-5.33973 9.1643562,8.5097609 0 0 0 5.33818,1.59939 9.1643562,8.5097609 0 0 0 6.83163,-2.84428 9.1643562,8.5097609 0 0 0 6.44715,2.47014 9.1643562,8.5097609 0 0 0 9.1643,-8.50956 9.1643562,8.5097609 0 0 0 -0.002,-0.12402 9.1643562,8.5097609 0 0 0 0.74982,0.0305 9.1643562,8.5097609 0 0 0 9.1643,-8.51008 9.1643562,8.5097609 0 0 0 -4.02714,-7.0466 9.1643562,8.5097609 0 0 0 -9.06456,-7.26105 9.1643562,8.5097609 0 0 0 -7.50962,3.63698 9.1643562,8.5097609 0 0 0 -0.9555,-0.25011 9.1643562,8.5097609 0 0 0 -0.0274,-0.005 9.1643562,8.5097609 0 0 0 -0.96635,-0.14934 9.1643562,8.5097609 0 0 0 -0.0202,-0.002 9.1643562,8.5097609 0 0 0 -0.99477,-0.0506 9.1643562,8.5097609 0 0 0 -1.40922,0.10283 9.1643562,8.5097609 0 0 0 -0.0522,0.009 9.1643562,8.5097609 0 0 0 -1.32447,0.29404 9.1643562,8.5097609 0 0 0 -0.0832,0.0269 9.1643562,8.5097609 0 0 0 -1.233,0.47232 9.1643562,8.5097609 0 0 0 -0.0868,0.0424 9.1643562,8.5097609 0 0 0 -1.12861,0.63768 9.1643562,8.5097609 0 0 0 -0.0909,0.0625 9.1643562,8.5097609 0 0 0 -0.99735,0.78445 9.1643562,8.5097609 0 0 0 -0.0858,0.0796 9.1643562,8.5097609 0 0 0 -0.85628,0.92294 9.1643562,8.5097609 0 0 0 -0.062,0.078 9.1643562,8.5097609 0 0 0 -0.15141,0.22634 9.1643562,8.5097609 0 0 0 -3.73207,2.45773 9.1643562,8.5097609 0 0 0 -5.726279,-1.89498 9.1643562,8.5097609 0 0 0 -7.747845,3.97651 9.1643562,8.5097609 0 0 0 -6.466272,-2.47996 9.1643562,8.5097609 0 0 0 -4.561995,1.13017 9.1643562,8.5097609 0 0 0 -7.594368,-3.74861 9.1643562,8.5097609 0 0 0 -5.848222,1.9637 9.1643562,8.5097609 0 0 0 -6.308659,-2.33784 9.1643562,8.5097609 0 0 0 -3.273702,0.56379 9.1643562,8.5097609 0 0 0 -9.070248,-7.29671 z" />
      <path
         id="path50868"
         style="fill:#d38d5f;fill-opacity:1;stroke:none;stroke-width:1.24996;stroke-dasharray:none"
         d="m 48.440142,224.80722 a 5.7978587,5.8913727 0 0 0 -5.797579,5.89163 5.7978587,5.8913727 0 0 0 0.03669,0.62581 5.7978587,5.8913727 0 0 0 -3.029272,5.17177 5.7978587,5.8913727 0 0 0 5.797579,5.89163 5.7978587,5.8913727 0 0 0 5.798095,-5.89163 5.7978587,5.8913727 0 0 0 -0.03359,-0.62735 5.7978587,5.8913727 0 0 0 3.026171,-5.17023 5.7978587,5.8913727 0 0 0 -5.798095,-5.89163 z m 74.623868,0.74828 a 5.4238029,5.1432619 0 0 0 -5.42344,5.14335 5.4238029,5.1432619 0 0 0 0.21497,1.42421 5.4238029,5.1432619 0 0 0 -2.08566,-0.39584 5.4238029,5.1432619 0 0 0 -5.42344,5.14335 5.4238029,5.1432619 0 0 0 3.43958,4.78679 5.9848862,6.358942 0 0 0 -0.26045,1.8526 5.9848862,6.358942 0 0 0 5.98517,6.3593 5.9848862,6.358942 0 0 0 5.98465,-6.3593 5.9848862,6.358942 0 0 0 -0.36846,-2.19625 5.9848862,6.358942 0 0 0 4.67052,2.38332 5.9848862,6.358942 0 0 0 5.98465,-6.35879 5.9848862,6.358942 0 0 0 -5.98465,-6.35878 5.9848862,6.358942 0 0 0 -1.33119,0.15916 5.4238029,5.1432619 0 0 0 0.0217,-0.43977 5.4238029,5.1432619 0 0 0 -5.42396,-5.14335 z m -63.308797,4.67568 a 4.3951507,5.0497479 0 0 0 -4.39508,5.04982 4.3951507,5.0497479 0 0 0 0.05891,0.81287 5.9848862,6.358942 0 0 0 -3.799251,5.92006 5.9848862,6.358942 0 0 0 5.984647,6.35878 5.9848862,6.358942 0 0 0 5.985165,-6.35878 5.9848862,6.358942 0 0 0 -0.769462,-3.11816 4.3951507,5.0497479 0 0 0 1.330151,-3.61477 4.3951507,5.0497479 0 0 0 -4.39508,-5.04982 z m 11.12852,2.43138 a 5.4238029,5.1432619 0 0 0 -5.423958,5.14335 5.4238029,5.1432619 0 0 0 0.706933,2.53577 5.9848862,6.358942 0 0 0 -2.577103,5.22552 5.9848862,6.358942 0 0 0 5.984647,6.3593 5.9848862,6.358942 0 0 0 5.985165,-6.3593 5.9848862,6.358942 0 0 0 -1.19941,-3.81786 5.4238029,5.1432619 0 0 0 1.947168,-3.94343 5.4238029,5.1432619 0 0 0 -5.423442,-5.14335 z m 11.408606,0.74827 a 5.4238029,5.1432619 0 0 0 -5.423958,5.14284 5.4238029,5.1432619 0 0 0 1.303796,3.33985 5.9848862,6.358942 0 0 0 -1.865002,4.60902 5.9848862,6.358942 0 0 0 5.985164,6.35879 5.9848862,6.358942 0 0 0 5.984648,-6.35879 5.9848862,6.358942 0 0 0 -1.862936,-4.61057 5.4238029,5.1432619 0 0 0 1.30173,-3.3383 5.4238029,5.1432619 0 0 0 -5.423442,-5.14284 z m 22.256001,0.37362 a 5.4238029,5.1432619 0 0 0 -5.326799,4.19665 5.4238029,5.1432619 0 0 0 -4.772321,-2.7001 5.4238029,5.1432619 0 0 0 -5.423959,5.14336 5.4238029,5.1432619 0 0 0 1.241785,3.2706 5.9848862,6.358942 0 0 0 -1.428853,4.11655 5.9848862,6.358942 0 0 0 5.984647,6.3593 5.9848862,6.358942 0 0 0 5.97018,-5.93659 5.9848862,6.358942 0 0 0 5.25187,3.31814 5.9848862,6.358942 0 0 0 5.98465,-6.3593 5.9848862,6.358942 0 0 0 -2.23914,-4.95835 5.4238029,5.1432619 0 0 0 0.1819,-1.3069 5.4238029,5.1432619 0 0 0 -5.42396,-5.14336 z m 16.43259,1.65985 a 5.4238029,5.1432619 0 0 0 2.08308,0.39739 5.4238029,5.1432619 0 0 0 0.93948,-0.0806 5.9848862,6.358942 0 0 0 -0.19121,1.57716 5.9848862,6.358942 0 0 0 0.37466,2.204 5.9848862,6.358942 0 0 0 -3.02514,-2.14405 5.4238029,5.1432619 0 0 0 0.032,-0.52762 5.4238029,5.1432619 0 0 0 -0.21291,-1.42627 z m -21.203869,5.92212 a 5.4238029,5.1432619 0 0 0 0.855239,1.11673 5.9848862,6.358942 0 0 0 -0.55707,2.28048 5.9848862,6.358942 0 0 0 -1.09192,-1.52239 5.4238029,5.1432619 0 0 0 0.793751,-1.87482 z" />
      <path
         id="path53183"
         style="fill:#deaa87;fill-opacity:1;stroke:none;stroke-width:1;stroke-dasharray:none"
         d="m 121.84838,225.36816 a 4.0210958,3.9275818 0 0 0 -4.02095,3.92792 4.0210958,3.9275818 0 0 0 4.02095,3.92741 4.0210958,3.9275818 0 0 0 4.02146,-3.92741 4.0210958,3.9275818 0 0 0 -4.02146,-3.92792 z m -73.875598,2.05775 a 4.0210958,3.9275818 0 0 0 -4.02146,3.92741 4.0210958,3.9275818 0 0 0 4.02146,3.92741 4.0210958,3.9275818 0 0 0 4.020944,-3.92741 4.0210958,3.9275818 0 0 0 -4.020944,-3.92741 z m 65.459568,1.49603 a 4.0210958,3.9275818 0 0 0 -4.02094,3.92741 4.0210958,3.9275818 0 0 0 4.02094,3.92793 4.0210958,3.9275818 0 0 0 4.02095,-3.92793 4.0210958,3.9275818 0 0 0 -4.02095,-3.92741 z m -54.612168,4.11448 a 4.0210958,3.9275818 0 0 0 -4.020943,3.92793 4.0210958,3.9275818 0 0 0 2.068608,3.43131 2.8989296,2.43136 0 0 0 -0.66611,-0.0651 2.8989296,2.43136 0 0 0 -2.899047,2.43138 2.8989296,2.43136 0 0 0 2.899047,2.43137 2.8989296,2.43136 0 0 0 2.899048,-2.43137 2.8989296,2.43136 0 0 0 -1.215946,-1.97973 4.0210958,3.9275818 0 0 0 0.935343,0.10956 4.0210958,3.9275818 0 0 0 4.020943,-3.92741 4.0210958,3.9275818 0 0 0 -4.020943,-3.92793 z m 11.595675,0.74828 a 4.0210958,3.9275818 0 0 0 -4.020943,3.92741 4.0210958,3.9275818 0 0 0 4.020943,3.92792 4.0210958,3.9275818 0 0 0 4.020943,-3.92792 4.0210958,3.9275818 0 0 0 -4.020943,-3.92741 z m 57.791823,0 a 2.8989296,2.43136 0 0 0 -2.89905,2.43137 2.8989296,2.43136 0 0 0 2.89905,2.43138 2.8989296,2.43136 0 0 0 2.89853,-2.43138 2.8989296,2.43136 0 0 0 -2.89853,-2.43137 z m -34.039268,0.37413 a 4.0210958,3.9275818 0 0 0 -4.020943,3.92741 4.0210958,3.9275818 0 0 0 4.020943,3.92741 4.0210958,3.9275818 0 0 0 4.020943,-3.92741 4.0210958,3.9275818 0 0 0 -4.020943,-3.92741 z m -11.034468,0.37414 a 4.0210958,3.9275818 0 0 0 -4.02146,3.92741 4.0210958,3.9275818 0 0 0 4.02146,3.92741 4.0210958,3.9275818 0 0 0 4.020943,-3.92741 4.0210958,3.9275818 0 0 0 -4.020943,-3.92741 z m 20.947046,0.18655 a 4.0210958,3.9275818 0 0 0 -4.02095,3.92793 4.0210958,3.9275818 0 0 0 4.02095,3.92741 4.0210958,3.9275818 0 0 0 4.02094,-3.92741 4.0210958,3.9275818 0 0 0 -4.02094,-3.92793 z m -60.410271,1.12242 a 2.8989296,2.43136 0 0 0 -2.898531,2.43137 2.8989296,2.43136 0 0 0 2.898531,2.43138 2.8989296,2.43136 0 0 0 2.899048,-2.43138 2.8989296,2.43136 0 0 0 -2.899048,-2.43137 z m 74.437321,1.6831 a 2.8989296,2.43136 0 0 0 -2.89905,2.43137 2.8989296,2.43136 0 0 0 2.89905,2.43138 2.8989296,2.43136 0 0 0 2.89904,-2.43138 2.8989296,2.43136 0 0 0 -2.89904,-2.43137 z m -47.879252,4.30154 a 2.8989296,2.43136 0 0 0 -2.899048,2.43138 2.8989296,2.43136 0 0 0 2.899048,2.43138 2.8989296,2.43136 0 0 0 2.899048,-2.43138 2.8989296,2.43136 0 0 0 -2.899048,-2.43138 z m 24.874968,2.24483 a 2.8989296,2.43136 0 0 0 -2.899048,2.43086 2.8989296,2.43136 0 0 0 2.899048,2.43137 2.8989296,2.43136 0 0 0 2.898531,-2.43137 2.8989296,2.43136 0 0 0 -2.898531,-2.43086 z m -13.279293,0.56069 a 2.8989296,2.43136 0 0 0 -2.898531,2.43137 2.8989296,2.43136 0 0 0 2.898531,2.43138 2.8989296,2.43136 0 0 0 2.899048,-2.43138 2.8989296,2.43136 0 0 0 -2.899048,-2.43137 z m 23.939627,0.18707 a 2.8989296,2.43136 0 0 0 -2.89905,2.43137 2.8989296,2.43136 0 0 0 2.89905,2.43138 2.8989296,2.43136 0 0 0 2.89904,-2.43138 2.8989296,2.43136 0 0 0 -2.89904,-2.43137 z" />
      <ellipse
         style="fill:#deaa87;fill-opacity:1;stroke:none;stroke-width:0.66805;stroke-dasharray:none"
         id="ellipse54717"
         cx="43.670963"
         cy="238.2733"
         rx="2.8989296"
         ry="2.43136" />
    </g>
    <g
       id="g54763"
       transform="translate(-28.264789,26.183879)">
      <path
         id="path46438"
         style="fill:#d45500;stroke:#000000"
         d="m 61.091128,200.55122 c 0.201224,-36.87466 3.492665,-65.77282 27.74703,-65.8913 24.254362,-0.11848 27.002422,30.36394 27.592292,65.13318 -20.511762,6.58955 -37.339737,6.6535 -55.339322,0.75812 z"
         sodipodi:nodetypes="czcc" />
      <path
         id="path33610"
         style="fill:#ffffff;fill-opacity:0.379182;stroke:none"
         d="m 63.207102,182.56541 c 1.240547,-15.66578 6.718719,-46.42718 24.905459,-46.34353 13.369649,0.0615 17.400369,7.12254 21.188169,16.00941 -8.65018,-11.20686 -12.829125,-12.03465 -20.923026,-11.83105 -12.551114,0.31573 -19.441513,24.0531 -25.170602,42.16517 z"
         sodipodi:nodetypes="cscsc" />
      <path
         id="path53027"
         d="m 85.798961,158.13193 c 3e-6,3.48613 -3.191851,7.04508 -4.161367,6.68625 -3.861294,-1.4291 -6.405702,-2.3585 -10.520309,-6.21868 1.706631,-2.08342 1.991356,-1.87933 3.153458,-3.43399 4.002584,0 9.878194,6.32951 11.528218,2.96642 z"
         sodipodi:nodetypes="csccc" />
      <g
         id="g61022"
         transform="translate(-1.6364924,0.28054156)">
        <ellipse
           style="fill:#000000;fill-opacity:1;stroke:none;stroke-width:1;stroke-dasharray:none;stroke-opacity:1"
           id="path58112"
           cx="76.803352"
           cy="167.06299"
           rx="3.8682702"
           ry="3.5376489" />
        <ellipse
           style="fill:#ffffff;fill-opacity:1;stroke:none;stroke-width:0.327653;stroke-dasharray:none;stroke-opacity:1"
           id="ellipse58114"
           cx="75.249435"
           cy="166.4348"
           rx="0.92573971"
           ry="1.5869826" />
      </g>
      <g
         id="g61028"
         transform="translate(24.512171,0.27251934)">
        <ellipse
           style="fill:#000000;fill-opacity:1;stroke:none;stroke-width:1;stroke-dasharray:none;stroke-opacity:1"
           id="ellipse61024"
           cx="76.803352"
           cy="167.06299"
           rx="3.8682702"
           ry="3.5376489" />
        <ellipse
           style="fill:#ffffff;fill-opacity:1;stroke:none;stroke-width:0.327653;stroke-dasharray:none;stroke-opacity:1"
           id="ellipse61026"
           cx="75.249435"
           cy="166.4348"
           rx="0.92573971"
           ry="1.5869826" />
      </g>
      <path
         id="path61756"
         d="m 91.056105,158.30428 c 0,3.48613 3.19185,7.04508 4.161366,6.68625 3.861287,-1.4291 6.405709,-2.3585 10.520309,-6.21868 -1.70663,-2.08342 -1.99135,-1.87933 -3.15345,-3.43399 -4.002592,0 -9.878202,6.32951 -11.528225,2.96642 z"
         sodipodi:nodetypes="csccc" />
      <path
         id="path29252"
         style="fill:#000000;fill-opacity:0.379182;stroke:none"
         d="m 61.884617,200.28672 c 0.10062,-18.43733 -0.825918,-1.887 -0.32562,-15.05941 8.69971,3.09417 15.520036,11.18083 26.882416,11.39106 11.362373,0.21022 19.448027,-7.06696 27.041837,-10.08851 0.84913,13.7079 1.07416,-0.002 1.7407,12.99874 -20.329335,5.93211 -37.465599,7.24328 -55.339333,0.75812 z"
         sodipodi:nodetypes="ccsccc" />
      <g
         id="g70614">
        <path
           id="path70607"
           style="fill:#ffffff;stroke:#000000"
           d="m 88.484327,179.39463 c -0.05866,1.61825 -0.105938,7.32541 -0.118139,8.7398 -3.124369,-0.18137 -4.580357,-9.39107 -4.580357,-9.39107 0,0 3.155516,0.47909 4.698496,0.65127 z"
           sodipodi:nodetypes="cccc" />
        <path
           id="path70610"
           style="fill:#ffffff;stroke:#000000"
           d="m 88.574468,179.72525 c 0.05866,1.61825 0.08941,6.97 0.101608,8.38439 3.124369,-0.18137 4.830672,-9.22269 4.830672,-9.22269 0,0 -3.3893,0.66612 -4.93228,0.8383 z"
           sodipodi:nodetypes="cccc" />
      </g>
      <g
         id="g69879"
         transform="translate(-0.23143498,-2.8764062)">
        <ellipse
           style="fill:#deaa87;fill-opacity:1;stroke:#000000;stroke-width:1;stroke-dasharray:none;stroke-opacity:1"
           id="path62484"
           cx="88.573471"
           cy="177.47757"
           rx="8.761467"
           ry="5.2238183" />
        <path
           style="fill:#deaa87;fill-opacity:1;stroke:#000000;stroke-width:1;stroke-dasharray:none;stroke-opacity:1"
           d="m 82.853723,176.28733 c -4.231954,-1.32248 -7.934914,-2.51272 -7.934914,-2.51272"
           id="path64770"
           sodipodi:nodetypes="cc" />
        <path
           style="fill:#deaa87;fill-opacity:1;stroke:#000000;stroke-width:1;stroke-dasharray:none;stroke-opacity:1"
           d="m 82.787599,177.94044 c -4.802667,-0.0384 -1.95845,0.037 -8.662281,0"
           id="path65498"
           sodipodi:nodetypes="cc" />
        <path
           style="fill:#deaa87;fill-opacity:1;stroke:#000000;stroke-width:1;stroke-dasharray:none;stroke-opacity:1"
           d="m 82.65535,179.59477 c -4.231954,1.32248 -7.934914,2.51272 -7.934914,2.51272"
           id="path65500"
           sodipodi:nodetypes="cc" />
        <path
           style="fill:#deaa87;fill-opacity:1;stroke:#000000;stroke-width:1;stroke-dasharray:none;stroke-opacity:1"
           d="m 94.844743,176.19382 c 4.231954,-1.32248 7.934917,-2.51272 7.934917,-2.51272"
           id="path65502"
           sodipodi:nodetypes="cc" />
        <path
           style="fill:#deaa87;fill-opacity:1;stroke:#000000;stroke-width:1;stroke-dasharray:none;stroke-opacity:1"
           d="m 94.910867,177.84693 c 4.802667,-0.0384 1.95845,0.037 8.662283,0"
           id="path65504"
           sodipodi:nodetypes="cc" />
        <path
           style="fill:#deaa87;fill-opacity:1;stroke:#000000;stroke-width:1;stroke-dasharray:none;stroke-opacity:1"
           d="m 95.043116,179.50126 c 4.231954,1.32248 7.934914,2.51272 7.934914,2.51272"
           id="path65506"
           sodipodi:nodetypes="cc" />
        <path
           id="ellipse66234"
           d="m 92.888134,174.24159 c 0.310263,1.65066 -3.647229,4.71219 -4.606204,4.71051 -1.161161,0.14394 -4.360319,-4.28574 -3.663195,-5.06499 0.697123,-0.77926 8.080062,-0.82924 8.269399,0.35448 z"
           sodipodi:nodetypes="cczc"
           style="stroke-width:0.834278" />
        <path
           id="path67689"
           style="fill:#ffffff"
           d="m 86.886053,174.67219 c -0.479407,0.22113 -1.129433,0.67826 -0.853313,1.44947 0.154506,0.43154 -0.80656,-1.08149 -0.806557,-1.44947 -3e-6,-0.36798 0.371573,-0.66629 0.829935,-0.66629 0.458362,0 3.526859,-0.57767 0.829935,0.66629 z"
           sodipodi:nodetypes="sssss" />
      </g>
      <g
         id="g22706"
         transform="rotate(-55.312306,160.51689,200.82976)">
        <path
           id="path15185"
           style="fill:#deaa87;fill-opacity:1;stroke:#000000;stroke-width:1;stroke-dasharray:none"
           d="m 137.9947,162.45695 c 0,6.0509 -0.10958,6.2103 -0.29555,13.50438 -3.88449,-7.3198 -5.11099,-4.40219 -5.28354,-11.62573 1.84585,-0.95852 4.19976,-1.87453 5.57909,-1.87865 z"
           sodipodi:nodetypes="cccc" />
        <path
           id="path20520"
           style="fill:#deaa87;fill-opacity:1;stroke:#000000;stroke-width:1;stroke-dasharray:none"
           d="m 144.87562,162.4102 c 0,6.0509 -0.1242,8.2676 0.0618,15.56168 3.88449,-7.3198 5.43829,-5.29057 5.61084,-12.51411 -1.84585,-0.95852 -4.29328,-3.04345 -5.67261,-3.04757 z"
           sodipodi:nodetypes="cccc" />
        <path
           id="path21974"
           style="fill:#deaa87;fill-opacity:1;stroke:#000000;stroke-width:1;stroke-dasharray:none"
           d="m 138.2829,161.89587 c 0,6.0509 1.41878,8.9222 2.21259,16.16952 3.88449,-7.3198 4.2226,-8.23625 4.39515,-15.45979 -1.84585,-0.53771 -5.22841,-0.70561 -6.60774,-0.70973 z"
           sodipodi:nodetypes="cccc" />
        <path
           id="path9027"
           style="fill:#d45500;stroke:#000000;stroke-width:1;stroke-dasharray:none"
           d="m 141.53296,152.50594 a 9.2261126,10.956118 0 0 0 -9.22579,10.95643 9.2261126,10.956118 0 0 0 0.0527,1.10433 9.1968511,12.420394 88.568063 0 1 7.68273,-2.34249 9.1968511,12.420394 88.568063 0 1 10.48929,3.65507 9.2261126,10.956118 0 0 0 0.22737,-2.41691 9.2261126,10.956118 0 0 0 -9.22631,-10.95643 z" />
      </g>
      <path
         id="path18870"
         style="fill:#ff2a2a;stroke-width:0.234965"
         d="m 86.628902,181.77341 c 0,0.79729 -0.277373,1.44362 -0.61953,1.44362 -0.342156,0 -0.350677,-0.52944 -0.350677,-1.32673 0,-0.79729 0.335819,-0.46172 0.350677,-1.56051 0.505806,0.25716 0.61953,0.64633 0.61953,1.44362 z"
         sodipodi:nodetypes="ssscs" />
      <g
         id="g19066"
         transform="rotate(-18.063413,102.03225,168.37287)">
        <path
           id="path18982"
           d="m 105.88457,169.52396 c -0.55791,2.14156 -5.52626,3.99585 -6.533919,1.86857 3.044359,0.8737 4.203599,-0.38913 6.533919,-1.86857 z"
           sodipodi:nodetypes="ccc"
           style="stroke-width:0.753998" />
        <path
           id="path18984"
           d="m 104.81818,171.58101 c -0.28366,1.21012 -2.96324,2.22333 -3.52902,1.00923 1.65983,0.51894 2.27764,-0.18824 3.52902,-1.00923 z"
           sodipodi:nodetypes="ccc"
           style="stroke-width:0.418219" />
      </g>
      <g
         id="g19000"
         transform="rotate(13.869714,105.67903,34.164274)">
        <path
           id="path18990"
           d="m 103.7458,173.171 c 0.55791,2.14156 5.52626,3.99585 6.53392,1.86857 -3.04436,0.8737 -4.2036,-0.38913 -6.53392,-1.86857 z"
           sodipodi:nodetypes="ccc"
           style="stroke-width:0.753998" />
        <path
           id="path18992"
           d="m 104.81219,175.32156 c 0.28366,1.21012 2.96324,2.22333 3.52902,1.00923 -1.65983,0.51894 -2.27764,-0.18824 -3.52902,-1.00923 z"
           sodipodi:nodetypes="ccc"
           style="stroke-width:0.418219" />
      </g>
      <g
         id="g24168"
         transform="matrix(-0.63150632,-0.77537073,-0.77537073,0.63150632,273.99287,201.95361)">
        <path
           id="path24160"
           style="fill:#deaa87;fill-opacity:1;stroke:#000000;stroke-width:1;stroke-dasharray:none"
           d="m 137.9947,162.45695 c 0,6.0509 -0.10958,6.2103 -0.29555,13.50438 -3.88449,-7.3198 -5.11099,-4.40219 -5.28354,-11.62573 1.84585,-0.95852 4.19976,-1.87453 5.57909,-1.87865 z"
           sodipodi:nodetypes="cccc" />
        <path
           id="path24162"
           style="fill:#deaa87;fill-opacity:1;stroke:#000000;stroke-width:1;stroke-dasharray:none"
           d="m 144.87562,162.4102 c 0,6.0509 -0.1242,8.2676 0.0618,15.56168 3.88449,-7.3198 5.43829,-5.29057 5.61084,-12.51411 -1.84585,-0.95852 -4.29328,-3.04345 -5.67261,-3.04757 z"
           sodipodi:nodetypes="cccc" />
        <path
           id="path24164"
           style="fill:#deaa87;fill-opacity:1;stroke:#000000;stroke-width:1;stroke-dasharray:none"
           d="m 138.2829,161.89587 c 0,6.0509 1.41878,8.9222 2.21259,16.16952 3.88449,-7.3198 4.2226,-8.23625 4.39515,-15.45979 -1.84585,-0.53771 -5.22841,-0.70561 -6.60774,-0.70973 z"
           sodipodi:nodetypes="cccc" />
        <path
           id="path24166"
           style="fill:#d45500;stroke:#000000;stroke-width:1;stroke-dasharray:none"
           d="m 141.53296,152.50594 a 9.2261126,10.956118 0 0 0 -9.22579,10.95643 9.2261126,10.956118 0 0 0 0.0527,1.10433 9.1968511,12.420394 88.568063 0 1 7.68273,-2.34249 9.1968511,12.420394 88.568063 0 1 10.48929,3.65507 9.2261126,10.956118 0 0 0 0.22737,-2.41691 9.2261126,10.956118 0 0 0 -9.22631,-10.95643 z" />
      </g>
    </g>
    <g
       id="g1353">
      <path
         id="path69989"
         style="fill:#d45500;stroke:#000000"
         d="m 131.57697,226.7351 c 0.20122,-36.87466 3.49266,-65.77282 27.74703,-65.8913 24.25436,-0.11848 27.00242,30.36394 27.59229,65.13318 -20.51176,6.58955 -37.33974,6.6535 -55.33932,0.75812 z"
         sodipodi:nodetypes="czcc" />
      <path
         id="path69991"
         style="fill:#ffffff;fill-opacity:0.379182;stroke:none"
         d="m 133.69294,208.74929 c 1.24055,-15.66578 7.97508,-46.42718 24.31034,-40.78909 12.44391,-6.08806 17.99549,1.5681 21.78329,10.45497 -8.65018,-11.20686 -14.15008,-8.32345 -21.78264,-5.1525 -8.25304,-5.5032 -18.5819,17.37455 -24.31099,35.48662 z"
         sodipodi:nodetypes="ccccc" />
      <path
         id="path69993"
         d="m 157.50797,194.58733 c -1.93391,2.90054 -3.2363,2.78154 -3.38419,1.75839 -0.59638,-4.12595 -1.58996,-6.03019 -5.30334,-11.01016 2.57572,-0.7867 2.69939,-0.45895 4.52873,-1.10779 3.33023,2.22041 0.92029,12.24238 4.1588,10.35956 z"
         sodipodi:nodetypes="csccc" />
      <path
         id="path70009"
         style="fill:#000000;fill-opacity:0.379182;stroke:none"
         d="m 132.37046,226.4706 c 0.10062,-18.43733 -0.82592,-1.887 -0.32562,-15.05941 8.69971,3.09417 15.52003,11.18083 26.88241,11.39106 11.36238,0.21022 19.44803,-7.06696 27.04184,-10.08851 0.84913,13.7079 1.07416,-0.002 1.7407,12.99874 -20.32933,5.93211 -37.4656,7.24328 -55.33933,0.75812 z"
         sodipodi:nodetypes="ccsccc" />
      <ellipse
         style="fill:#550000;fill-opacity:1;stroke:#000000;stroke-width:0.874677;stroke-dasharray:none;stroke-opacity:1"
         id="path70127"
         cx="159.78932"
         cy="213.54837"
         rx="4.6582985"
         ry="4.1293049" />
      <path
         id="path70013"
         style="fill:#ffffff;stroke:#000000"
         d="m 161.82848,210.20499 c 0.99891,1.2745 4.17023,5.58553 5.01167,6.72246 2.4207,-1.98364 -1.51477,-10.30043 -1.51477,-10.30043 0,0 -2.35,2.53152 -3.4969,3.57797 z"
         sodipodi:nodetypes="cccc" />
      <path
         id="path70011"
         style="fill:#ffffff;stroke:#000000"
         d="m 157.69255,210.11076 c -0.94157,1.31744 -4.12897,6.05182 -4.91931,7.22485 -2.50604,-1.87464 1.35945,-10.35972 1.35945,-10.35972 0,0 2.36781,2.14017 3.55986,3.13487 z"
         sodipodi:nodetypes="cccc" />
      <g
         id="g70035"
         transform="translate(70.783574,28.069976)">
        <ellipse
           style="fill:#deaa87;fill-opacity:1;stroke:#000000;stroke-width:1;stroke-dasharray:none;stroke-opacity:1"
           id="ellipse70017"
           cx="88.573471"
           cy="177.47757"
           rx="8.761467"
           ry="5.2238183" />
        <path
           style="fill:#deaa87;fill-opacity:1;stroke:#000000;stroke-width:1;stroke-dasharray:none;stroke-opacity:1"
           d="m 82.853723,176.28733 c -4.231954,-1.32248 -7.934914,-2.51272 -7.934914,-2.51272"
           id="path70019"
           sodipodi:nodetypes="cc" />
        <path
           style="fill:#deaa87;fill-opacity:1;stroke:#000000;stroke-width:1;stroke-dasharray:none;stroke-opacity:1"
           d="m 82.787599,177.94044 c -4.802667,-0.0384 -1.95845,0.037 -8.662281,0"
           id="path70021"
           sodipodi:nodetypes="cc" />
        <path
           style="fill:#deaa87;fill-opacity:1;stroke:#000000;stroke-width:1;stroke-dasharray:none;stroke-opacity:1"
           d="m 82.65535,179.59477 c -4.231954,1.32248 -7.934914,2.51272 -7.934914,2.51272"
           id="path70023"
           sodipodi:nodetypes="cc" />
        <path
           style="fill:#deaa87;fill-opacity:1;stroke:#000000;stroke-width:1;stroke-dasharray:none;stroke-opacity:1"
           d="m 94.844743,176.19382 c 4.231954,-1.32248 7.934917,-2.51272 7.934917,-2.51272"
           id="path70025"
           sodipodi:nodetypes="cc" />
        <path
           style="fill:#deaa87;fill-opacity:1;stroke:#000000;stroke-width:1;stroke-dasharray:none;stroke-opacity:1"
           d="m 94.910867,177.84693 c 4.802667,-0.0384 1.95845,0.037 8.662283,0"
           id="path70027"
           sodipodi:nodetypes="cc" />
        <path
           style="fill:#deaa87;fill-opacity:1;stroke:#000000;stroke-width:1;stroke-dasharray:none;stroke-opacity:1"
           d="m 95.043116,179.50126 c 4.231954,1.32248 7.934914,2.51272 7.934914,2.51272"
           id="path70029"
           sodipodi:nodetypes="cc" />
        <path
           id="path70031"
           d="m 92.888134,174.24159 c 0.310263,1.65066 -3.647229,4.71219 -4.606204,4.71051 -1.161161,0.14394 -4.360319,-4.28574 -3.663195,-5.06499 0.697123,-0.77926 8.080062,-0.82924 8.269399,0.35448 z"
           sodipodi:nodetypes="cczc"
           style="stroke-width:0.834278" />
        <path
           id="path70033"
           style="fill:#ffffff"
           d="m 86.886053,174.67219 c -0.479407,0.22113 -1.129433,0.67826 -0.853313,1.44947 0.154506,0.43154 -0.80656,-1.08149 -0.806557,-1.44947 -3e-6,-0.36798 0.371573,-0.66629 0.829935,-0.66629 0.458362,0 3.526859,-0.57767 0.829935,0.66629 z"
           sodipodi:nodetypes="sssss" />
      </g>
      <g
         id="g70045"
         transform="rotate(-55.312306,220.74272,146.66883)">
        <path
           id="path70037"
           style="fill:#deaa87;fill-opacity:1;stroke:#000000;stroke-width:1;stroke-dasharray:none"
           d="m 137.9947,162.45695 c 0,6.0509 -0.10958,6.2103 -0.29555,13.50438 -3.88449,-7.3198 -5.11099,-4.40219 -5.28354,-11.62573 1.84585,-0.95852 4.19976,-1.87453 5.57909,-1.87865 z"
           sodipodi:nodetypes="cccc" />
        <path
           id="path70039"
           style="fill:#deaa87;fill-opacity:1;stroke:#000000;stroke-width:1;stroke-dasharray:none"
           d="m 144.87562,162.4102 c 0,6.0509 -0.1242,8.2676 0.0618,15.56168 3.88449,-7.3198 5.43829,-5.29057 5.61084,-12.51411 -1.84585,-0.95852 -4.29328,-3.04345 -5.67261,-3.04757 z"
           sodipodi:nodetypes="cccc" />
        <path
           id="path70041"
           style="fill:#deaa87;fill-opacity:1;stroke:#000000;stroke-width:1;stroke-dasharray:none"
           d="m 138.2829,161.89587 c 0,6.0509 1.41878,8.9222 2.21259,16.16952 3.88449,-7.3198 4.2226,-8.23625 4.39515,-15.45979 -1.84585,-0.53771 -5.22841,-0.70561 -6.60774,-0.70973 z"
           sodipodi:nodetypes="cccc" />
        <path
           id="path70043"
           style="fill:#d45500;stroke:#000000;stroke-width:1;stroke-dasharray:none"
           d="m 141.53296,152.50594 a 9.2261126,10.956118 0 0 0 -9.22579,10.95643 9.2261126,10.956118 0 0 0 0.0527,1.10433 9.1968511,12.420394 88.568063 0 1 7.68273,-2.34249 9.1968511,12.420394 88.568063 0 1 10.48929,3.65507 9.2261126,10.956118 0 0 0 0.22737,-2.41691 9.2261126,10.956118 0 0 0 -9.22631,-10.95643 z" />
      </g>
      <g
         id="g70069"
         transform="matrix(-0.63150632,-0.77537073,-0.77537073,0.63150632,344.47871,228.13749)">
        <path
           id="path70061"
           style="fill:#deaa87;fill-opacity:1;stroke:#000000;stroke-width:1;stroke-dasharray:none"
           d="m 137.9947,162.45695 c 0,6.0509 -0.10958,6.2103 -0.29555,13.50438 -3.88449,-7.3198 -5.11099,-4.40219 -5.28354,-11.62573 1.84585,-0.95852 4.19976,-1.87453 5.57909,-1.87865 z"
           sodipodi:nodetypes="cccc" />
        <path
           id="path70063"
           style="fill:#deaa87;fill-opacity:1;stroke:#000000;stroke-width:1;stroke-dasharray:none"
           d="m 144.87562,162.4102 c 0,6.0509 -0.1242,8.2676 0.0618,15.56168 3.88449,-7.3198 5.43829,-5.29057 5.61084,-12.51411 -1.84585,-0.95852 -4.29328,-3.04345 -5.67261,-3.04757 z"
           sodipodi:nodetypes="cccc" />
        <path
           id="path70065"
           style="fill:#deaa87;fill-opacity:1;stroke:#000000;stroke-width:1;stroke-dasharray:none"
           d="m 138.2829,161.89587 c 0,6.0509 1.41878,8.9222 2.21259,16.16952 3.88449,-7.3198 4.2226,-8.23625 4.39515,-15.45979 -1.84585,-0.53771 -5.22841,-0.70561 -6.60774,-0.70973 z"
           sodipodi:nodetypes="cccc" />
        <path
           id="path70067"
           style="fill:#d45500;stroke:#000000;stroke-width:1;stroke-dasharray:none"
           d="m 141.53296,152.50594 a 9.2261126,10.956118 0 0 0 -9.22579,10.95643 9.2261126,10.956118 0 0 0 0.0527,1.10433 9.1968511,12.420394 88.568063 0 1 7.68273,-2.34249 9.1968511,12.420394 88.568063 0 1 10.48929,3.65507 9.2261126,10.956118 0 0 0 0.22737,-2.41691 9.2261126,10.956118 0 0 0 -9.22631,-10.95643 z" />
      </g>
      <path
         id="path70114"
         d="m 151.7217,197.21273 c 0.40261,1.02096 -1.94537,-0.51452 -3.59094,0.1344 -1.64555,0.64891 -1.96555,3.23648 -2.36816,2.21552 -0.40261,-1.02097 0.40589,-2.49721 2.05146,-3.14612 1.64555,-0.64891 3.50503,-0.22477 3.90764,0.7962 z"
         sodipodi:nodetypes="sssss" />
      <path
         id="path70117"
         d="m 171.94529,199.87489 c -0.39678,1.02324 -1.08028,-1.6977 -2.72951,-2.33722 -1.64923,-0.63952 -3.63967,1.04456 -3.24289,0.0213 0.39678,-1.02324 1.99224,-1.55941 3.64148,-0.91989 1.64923,0.63952 2.72771,2.21255 2.33092,3.2358 z"
         sodipodi:nodetypes="sssss" />
      <path
         id="path70119"
         d="m 160.46292,194.35355 c 1.93391,2.90054 3.2363,2.78154 3.38419,1.75839 0.59638,-4.12595 1.58996,-6.03019 5.30334,-11.01016 -2.57572,-0.7867 -2.69939,-0.45895 -4.52873,-1.10779 -3.33023,2.22041 -0.92029,12.24238 -4.1588,10.35956 z"
         sodipodi:nodetypes="csccc" />
      <path
         id="path70247"
         d="m 155.9061,217.96388 c 1.93407,1.19039 5.55461,1.24512 8.53133,-0.42718 -1.97672,3.50237 -8.73518,2.36163 -8.53133,0.42718 z"
         sodipodi:nodetypes="ccc" />
      <path
         id="path1064"
         style="fill:#aa0000"
         d="m 163.66092,214.80131 c 0,1.03292 -1.82502,2.38667 -3.95096,2.34953 -1.9858,-0.0347 -3.64704,-1.17634 -3.64704,-2.20926 0,-0.87692 2.61852,-2.03075 3.72202,-0.15887 1.44711,-1.89948 3.87598,-1.01433 3.87598,0.0186 z"
         sodipodi:nodetypes="csscc" />
    </g>
  </g>
</svg>
