<?xml version="1.0" encoding="UTF-8" standalone="no"?>
<!-- Created with Inkscape (http://www.inkscape.org/) -->

<svg
   width="143.98398mm"
   height="41.674454mm"
   viewBox="0 0 143.98398 41.674454"
   version="1.1"
   id="svg51435"
   inkscape:version="1.2.2 (732a01da63, 2022-12-09)"
   sodipodi:docname="cloud_bw.svg"
   xmlns:inkscape="http://www.inkscape.org/namespaces/inkscape"
   xmlns:sodipodi="http://sodipodi.sourceforge.net/DTD/sodipodi-0.dtd"
   xmlns="http://www.w3.org/2000/svg"
   xmlns:svg="http://www.w3.org/2000/svg">
  <sodipodi:namedview
     id="namedview51437"
     pagecolor="#ffffff"
     bordercolor="#000000"
     borderopacity="0.25"
     inkscape:showpageshadow="2"
     inkscape:pageopacity="0.0"
     inkscape:pagecheckerboard="0"
     inkscape:deskcolor="#d1d1d1"
     inkscape:document-units="mm"
     showgrid="false"
     inkscape:zoom="0.75544332"
     inkscape:cx="364.68653"
     inkscape:cy="338.212"
     inkscape:window-width="1920"
     inkscape:window-height="1009"
     inkscape:window-x="-8"
     inkscape:window-y="-8"
     inkscape:window-maximized="1"
     inkscape:current-layer="layer1" />
  <defs
     id="defs51432" />
  <g
     inkscape:label="Layer 1"
     inkscape:groupmode="layer"
     id="layer1"
     transform="translate(-8.912495,-59.016545)">
    <path
       id="path50783"
       style="fill:#333333;fill-opacity:1;stroke:none;stroke-width:0.432051"
       d="M 62.902481,59.016545 A 29.639631,20.688782 0 0 0 33.303771,78.90732 24.573029,10.893198 0 0 0 8.912495,89.798128 24.573029,10.893198 0 0 0 33.485672,100.691 24.573029,10.893198 0 0 0 49.376692,98.100981 29.639631,20.688782 0 0 0 62.902481,100.39438 29.639631,20.688782 0 0 0 81.909073,95.567802 23.559708,15.453141 0 0 0 96.910228,99.109705 23.559708,15.453141 0 0 0 110.01227,96.489709 24.573029,10.893198 0 0 0 128.3233,100.12308 24.573029,10.893198 0 0 0 152.89647,89.229687 24.573029,10.893198 0 0 0 128.3233,78.336812 24.573029,10.893198 0 0 0 119.41376,79.08302 23.559708,15.453141 0 0 0 96.910228,68.203581 23.559708,15.453141 0 0 0 88.467328,69.23866 29.639631,20.688782 0 0 0 62.902481,59.016545 Z m 0.229443,1.795756 a 26.274776,16.356709 0 0 1 24.453284,10.373527 21.259094,12.415815 0 0 1 9.22321,-1.237651 21.259094,12.415815 0 0 1 21.234882,11.825118 20.005175,7.4896994 0 0 1 12.97957,-1.793689 20.005175,7.4896994 0 0 1 20.00498,7.489465 20.005175,7.4896994 0 0 1 -20.00498,7.489983 20.005175,7.4896994 0 0 1 -18.23351,-4.417819 21.259094,12.415815 0 0 1 -15.980942,4.238501 21.259094,12.415815 0 0 1 -17.001542,-4.97334 26.274776,16.356709 0 0 1 -16.674952,3.71967 26.274776,16.356709 0 0 1 -14.057539,-2.547131 20.632135,6.5044775 0 0 1 -14.335043,1.830379 20.632135,6.5044775 0 0 1 -20.631815,-6.504513 20.632135,6.5044775 0 0 1 20.631815,-6.504512 20.632135,6.5044775 0 0 1 2.487704,0.04806 26.274776,16.356709 0 0 1 -0.370004,-2.679423 26.274776,16.356709 0 0 1 26.274882,-16.356624 z" />
  </g>
</svg>
