<?xml version="1.0" encoding="UTF-8" standalone="no"?>
<!-- Created with Inkscape (http://www.inkscape.org/) -->

<svg
   width="210mm"
   height="297mm"
   viewBox="0 0 210 297"
   version="1.1"
   id="svg5"
   inkscape:version="1.2.2 (732a01da63, 2022-12-09)"
   sodipodi:docname="dinorun_all.svg"
   xmlns:inkscape="http://www.inkscape.org/namespaces/inkscape"
   xmlns:sodipodi="http://sodipodi.sourceforge.net/DTD/sodipodi-0.dtd"
   xmlns="http://www.w3.org/2000/svg"
   xmlns:svg="http://www.w3.org/2000/svg">
  <sodipodi:namedview
     id="namedview7"
     pagecolor="#ffffff"
     bordercolor="#000000"
     borderopacity="0.25"
     inkscape:showpageshadow="2"
     inkscape:pageopacity="0.0"
     inkscape:pagecheckerboard="0"
     inkscape:deskcolor="#d1d1d1"
     inkscape:document-units="mm"
     showgrid="false"
     inkscape:zoom="0.73851712"
     inkscape:cx="107.64815"
     inkscape:cy="474.5997"
     inkscape:window-width="1920"
     inkscape:window-height="1009"
     inkscape:window-x="-8"
     inkscape:window-y="-8"
     inkscape:window-maximized="1"
     inkscape:current-layer="layer1" />
  <defs
     id="defs2" />
  <g
     inkscape:label="Layer 1"
     inkscape:groupmode="layer"
     id="layer1">
    <g
       id="g43503"
       transform="translate(0,41.27502)">
      <path
         id="rect32547"
         style="fill:#333333;stroke:none;stroke-width:0.4"
         d="m 39.349095,133.41322 h 0.08957 c 0.81872,0 2.129437,1.99765 2.111158,4.29931 -0.01828,2.30166 -0.947803,4.83326 -0.696658,5.21639 0.251146,0.38312 2.742629,-0.66236 3.933553,-0.4011 1.190923,0.26125 1.141185,1.9393 0.731871,1.94544 l -6.327825,0.095 c -0.818628,0.0123 -1.319503,-1.37429 -1.319503,-2.01934 v -7.97135 c 0,-0.64505 0.659114,-1.16435 1.477834,-1.16435 z"
         sodipodi:nodetypes="sszzssssss" />
      <path
         id="rect7590"
         style="fill:#323232;fill-opacity:1;stroke:none;stroke-width:0.4"
         d="m 51.055827,100.78077 c -1.411399,0 -2.927643,1.59744 -2.927643,3.58222 0,0 0.103243,4.61049 0.398545,9.41411 0.295302,4.80361 -7.365808,8.69804 -10.552579,8.51721 -3.186771,-0.18084 -5.456409,-4.79065 -7.526386,-3.92707 -2.069977,0.86358 -0.40244,9.47879 1.858909,13.61586 2.908601,5.32119 10.489543,6.05072 14.411369,5.78107 4.05422,-0.27876 7.854416,-3.40687 9.235602,-8.62431 1.381186,-5.21743 -3.969031,-14.76561 -0.429318,-13.80164 3.539714,0.96397 11.723742,-0.0678 11.723742,-0.0678 1.048647,0 0.361802,-1.57894 0.753495,-2.8464 h -9.243364 c -1.411399,0 -2.547648,-0.71915 -2.547648,-1.6123 0,-0.89315 1.136249,-1.61179 2.547648,-1.61179 h 9.454203 v -4.83694 c 0,-1.98478 -1.136249,-3.58222 -2.547648,-3.58222 z"
         sodipodi:nodetypes="sszzzsszzscssscsss" />
      <rect
         style="fill:#ececec;fill-opacity:1;stroke:none;stroke-width:0.4"
         id="rect9927"
         width="4.7022133"
         height="3.3587139"
         x="52.448887"
         y="103.34087"
         rx="1.8584951"
         ry="1.6121826" />
      <rect
         style="fill:#333333;fill-opacity:1;stroke:none;stroke-width:0.4"
         id="rect10655"
         width="1.7913202"
         height="1.7017481"
         x="53.837158"
         y="104.23651"
         rx="0.8956601"
         ry="0.62695861" />
      <path
         id="path34728"
         style="fill:#333333;stroke:none;stroke-width:0.4"
         d="m 50.305625,128.72661 h 0.08957 c 0.81872,0 2.129437,1.99765 2.111158,4.29931 -0.01828,2.30166 -0.947803,4.83326 -0.696658,5.21639 0.251146,0.38312 2.742629,-0.66236 3.933553,-0.4011 1.190923,0.26125 1.141185,1.9393 0.731871,1.94544 l -6.327825,0.095 c -0.818628,0.0123 -1.319503,-1.37429 -1.319503,-2.01934 v -7.97135 c 0,-0.64505 0.659114,-1.16435 1.477834,-1.16435 z"
         sodipodi:nodetypes="sszzssssss" />
      <path
         id="path35456"
         style="fill:#333333;stroke:none;stroke-width:0.352231"
         d="m 50.093654,124.31114 9.09e-4,0.0695 c 0.0083,0.63482 2.019138,1.63541 4.320494,1.60314 2.301357,-0.0323 4.823402,-0.7729 5.209059,-0.58118 0.385646,0.19172 -0.634518,2.13177 -0.361196,3.05313 0.273312,0.92137 1.950771,0.86961 1.952761,0.55218 l 0.03083,-4.90719 c 0.004,-0.63484 -1.387599,-1.01231 -2.032616,-1.00723 l -7.97094,0.0626 c -0.645017,0.005 -1.157607,0.52022 -1.149306,1.15504 z"
         sodipodi:nodetypes="sszzssssss" />
    </g>
    <g
       id="g43483"
       style="stroke:none"
       transform="translate(0,41.27502)">
      <rect
         style="fill:#333333;fill-opacity:1;stroke:none;stroke-width:0.4"
         id="rect39098"
         width="116.25633"
         height="2.507843"
         x="18.450542"
         y="144.5591" />
      <rect
         style="fill:#333333;fill-opacity:1;stroke:none;stroke-width:0.4"
         id="rect42730"
         width="13.793119"
         height="2.3287115"
         x="102.64233"
         y="150.82872" />
      <rect
         style="fill:#333333;fill-opacity:1;stroke:none;stroke-width:0.4"
         id="rect42734"
         width="13.793119"
         height="2.3287115"
         x="35.826283"
         y="152.4409" />
      <rect
         style="fill:#333333;fill-opacity:1;stroke:none;stroke-width:0.263507"
         id="rect42736"
         width="11.133153"
         height="1.2520583"
         x="59.444633"
         y="162.295" />
      <rect
         style="fill:#333333;fill-opacity:1;stroke:none;stroke-width:0.202475"
         id="rect42738"
         width="6.5732098"
         height="1.2520583"
         x="93.897537"
         y="158.74837" />
      <rect
         style="fill:#333333;fill-opacity:1;stroke:none;stroke-width:0.202475"
         id="rect43466"
         width="6.5732098"
         height="1.2520583"
         x="108.84402"
         y="162.04166" />
      <rect
         style="fill:#333333;fill-opacity:1;stroke:none;stroke-width:0.184645"
         id="rect43468"
         width="4.5465684"
         height="1.5053885"
         x="31.831644"
         y="168.37491" />
      <rect
         style="fill:#333333;fill-opacity:1;stroke:none;stroke-width:0.184645"
         id="rect43470"
         width="4.5465684"
         height="1.5053885"
         x="97.697487"
         y="171.6682" />
      <rect
         style="fill:#333333;fill-opacity:1;stroke:none;stroke-width:0.4"
         id="rect43472"
         width="13.793119"
         height="2.3287115"
         x="68.949409"
         y="155.38866" />
    </g>
    <g
       id="g43511"
       transform="translate(0,41.27502)">
      <path
         id="path43485"
         style="fill:#333333;stroke:none;stroke-width:0.4"
         d="m 91.207461,130.76737 h 0.08957 c 0.81872,0 2.129437,1.99765 2.111158,4.29931 -0.01828,2.30166 -0.947803,4.83326 -0.696658,5.21639 0.251146,0.38312 2.742629,-0.66236 3.933553,-0.4011 1.190923,0.26125 1.141185,1.9393 0.731871,1.94544 l -6.327825,0.095 c -0.818628,0.0123 -1.319503,-1.37429 -1.319503,-2.01934 v -7.97135 c 0,-0.64505 0.659114,-1.16435 1.477834,-1.16435 z"
         sodipodi:nodetypes="sszzssssss" />
      <path
         id="path43487"
         style="fill:#323232;fill-opacity:1;stroke:none;stroke-width:0.4"
         d="m 101.3267,102.36828 c -1.411407,0 -2.927651,1.59744 -2.927651,3.58222 0,0 0.103243,4.61049 0.398545,9.41411 0.295302,4.80361 -7.365808,8.69804 -10.552579,8.51721 -3.186771,-0.18084 -5.456409,-4.79065 -7.526386,-3.92707 -2.069977,0.86358 -0.40244,9.47879 1.858909,13.61586 2.908601,5.32119 10.489543,6.05072 14.411369,5.78107 4.054223,-0.27876 7.854443,-3.40687 9.235633,-8.62431 1.3812,-5.21743 -3.96905,-14.76561 -0.42932,-13.80164 3.53974,0.96397 11.72381,-0.0678 11.72381,-0.0678 1.04865,0 0.3618,-1.57894 0.7535,-2.8464 h -9.24342 c -1.4114,0 -2.54766,-0.71915 -2.54766,-1.6123 0,-0.89315 1.13626,-1.61179 2.54766,-1.61179 h 9.45426 v -4.83694 c 0,-1.98478 -1.13626,-3.58222 -2.54766,-3.58222 z"
         sodipodi:nodetypes="sszzzsszzscssscsss" />
      <rect
         style="fill:#ececec;fill-opacity:1;stroke:none;stroke-width:0.4"
         id="rect43489"
         width="4.7022133"
         height="3.3587139"
         x="102.71978"
         y="104.92838"
         rx="1.8584951"
         ry="1.6121826" />
      <rect
         style="fill:#333333;fill-opacity:1;stroke:none;stroke-width:0.4"
         id="rect43491"
         width="1.7913202"
         height="1.7017481"
         x="104.10804"
         y="105.82402"
         rx="0.8956601"
         ry="0.62695861" />
      <path
         id="path43493"
         style="fill:#333333;stroke:none;stroke-width:0.4"
         d="m 100.57649,133.48914 h 0.0896 c 0.81873,0 2.12945,1.99765 2.11117,4.29931 -0.0183,2.30166 -0.94781,4.83326 -0.69666,5.21639 0.25115,0.38312 2.74265,-0.66236 3.93358,-0.4011 1.19092,0.26125 1.14119,1.9393 0.73187,1.94544 l -6.32786,0.095 c -0.818629,0.0123 -1.319504,-1.37429 -1.319504,-2.01934 v -7.97135 c 0,-0.64505 0.659114,-1.16435 1.477834,-1.16435 z"
         sodipodi:nodetypes="sszzssssss" />
      <path
         id="path43495"
         style="fill:#333333;stroke:none;stroke-width:0.352231"
         d="m 100.36452,125.89865 9.1e-4,0.0695 c 0.008,0.63482 2.01915,1.63541 4.32052,1.60314 2.30137,-0.0323 4.82342,-0.7729 5.20908,-0.58118 0.38565,0.19172 -0.63452,2.13177 -0.36119,3.05313 0.27331,0.92137 1.95078,0.86961 1.95277,0.55218 l 0.0308,-4.90719 c 0.004,-0.63484 -1.38761,-1.01231 -2.03263,-1.00723 l -7.97098,0.0626 c -0.64502,0.005 -1.15762,0.52022 -1.14932,1.15504 z"
         sodipodi:nodetypes="sszzssssss" />
    </g>
    <path
       id="rect45691"
       style="fill:#333333;fill-opacity:1;stroke:none;stroke-width:0.4"
       d="m 160.48489,136.27417 c -2.87707,0 -5.19348,2.97864 -5.19348,6.6787 v 22.96088 h -6.79649 v -13.67359 c 0,-1.36981 -1.22435,-2.4722 -2.74505,-2.4722 -1.52069,0 -2.74505,1.10239 -2.74505,2.4722 v 17.09508 c 0.0889,1.79473 0.74518,3.14368 2.07843,3.16518 h 10.20816 v 19.80241 c -4.47829,0.90958 -16.61922,3.26183 -16.61922,3.26183 9.82375,-0.0282 21.11284,0.16612 27.00566,-0.0868 v -27.79058 h 12.47418 c 1.59959,-0.0215 2.38673,-1.37045 2.49339,-3.16518 v -17.09508 c 0,-1.36981 -1.46887,-2.4722 -3.29334,-2.4722 -1.82449,0 -3.29334,1.10239 -3.29334,2.4722 v 13.67358 h -8.38089 v -18.14773 c 0,-3.70006 -2.31589,-6.6787 -5.19296,-6.6787 z"
       sodipodi:nodetypes="ssccssscccccccccsssccss" />
    <path
       id="path50783"
       style="fill:#333333;fill-opacity:1;stroke:none;stroke-width:0.432051"
       d="M 77.204073 28.812712 A 29.639631 20.688782 0 0 0 47.605363 48.703487 A 24.573029 10.893198 0 0 0 23.214087 59.594295 A 24.573029 10.893198 0 0 0 47.787264 70.48717 A 24.573029 10.893198 0 0 0 63.678284 67.897148 A 29.639631 20.688782 0 0 0 77.204073 70.190548 A 29.639631 20.688782 0 0 0 96.210665 65.363969 A 23.559708 15.453141 0 0 0 111.21182 68.905872 A 23.559708 15.453141 0 0 0 124.31386 66.285876 A 24.573029 10.893198 0 0 0 142.62489 69.919246 A 24.573029 10.893198 0 0 0 167.19806 59.025854 A 24.573029 10.893198 0 0 0 142.62489 48.132979 A 24.573029 10.893198 0 0 0 133.71535 48.879187 A 23.559708 15.453141 0 0 0 111.21182 37.999748 A 23.559708 15.453141 0 0 0 102.76892 39.034827 A 29.639631 20.688782 0 0 0 77.204073 28.812712 z M 77.433516 30.608468 A 26.274776 16.356709 0 0 1 101.8868 40.981995 A 21.259094 12.415815 0 0 1 111.11001 39.744344 A 21.259094 12.415815 0 0 1 132.34489 51.569462 A 20.005175 7.4896994 0 0 1 145.32446 49.775773 A 20.005175 7.4896994 0 0 1 165.32944 57.265238 A 20.005175 7.4896994 0 0 1 145.32446 64.755221 A 20.005175 7.4896994 0 0 1 127.09095 60.337402 A 21.259094 12.415815 0 0 1 111.11001 64.575903 A 21.259094 12.415815 0 0 1 94.108468 59.602563 A 26.274776 16.356709 0 0 1 77.433516 63.322233 A 26.274776 16.356709 0 0 1 63.375977 60.775102 A 20.632135 6.5044775 0 0 1 49.040934 62.605481 A 20.632135 6.5044775 0 0 1 28.409119 56.100968 A 20.632135 6.5044775 0 0 1 49.040934 49.596456 A 20.632135 6.5044775 0 0 1 51.528638 49.644515 A 26.274776 16.356709 0 0 1 51.158634 46.965092 A 26.274776 16.356709 0 0 1 77.433516 30.608468 z " />
    <g
       id="g51377"
       transform="translate(-2.6562381,22.24107)">
      <ellipse
         style="fill:#333333;fill-opacity:1;stroke:none;stroke-width:0.432051"
         id="ellipse51353"
         cx="81.004189"
         cy="72.554726"
         rx="29.639631"
         ry="20.688782" />
      <ellipse
         style="fill:#333333;fill-opacity:1;stroke:none;stroke-width:0.332908"
         id="ellipse51355"
         cx="115.01189"
         cy="76.505707"
         rx="23.559708"
         ry="15.453141" />
      <ellipse
         style="fill:#333333;fill-opacity:1;stroke:none;stroke-width:0.285455"
         id="ellipse51357"
         cx="146.42484"
         cy="82.078972"
         rx="24.573029"
         ry="10.893198" />
      <ellipse
         style="fill:#333333;fill-opacity:1;stroke:none;stroke-width:0.285455"
         id="ellipse51359"
         cx="51.587147"
         cy="82.647102"
         rx="24.573029"
         ry="10.893198" />
      <ellipse
         style="fill:#ececec;fill-opacity:1;stroke:none;stroke-width:0.20212"
         id="ellipse51361"
         cx="52.841064"
         cy="79.154037"
         rx="20.632135"
         ry="6.5044775" />
      <ellipse
         style="fill:#ececec;fill-opacity:1;stroke:none;stroke-width:0.361699"
         id="ellipse51363"
         cx="81.233398"
         cy="70.018333"
         rx="26.274776"
         ry="16.356709" />
      <ellipse
         style="fill:#ececec;fill-opacity:1;stroke:none;stroke-width:0.283459"
         id="ellipse51365"
         cx="114.91013"
         cy="75.213142"
         rx="21.259094"
         ry="12.415815" />
      <ellipse
         style="fill:#ececec;fill-opacity:1;stroke:none;stroke-width:0.213567"
         id="ellipse51367"
         cx="149.12425"
         cy="80.318398"
         rx="20.005175"
         ry="7.4896994" />
    </g>
  </g>
</svg>
